<svg width="12" height="12" viewBox="0 0 12 12" fill="none" xmlns="http://www.w3.org/2000/svg">
<path d="M10.0929 6.53026L5.59287 11.0303C5.45188 11.1692 5.26167 11.2468 5.06372 11.2461C4.86577 11.2454 4.67613 11.1664 4.53614 11.0264C4.39616 10.8865 4.31718 10.6969 4.31643 10.4989C4.31568 10.301 4.39322 10.1107 4.53215 9.96972L8.50188 5.99999L4.53215 2.03026C4.39322 1.88924 4.31568 1.69902 4.31643 1.50107C4.31718 1.30312 4.39616 1.11349 4.53614 0.973529C4.67613 0.833568 4.86577 0.754625 5.06372 0.753911C5.26167 0.753198 5.45188 0.830772 5.59287 0.969721L10.0929 5.46972C10.1625 5.53935 10.2178 5.62202 10.2554 5.71301C10.2931 5.80399 10.3125 5.90151 10.3125 5.99999C10.3125 6.09847 10.2931 6.19599 10.2554 6.28697C10.2178 6.37795 10.1625 6.46062 10.0929 6.53026ZM6.53037 5.46972L2.96787 1.90722C2.82688 1.76827 2.63667 1.6907 2.43872 1.69141C2.24077 1.69212 2.05113 1.77107 1.91114 1.91103C1.77116 2.05099 1.69218 2.24062 1.69143 2.43857C1.69068 2.63652 1.76822 2.82674 1.90715 2.96776L4.93938 5.99999L1.90715 9.03222C1.83666 9.10168 1.78063 9.1844 1.74226 9.27562C1.70389 9.36684 1.68396 9.46475 1.6836 9.5637C1.68324 9.66266 1.70247 9.76071 1.74018 9.8522C1.77789 9.94369 1.83333 10.0268 1.90331 10.0968C1.97329 10.1667 2.05642 10.2222 2.14792 10.2599C2.23942 10.2976 2.33747 10.3168 2.43643 10.3164C2.53539 10.316 2.63329 10.2961 2.7245 10.2577C2.81571 10.2193 2.89842 10.1633 2.96787 10.0928L6.53037 6.53026C6.60001 6.46062 6.65525 6.37795 6.69294 6.28697C6.73063 6.19599 6.75003 6.09847 6.75003 5.99999C6.75003 5.90151 6.73063 5.80399 6.69294 5.71301C6.65525 5.62202 6.60001 5.53935 6.53037 5.46972Z" fill="black"/>
</svg>
