<svg width="24" height="24" viewBox="0 0 24 24" fill="none" xmlns="http://www.w3.org/2000/svg">
<path d="M8.23412 24C7.74742 24 7.44854 23.5411 7.55223 23.1263L9.59322 14.9625H2.96251C2.34733 14.9625 2.02848 14.2243 2.45134 13.7766L15.2545 0.220396C15.474 -0.0121035 15.8228 -0.0671816 16.1033 0.0864277C16.3838 0.23999 16.5253 0.563475 16.4478 0.873693L14.4068 9.03749H21.0375C21.6527 9.03749 21.9715 9.77568 21.5487 10.2234L8.74558 23.7796C8.60917 23.924 8.42289 24 8.23412 24ZM4.59372 13.5562H10.4938C10.9505 13.5562 11.2869 13.9861 11.1759 14.4299L9.56823 20.8605L19.4063 10.4437H13.5062C13.0495 10.4437 12.7132 10.0139 12.8241 9.57008L14.4318 3.13949L4.59372 13.5562Z" fill="#B82132"/>
</svg>
