<svg width="32" height="32" viewBox="0 0 32 32" fill="none" xmlns="http://www.w3.org/2000/svg">
<path d="M28.1824 15.3579L24.5477 14.3193C22.9109 13.8578 21.4199 12.984 20.2174 11.7815C19.0149 10.579 18.1412 9.08806 17.6797 7.45128L16.641 3.81661C16.5888 3.68944 16.4999 3.58068 16.3857 3.50413C16.2715 3.42759 16.1372 3.38672 15.9997 3.38672C15.8622 3.38672 15.7278 3.42759 15.6137 3.50413C15.4995 3.58068 15.4106 3.68944 15.3584 3.81661L14.3197 7.45128C13.8582 9.08806 12.9845 10.579 11.782 11.7815C10.5795 12.984 9.08848 13.8578 7.4517 14.3193L3.81703 15.3579C3.67747 15.3976 3.55464 15.4816 3.46718 15.5973C3.37972 15.7131 3.3324 15.8542 3.3324 15.9993C3.3324 16.1443 3.37972 16.2855 3.46718 16.4012C3.55464 16.5169 3.67747 16.601 3.81703 16.6406L7.4517 17.6793C9.08848 18.1407 10.5795 19.0145 11.782 20.217C12.9845 21.4195 13.8582 22.9105 14.3197 24.5473L15.3584 28.1819C15.398 28.3215 15.482 28.4443 15.5978 28.5318C15.7135 28.6193 15.8546 28.6666 15.9997 28.6666C16.1448 28.6666 16.2859 28.6193 16.4016 28.5318C16.5174 28.4443 16.6014 28.3215 16.641 28.1819L17.6797 24.5473C18.1412 22.9105 19.0149 21.4195 20.2174 20.217C21.4199 19.0145 22.9109 18.1407 24.5477 17.6793L28.1824 16.6406C28.3219 16.601 28.4448 16.5169 28.5322 16.4012C28.6197 16.2855 28.667 16.1443 28.667 15.9993C28.667 15.8542 28.6197 15.7131 28.5322 15.5973C28.4448 15.4816 28.3219 15.3976 28.1824 15.3579Z" fill="white"/>
</svg>
