<svg width="80" height="80" viewBox="0 0 80 80" fill="none" xmlns="http://www.w3.org/2000/svg">
<path d="M43.7998 49.3843V47.4883C43.7998 29.9054 56.817 15.5768 73.8167 13.5372C76.0513 13.2692 77.9998 15.0712 77.9998 17.3218C77.9998 19.2636 76.5323 20.858 74.6057 21.1007C68.6167 21.855 63.2526 24.5732 59.2426 28.5148C57.8184 29.9148 58.8419 32.2965 60.8389 32.2884C60.8579 32.2884 60.8768 32.2883 60.8958 32.2883C70.6952 32.2883 78.4704 40.3681 77.9776 50.275C77.5468 58.937 70.4485 66.0353 61.7865 66.4661C51.8796 66.9589 43.7998 59.1837 43.7998 49.3843Z" fill="white" fill-opacity="0.4"/>
<path d="M2 49.0054L2 47.4883C2 29.9054 15.0172 15.5768 32.0169 13.5372C34.2515 13.2692 36.2 15.0712 36.2 17.3218C36.2 19.2635 34.7326 20.858 32.8061 21.1009C26.8207 21.8557 21.4551 24.5738 17.4471 28.5152C16.0234 29.9152 17.0467 32.2969 19.0435 32.2884C19.0637 32.2884 19.0838 32.2883 19.104 32.2883C28.6 32.2883 36.2 39.8883 36.2 49.3843C36.2 59.055 28.3311 66.7543 18.6026 66.4813C9.29063 66.2199 2 58.3211 2 49.0054Z" fill="white" fill-opacity="0.4"/>
</svg>
