<svg width="24" height="24" viewBox="0 0 24 24" fill="none" xmlns="http://www.w3.org/2000/svg">
<g clip-path="url(#clip0_319_718)">
<path d="M6.60869 19.794C5.37044 20.505 3.97469 20.76 3.14819 20.8515C3.23969 20.025 3.49469 18.6293 4.20494 17.3903C4.39094 17.067 4.27919 16.6545 3.95594 16.4685C3.62969 16.2818 3.21944 16.395 3.03419 16.7183C1.76219 18.9368 1.74719 21.4703 1.74719 21.5775C1.74719 21.9503 2.04944 22.2525 2.42219 22.2525C2.52944 22.2525 5.06294 22.2375 7.28144 20.9655C7.60469 20.7795 7.71644 20.3678 7.53044 20.0438C7.34594 19.7205 6.93419 19.608 6.60869 19.794Z" fill="#B82132"/>
<path d="M23.1815 2.45625C23.1897 2.013 23.0225 1.5975 22.7105 1.28625C22.3992 0.975005 21.9492 0.821255 21.5427 0.817505C19.6737 0.852755 14.6322 1.389 9.86222 5.67075C9.01172 5.34 7.72997 4.84875 6.75722 4.974C5.32622 5.15775 3.21197 7.10475 1.14122 9.18225C0.866722 9.45751 0.757222 9.8475 0.849472 10.2255C0.940972 10.605 1.21847 10.9028 1.59047 11.022L4.88297 12.0795C4.63472 12.5325 4.39022 12.996 4.15397 13.485C3.85697 14.1 3.98297 14.8388 4.46747 15.3218L8.67722 19.5315C8.98622 19.8413 9.40022 20.0048 9.81797 20.0048C10.0542 20.0048 10.2927 19.953 10.5147 19.8458C11.0037 19.6095 11.4672 19.365 11.9187 19.1175L12.977 22.4093C13.0962 22.7813 13.394 23.0588 13.7742 23.151C13.862 23.172 13.9505 23.1825 14.039 23.1825C14.3277 23.1825 14.606 23.0693 14.8175 22.8585C16.895 20.7878 18.842 18.6743 19.025 17.244C19.1517 16.2623 18.659 14.988 18.3282 14.1375C22.6092 9.36751 23.1462 4.326 23.1815 2.45625ZM2.37572 9.85725C3.47447 8.763 5.86097 6.45076 6.92897 6.31351C7.40522 6.25276 8.15297 6.4785 8.78447 6.70725C7.66922 7.86 6.58622 9.2415 5.57672 10.8848L2.37572 9.85725ZM9.92747 18.63C9.83222 18.6765 9.70997 18.6555 9.63197 18.5775L5.42147 14.367C5.34422 14.2898 5.32247 14.1683 5.36972 14.0715C10.613 3.21075 19.094 2.21475 21.569 2.16825H21.575C21.6642 2.16825 21.7227 2.208 21.7572 2.2425C21.7857 2.271 21.8345 2.334 21.833 2.4315C21.785 4.9065 20.7882 13.3875 9.92747 18.63ZM17.6862 17.0715C17.549 18.1388 15.2367 20.526 14.1425 21.624L13.1135 18.4238C14.7582 17.4143 16.1397 16.3305 17.2925 15.2153C17.522 15.846 17.7477 16.5923 17.6862 17.0715Z" fill="#B82132"/>
<path d="M18.0958 9.91055C19.1998 8.8058 19.1998 7.0088 18.0958 5.90405C17.0248 4.83455 15.1588 4.83455 14.0893 5.90405C13.5545 6.4388 13.2598 7.15055 13.2598 7.9073C13.2598 8.66405 13.5553 9.3758 14.0893 9.91055C14.624 10.4453 15.3358 10.7401 16.0925 10.7401C16.8493 10.7401 17.5603 10.4453 18.0958 9.91055ZM17.1403 8.9558C16.58 9.5168 15.6028 9.5168 15.044 8.9558C14.7635 8.67605 14.609 8.3033 14.609 7.9073C14.609 7.5113 14.7635 7.1393 15.044 6.8588C15.3238 6.57905 15.6958 6.42455 16.0918 6.42455C16.487 6.42455 16.8598 6.57905 17.1395 6.8588C17.7185 7.43705 17.7185 8.37755 17.1403 8.9558Z" fill="#B82132"/>
</g>
<defs>
<clipPath id="clip0_319_718">
<rect width="24" height="24" fill="white"/>
</clipPath>
</defs>
</svg>
