<svg width="22" height="22" viewBox="0 0 22 22" fill="none" xmlns="http://www.w3.org/2000/svg">
<path fill-rule="evenodd" clip-rule="evenodd" d="M2.7006 4.22694L8.64404 10.173C9.94032 11.4667 12.0593 11.4679 13.3566 10.173L19.3001 4.22694C19.3599 4.16708 19.3512 4.06851 19.2818 4.02009C18.6756 3.59732 17.938 3.34668 17.1435 3.34668H4.8572C4.06267 3.34668 3.32511 3.59736 2.71891 4.02009C2.64947 4.06851 2.64075 4.16708 2.7006 4.22694ZM1.1123 7.09153C1.1123 6.46677 1.26721 5.87646 1.54006 5.35762C1.58273 5.27645 1.69088 5.26003 1.75572 5.32487L7.62392 11.1931C9.48219 13.054 12.5174 13.0551 14.3768 11.1931L20.245 5.32487C20.3098 5.26003 20.418 5.27645 20.4607 5.35762C20.7335 5.87646 20.8884 6.46681 20.8884 7.09153V14.9091C20.8884 16.9756 19.2074 18.654 17.1435 18.654H4.8572C2.79333 18.654 1.1123 16.9756 1.1123 14.9091V7.09153Z" fill="black"/>
</svg>
