<svg width="12" height="12" viewBox="0 0 12 12" fill="none" xmlns="http://www.w3.org/2000/svg">
<path d="M4.15401 11.5534C4.19801 11.5808 4.35301 11.658 4.50861 11.5248L10.6864 6.25019C10.7586 6.18839 10.8 6.09739 10.8 6.00039C10.8 5.90339 10.7586 5.81239 10.6864 5.75059L4.50861 0.475991C4.44141 0.418591 4.37441 0.400391 4.31641 0.400391C4.24001 0.400391 4.17901 0.431991 4.15401 0.447391C4.05701 0.506991 3.96861 0.632391 4.01081 0.805391L5.23781 5.82579C5.26581 5.93999 5.26581 6.06079 5.23781 6.17499L4.01081 11.1954C3.96861 11.3684 4.05701 11.4938 4.15401 11.5534Z" fill="white"/>
<path d="M2.40001 7.20078C3.06275 7.20078 3.60001 6.66352 3.60001 6.00078C3.60001 5.33804 3.06275 4.80078 2.40001 4.80078C1.73727 4.80078 1.20001 5.33804 1.20001 6.00078C1.20001 6.66352 1.73727 7.20078 2.40001 7.20078Z" fill="white"/>
</svg>
