<svg width="40" height="40" viewBox="0 0 40 40" fill="none" xmlns="http://www.w3.org/2000/svg">
<mask id="mask0_319_832" style="mask-type:luminance" maskUnits="userSpaceOnUse" x="0" y="0" width="40" height="40">
<path d="M0 0H40V40H0V0Z" fill="white"/>
</mask>
<g mask="url(#mask0_319_832)">
<path d="M0.78125 12.1348H13.0387H36.3687" stroke="#B82132" stroke-width="1.7" stroke-miterlimit="10" stroke-linecap="round" stroke-linejoin="round"/>
<path d="M7.30494 8.8103C8.32806 8.8103 9.16291 7.97811 9.16291 6.95553C9.16291 5.93296 8.32806 5.10077 7.30494 5.10077C6.28408 5.10077 5.44916 5.93296 5.44916 6.95553C5.44916 7.97811 6.28408 8.8103 7.30494 8.8103Z" stroke="#B82132" stroke-width="1.7" stroke-miterlimit="10" stroke-linecap="round" stroke-linejoin="round"/>
<path d="M23.4338 5.10077H30.4229C31.4438 5.10077 32.2787 5.93522 32.2787 6.95553C32.2787 7.97592 31.4438 8.8103 30.4229 8.8103H23.4338C22.413 8.8103 21.5781 7.97592 21.5781 6.95553C21.5781 5.93522 22.413 5.10077 23.4338 5.10077Z" stroke="#B82132" stroke-width="1.7" stroke-miterlimit="10" stroke-linecap="round" stroke-linejoin="round"/>
<path d="M14.1565 8.8103C15.1796 8.8103 16.0145 7.97811 16.0145 6.95553C16.0145 5.93296 15.1796 5.10077 14.1565 5.10077C13.1356 5.10077 12.3007 5.93296 12.3007 6.95553C12.3007 7.97811 13.1356 8.8103 14.1565 8.8103Z" stroke="#B82132" stroke-width="1.7" stroke-miterlimit="10" stroke-linecap="round" stroke-linejoin="round"/>
<path d="M12.6885 18.144L11.1249 24.6868" stroke="#B82132" stroke-width="1.7" stroke-miterlimit="10" stroke-linecap="round" stroke-linejoin="round"/>
<path d="M16.29 24.0957L18.5022 21.6123C18.5997 21.5038 18.5997 21.3268 18.5022 21.2184L16.29 18.7349" stroke="#B82132" stroke-width="1.7" stroke-miterlimit="10" stroke-linecap="round" stroke-linejoin="round"/>
<path d="M7.52447 24.0957L5.3122 21.6123C5.2147 21.5038 5.2147 21.3268 5.3122 21.2184L7.52447 18.7349" stroke="#B82132" stroke-width="1.7" stroke-miterlimit="10" stroke-linecap="round" stroke-linejoin="round"/>
<path d="M31.603 21.5969C32.4577 21.7873 33.2572 22.1237 33.977 22.5752L34.617 21.9377C34.9956 21.557 35.6179 21.557 35.9988 21.9377L37.0064 22.9448C37.3873 23.3255 37.3873 23.9475 37.0064 24.326L36.3686 24.9656C36.8182 25.6784 37.1503 26.4708 37.3431 27.3162H38.2399C38.7781 27.3162 39.2187 27.7567 39.2187 28.2923V29.72C39.2187 30.2555 38.7781 30.696 38.2399 30.696H37.3386C37.1459 31.5371 36.8138 32.3251 36.3686 33.0334L37.0064 33.6708C37.3873 34.0515 37.3873 34.6734 37.0064 35.052L35.9988 36.0612C35.6179 36.4419 34.9956 36.4419 34.617 36.0612L33.977 35.4237C33.2661 35.8709 32.4755 36.2029 31.6295 36.3955V37.3029C31.6295 37.8408 31.1888 38.2812 30.653 38.2812H29.2246C28.6886 38.2812 28.248 37.8408 28.248 37.3029V36.3933C27.4064 36.2029 26.6159 35.8687 25.9049 35.4237L25.2672 36.0612C24.8863 36.4419 24.2641 36.4419 23.8853 36.0612L22.8756 35.052C22.4968 34.6734 22.4968 34.0515 22.8756 33.6708L23.5155 33.0334C23.0682 32.3251 22.736 31.5371 22.5434 30.696H21.6376C21.0995 30.696 20.6609 30.2555 20.6609 29.72V28.2923C20.6609 27.7567 21.0995 27.3162 21.6376 27.3162H22.5412C22.7316 26.4796 23.0594 25.6961 23.5 24.99L22.8578 24.3459C22.477 23.9674 22.477 23.3455 22.8578 22.9648L23.8654 21.9577C24.2463 21.577 24.8686 21.577 25.2473 21.9577L25.8828 22.5907C26.5916 22.1414 27.3799 21.8071 28.2214 21.6102V20.7094C28.2214 20.1715 28.6599 19.731 29.198 19.731H30.6242C31.1623 19.731 31.603 20.1715 31.603 20.7094V21.5969Z" stroke="#B82132" stroke-width="1.7" stroke-miterlimit="10" stroke-linecap="round" stroke-linejoin="round"/>
<path d="M29.9403 24.9812C32.1637 24.9812 33.9663 26.783 33.9663 29.0073C33.9663 31.2296 32.1637 33.0312 29.9403 33.0312C27.7148 33.0312 25.912 31.2296 25.912 29.0073C25.912 26.783 27.7148 24.9812 29.9403 24.9812Z" stroke="#B82132" stroke-width="1.7" stroke-miterlimit="10" stroke-linecap="round" stroke-linejoin="round"/>
<path d="M8.31502 30.696H3.69103C2.09228 30.696 0.781189 29.1313 0.781189 27.2211V5.1937C0.781189 3.28143 2.08994 1.71878 3.69103 1.71878H7.06158H33.4588C35.0599 1.71878 36.3686 3.28362 36.3686 5.1937V22.3074M21.6376 30.696H15.2974" stroke="#B82132" stroke-width="1.7" stroke-miterlimit="10" stroke-linecap="round" stroke-linejoin="round"/>
<path d="M11.8144 30.696H11.8299" stroke="#B82132" stroke-width="1.7" stroke-miterlimit="10" stroke-linecap="round" stroke-linejoin="round"/>
</g>
</svg>
