<svg width="40" height="40" viewBox="0 0 40 40" fill="none" xmlns="http://www.w3.org/2000/svg">
<path d="M19.9995 30.3525C18.4483 30.3525 16.8958 30.0488 15.4495 29.44L4.15702 24.6863C2.68327 24.0663 1.61077 22.835 1.21327 21.3088C0.948265 20.2913 1.00327 19.2225 1.34702 18.2588C1.62077 17.4913 2.59077 17.2413 3.23327 17.7413L3.26327 17.765C3.66577 18.0788 3.87577 18.6163 3.70327 19.0963C3.52327 19.5938 3.49452 20.1488 3.63327 20.6788C3.83577 21.4575 4.36702 22.0625 5.12702 22.3825L16.4195 27.1363C18.697 28.095 21.3083 28.095 23.5808 27.1363L34.872 22.3825C35.5895 22.08 36.1083 21.5175 36.3333 20.7963C36.472 20.3513 36.4883 19.8763 36.392 19.43C36.2758 18.8963 36.4383 18.3425 36.8983 18.0475L36.9533 18.0125C37.6495 17.5675 38.592 17.9288 38.7933 18.73C39.0233 19.645 39.0045 20.6263 38.7208 21.5388C38.2733 22.975 37.2508 24.0925 35.8408 24.6863L24.5495 29.44C23.1045 30.0488 21.552 30.3525 19.9983 30.3525H19.9995Z" fill="#B82132"/>
<path d="M19.9998 21.9602C18.4486 21.9602 16.8961 21.6565 15.4498 21.0477L4.15733 16.2952C2.23733 15.4877 1.04608 13.6915 1.04608 11.6077C1.04608 9.52397 2.23733 7.72896 4.15733 6.92146L15.4498 2.16896C18.3398 0.950215 21.6598 0.951465 24.5498 2.16896L35.8411 6.92146C37.7611 7.72896 38.9536 9.52522 38.9536 11.6077C38.9536 13.6902 37.7611 15.4865 35.8411 16.2952L24.5498 21.0477C23.1048 21.6565 21.5523 21.9602 19.9986 21.9602H19.9998ZM5.12608 9.22646C4.13608 9.64271 3.54483 10.534 3.54483 11.6077C3.54483 12.6815 4.13608 13.5727 5.12608 13.9902L16.4186 18.7427C18.6936 19.7015 21.3048 19.7027 23.5798 18.7427L34.8711 13.9902C35.8611 13.574 36.4536 12.6827 36.4536 11.6077C36.4536 10.5327 35.8611 9.64271 34.8711 9.22646L23.5798 4.47396C21.3048 3.51521 18.6936 3.51646 16.4186 4.47396L5.12608 9.22646Z" fill="#B82132"/>
<path d="M19.9994 38.9562C18.4482 38.9562 16.8957 38.6524 15.4494 38.0437L4.1569 33.2912C2.2369 32.4837 1.04565 30.6874 1.04565 28.6049C1.04565 26.5224 2.2369 24.7262 4.1569 23.9174L5.9819 23.1499L6.95065 25.4549L5.12565 26.2224C4.13565 26.6387 3.5444 27.5299 3.5444 28.6049C3.5444 29.6799 4.13565 30.5699 5.12565 30.9862L16.4182 35.7387C18.6932 36.6974 21.3044 36.6974 23.5794 35.7387L34.8707 30.9862C35.8607 30.5699 36.4532 29.6787 36.4532 28.6049C36.4532 27.5312 35.8607 26.6399 34.8707 26.2224L33.0469 25.4549L34.0157 23.1499L35.8394 23.9174C37.7594 24.7249 38.9519 26.5212 38.9519 28.6049C38.9519 30.6887 37.7594 32.4837 35.8394 33.2912L24.5482 38.0437C23.1032 38.6524 21.5507 38.9562 19.9969 38.9562H19.9994Z" fill="#B82132"/>
</svg>
