<svg width="40" height="40" viewBox="0 0 40 40" fill="none" xmlns="http://www.w3.org/2000/svg">
<g clip-path="url(#clip0_319_793)">
<path d="M34.9355 5.20175H34.4609C35.3656 3.72889 35.0315 1.7515 33.5796 0.67426C32.0152 -0.486343 29.792 -0.112756 28.7002 1.51877L26.2357 5.20183H5.06452C3.32432 5.20183 1.90857 6.61758 1.90857 8.35778V28.535C1.90857 30.2752 3.32432 31.691 5.06452 31.691H17.3232L16.397 35.5813H14.3979C13.095 35.5813 12.035 36.6412 12.035 37.9441V38.4374H9.57061C9.13913 38.4374 8.78937 38.7873 8.78937 39.2187C8.78937 39.6501 9.13913 39.9999 9.57061 39.9999H30.4295C30.861 39.9999 31.2107 39.6501 31.2107 39.2187C31.2107 38.7873 30.861 38.4374 30.4295 38.4374H27.9651V37.9441C27.9651 36.6412 26.9051 35.5813 25.6022 35.5813H23.6031L22.6769 31.691H34.9356C36.6758 31.691 38.0915 30.2752 38.0915 28.535V24.0953V8.3577C38.0915 6.6175 36.6758 5.20175 34.9355 5.20175ZM23.7418 18.9358C22.5204 19.7908 20.232 18.6286 18.0468 19.7947C17.5136 17.0248 17.8497 14.4198 20.6251 13.8448C20.9837 13.77 21.3699 13.7362 21.6986 13.7428C22.638 14.4397 23.5881 15.1446 24.5248 15.8397C24.9349 17.0325 24.781 18.2084 23.7418 18.9358ZM24.5291 10.5619L26.7406 12.2026L25.0399 14.2761C24.3398 13.7567 23.7379 13.3101 23.0378 12.7906C23.1832 12.5733 24.3963 10.7604 24.5291 10.5619ZM29.9989 2.38774C30.5906 1.50331 31.7974 1.29753 32.6486 1.92916C33.5001 2.56086 33.6526 3.77537 32.9779 4.59809C31.7806 6.05767 28.9343 9.52799 27.7325 10.9932L25.399 9.26183L29.9989 2.38774ZM26.4025 37.9441V38.4374H13.5975V37.9441C13.5975 37.5028 13.9565 37.1438 14.3979 37.1438H25.6022C26.0435 37.1438 26.4025 37.5028 26.4025 37.9441ZM21.9969 35.5813H18.0031L18.9293 31.691H21.0707L21.9969 35.5813ZM36.5291 28.535C36.5291 29.4137 35.8142 30.1285 34.9356 30.1285C33.6954 30.1285 6.45895 30.1285 5.0646 30.1285C4.18595 30.1285 3.47112 29.4137 3.47112 28.535V24.8765H5.70357C6.13505 24.8765 6.48481 24.5267 6.48481 24.0953C6.48481 23.6639 6.13505 23.314 5.70357 23.314H3.47096V8.3577C3.47096 7.47905 4.18579 6.76422 5.06444 6.76422H25.1902C24.4418 7.88271 22.2583 11.1458 21.5667 12.1793C20.0357 12.1931 18.5072 12.7264 17.5066 13.8945C16.145 15.484 15.9058 17.9814 16.7956 21.3174C16.9477 21.8879 17.6595 22.0923 18.0902 21.6809C20.1102 19.7507 22.6261 21.8561 24.8791 20.0326C26.2544 18.9193 26.5799 17.1495 26.0613 15.4945C26.7623 14.6398 32.5193 7.62092 33.2219 6.76422H34.9354C35.8141 6.76422 36.5289 7.47905 36.5289 8.3577V23.314H11.9533C11.5218 23.314 11.1721 23.6638 11.1721 24.0952C11.1721 24.5266 11.5218 24.8764 11.9533 24.8764H36.5291V28.535Z" fill="#B82132"/>
<path d="M8.67805 23.3293C8.30196 23.4061 8.04993 23.7312 8.04993 24.0957C8.04993 24.5844 8.49672 24.9586 8.98352 24.8614C9.4161 24.7736 9.67961 24.3567 9.5968 23.9426C9.50985 23.5153 9.09532 23.2453 8.67805 23.3293Z" fill="#B82132"/>
</g>
<defs>
<clipPath id="clip0_319_793">
<rect width="40" height="40" fill="white"/>
</clipPath>
</defs>
</svg>
