<svg width="40" height="40" viewBox="0 0 40 40" fill="none" xmlns="http://www.w3.org/2000/svg">
<g clip-path="url(#clip0_319_756)">
<path d="M32.5002 27.6505V4.16716C32.5002 3.06209 32.0613 2.00228 31.2799 1.22088C30.4985 0.439475 29.4386 0.000488281 28.3336 0.000488281L11.6669 0.000488281C10.5618 0.000488281 9.50203 0.439475 8.72063 1.22088C7.93923 2.00228 7.50024 3.06209 7.50024 4.16716L7.50024 35.8338C7.50024 36.381 7.60802 36.9228 7.81741 37.4283C8.02681 37.9339 8.33372 38.3932 8.72063 38.7801C9.10754 39.167 9.56687 39.4739 10.0724 39.6833C10.5779 39.8927 11.1197 40.0005 11.6669 40.0005C22.4086 40.0005 21.9502 40.1255 22.3002 39.7088C23.0502 38.8255 22.1086 38.4505 17.1752 34.2338C17.0811 34.1538 17.0085 34.0516 16.9639 33.9364C16.9193 33.8212 16.9041 33.6967 16.9199 33.5742C16.9356 33.4517 16.9817 33.335 17.0539 33.2349C17.1262 33.1347 17.2223 33.0541 17.3336 33.0005C17.7086 32.8088 17.5669 32.8422 21.4002 34.1255C21.5258 34.1679 21.6596 34.1797 21.7907 34.1601C21.9217 34.1404 22.0462 34.0898 22.1537 34.0124C22.2612 33.935 22.3488 33.833 22.4091 33.715C22.4693 33.597 22.5006 33.4663 22.5002 33.3338V22.5005C22.5002 22.2795 22.588 22.0675 22.7443 21.9112C22.9006 21.755 23.1126 21.6672 23.3336 21.6672C23.5546 21.6672 23.7666 21.755 23.9228 21.9112C24.0791 22.0675 24.1669 22.2795 24.1669 22.5005V31.6672C24.1669 31.8882 24.2547 32.1001 24.411 32.2564C24.5673 32.4127 24.7792 32.5005 25.0002 32.5005C25.2213 32.5005 25.4332 32.4127 25.5895 32.2564C25.7458 32.1001 25.8336 31.8882 25.8336 31.6672V28.3338C25.8336 28.1128 25.9214 27.9008 26.0777 27.7446C26.2339 27.5883 26.4459 27.5005 26.6669 27.5005C26.8879 27.5005 27.0999 27.5883 27.2562 27.7446C27.4124 27.9008 27.5002 28.1128 27.5002 28.3338V31.6672C27.5002 31.8882 27.588 32.1001 27.7443 32.2564C27.9006 32.4127 28.1126 32.5005 28.3336 32.5005C28.5546 32.5005 28.7666 32.4127 28.9228 32.2564C29.0791 32.1001 29.1669 31.8882 29.1669 31.6672V29.1672C29.1669 28.9461 29.2547 28.7342 29.411 28.5779C29.5673 28.4216 29.7792 28.3338 30.0002 28.3338C30.2213 28.3338 30.4332 28.4216 30.5895 28.5779C30.7458 28.7342 30.8336 28.9461 30.8336 29.1672V31.6672C30.8336 31.8882 30.9214 32.1001 31.0777 32.2564C31.2339 32.4127 31.4459 32.5005 31.6669 32.5005C31.8879 32.5005 32.0999 32.4127 32.2562 32.2564C32.4124 32.1001 32.5002 31.8882 32.5002 31.6672V30.0005C32.5002 29.7795 32.588 29.5675 32.7443 29.4112C32.9006 29.255 33.1126 29.1672 33.3336 29.1672C33.5546 29.1672 33.7666 29.255 33.9228 29.4112C34.0791 29.5675 34.1669 29.7795 34.1669 30.0005V39.1672C34.1669 39.3882 34.2547 39.6001 34.411 39.7564C34.5673 39.9127 34.7792 40.0005 35.0002 40.0005C35.2213 40.0005 35.4332 39.9127 35.5895 39.7564C35.7458 39.6001 35.8336 39.3882 35.8336 39.1672V30.0005C35.8325 29.6011 35.7357 29.2079 35.5513 28.8536C35.367 28.4993 35.1005 28.1944 34.7741 27.9642C34.4477 27.7341 34.0709 27.5856 33.6753 27.531C33.2797 27.4764 32.8768 27.5174 32.5002 27.6505ZM9.16691 4.16716C9.16691 3.50411 9.4303 2.86823 9.89914 2.39939C10.368 1.93055 11.0039 1.66716 11.6669 1.66716L28.3336 1.66716C28.9966 1.66716 29.6325 1.93055 30.1013 2.39939C30.5702 2.86823 30.8336 3.50411 30.8336 4.16716V5.00049L9.16691 5.00049V4.16716ZM19.4086 38.3338H11.6669C11.0039 38.3338 10.368 38.0704 9.89914 37.6016C9.4303 37.1327 9.16691 36.4969 9.16691 35.8338V35.0005H15.6586C15.9252 35.4088 15.7669 35.2255 19.4086 38.3338ZM28.7752 27.0005C28.4721 26.5234 28.0162 26.1632 27.4819 25.9786C26.9477 25.7939 26.3666 25.7958 25.8336 25.9838V22.5005C25.8336 21.8374 25.5702 21.2016 25.1013 20.7327C24.6325 20.2639 23.9966 20.0005 23.3336 20.0005C22.6705 20.0005 22.0347 20.2639 21.5658 20.7327C21.097 21.2016 20.8336 21.8374 20.8336 22.5005H13.3336C13.1126 22.5005 12.9006 22.5883 12.7443 22.7446C12.588 22.9008 12.5002 23.1128 12.5002 23.3338C12.5002 23.5548 12.588 23.7668 12.7443 23.9231C12.9006 24.0794 13.1126 24.1672 13.3336 24.1672H20.8336V32.1755L18.4336 31.3422C18.0952 31.2297 17.7361 31.1938 17.3821 31.237C17.0282 31.2802 16.6883 31.4014 16.3869 31.592C16.0855 31.7825 15.8302 32.0376 15.6394 32.3389C15.4486 32.6401 15.3271 32.9799 15.2836 33.3338H9.16691L9.16691 6.66716L30.8336 6.66716V26.8172C30.4984 26.6931 30.1398 26.6451 29.7837 26.6768C29.4277 26.7085 29.0832 26.8191 28.7752 27.0005Z" fill="#B82132"/>
<path d="M17.5002 10.0003V14.167C17.5002 14.609 17.3246 15.0329 17.0121 15.3455C16.6995 15.6581 16.2756 15.8337 15.8336 15.8337C15.3916 15.8337 14.9676 15.6581 14.6551 15.3455C14.3425 15.0329 14.1669 14.609 14.1669 14.167V10.0003C14.1669 9.77931 14.0791 9.56735 13.9228 9.41107C13.7666 9.25479 13.5546 9.16699 13.3336 9.16699C13.1126 9.16699 12.9006 9.25479 12.7443 9.41107C12.588 9.56735 12.5002 9.77931 12.5002 10.0003V14.167C12.5002 15.051 12.8514 15.8989 13.4766 16.524C14.1017 17.1491 14.9495 17.5003 15.8336 17.5003C16.7176 17.5003 17.5655 17.1491 18.1906 16.524C18.8157 15.8989 19.1669 15.051 19.1669 14.167V10.0003C19.1669 9.77931 19.0791 9.56735 18.9228 9.41107C18.7666 9.25479 18.5546 9.16699 18.3336 9.16699C18.1126 9.16699 17.9006 9.25479 17.7443 9.41107C17.588 9.56735 17.5002 9.77931 17.5002 10.0003Z" fill="#B82132"/>
<path d="M26.0003 9.50033L24.167 11.942L22.3336 9.50033C22.201 9.32352 22.0036 9.20663 21.7848 9.17537C21.566 9.14411 21.3438 9.20105 21.167 9.33366C20.9901 9.46627 20.8733 9.66369 20.842 9.88248C20.8107 10.1013 20.8677 10.3235 21.0003 10.5003L23.1253 13.3337L21.0003 16.167C20.8677 16.3438 20.8107 16.5661 20.842 16.7848C20.8733 17.0036 20.9901 17.2011 21.167 17.3337C21.3438 17.4663 21.566 17.5232 21.7848 17.492C22.0036 17.4607 22.201 17.3438 22.3336 17.167L24.167 14.7253L26.0003 17.167C26.1329 17.3438 26.3303 17.4607 26.5491 17.492C26.7679 17.5232 26.9901 17.4663 27.167 17.3337C27.3438 17.2011 27.4607 17.0036 27.4919 16.7848C27.5232 16.5661 27.4662 16.3438 27.3336 16.167L25.2086 13.3337L27.3336 10.5003C27.4662 10.3235 27.5232 10.1013 27.4919 9.88248C27.4607 9.66369 27.3438 9.46627 27.167 9.33366C26.9901 9.20105 26.7679 9.14411 26.5491 9.17537C26.3303 9.20663 26.1329 9.32352 26.0003 9.50033Z" fill="#B82132"/>
<path d="M18.3339 19.1675H13.3339C13.1129 19.1675 12.901 19.2553 12.7447 19.4116C12.5884 19.5678 12.5006 19.7798 12.5006 20.0008C12.5006 20.2218 12.5884 20.4338 12.7447 20.5901C12.901 20.7464 13.1129 20.8341 13.3339 20.8341H18.3339C18.555 20.8341 18.7669 20.7464 18.9232 20.5901C19.0795 20.4338 19.1673 20.2218 19.1673 20.0008C19.1673 19.7798 19.0795 19.5678 18.9232 19.4116C18.7669 19.2553 18.555 19.1675 18.3339 19.1675Z" fill="#B82132"/>
<path d="M13.3336 27.5007H16.6669C16.8879 27.5007 17.0999 27.4129 17.2562 27.2566C17.4124 27.1003 17.5002 26.8883 17.5002 26.6673C17.5002 26.4463 17.4124 26.2343 17.2562 26.0781C17.0999 25.9218 16.8879 25.834 16.6669 25.834H13.3336C13.1126 25.834 12.9006 25.9218 12.7443 26.0781C12.588 26.2343 12.5002 26.4463 12.5002 26.6673C12.5002 26.8883 12.588 27.1003 12.7443 27.2566C12.9006 27.4129 13.1126 27.5007 13.3336 27.5007Z" fill="#B82132"/>
</g>
<defs>
<clipPath id="clip0_319_756">
<rect width="40" height="40" fill="white"/>
</clipPath>
</defs>
</svg>
