<svg width="40" height="40" viewBox="0 0 40 40" fill="none" xmlns="http://www.w3.org/2000/svg">
<g clip-path="url(#clip0_319_777)">
<path d="M39.6415 16.4064C39.5129 16.8026 39.1453 17.0545 38.7501 17.0545C38.6541 17.0545 38.5565 17.0396 38.4603 17.0083L35.0511 15.9007C34.5587 15.7407 34.2891 15.2118 34.4491 14.7193C34.609 14.2269 35.1379 13.9574 35.6305 14.1174L39.0397 15.225C39.532 15.3852 39.8015 15.914 39.6415 16.4064ZM29.9726 6.9659C30.0383 6.97988 30.1038 6.9866 30.1684 6.9866C30.6016 6.9866 30.9908 6.68457 31.0845 6.24387L31.8299 2.73762C31.9376 2.23121 31.6143 1.73332 31.1078 1.62566C30.6015 1.51801 30.1036 1.84129 29.9958 2.34777L29.2505 5.85402C29.1429 6.36043 29.4661 6.85824 29.9726 6.9659ZM35.1786 10.2119L38.258 8.4341C38.7064 8.17519 38.86 7.60183 38.6012 7.1534C38.3423 6.70488 37.7689 6.55129 37.3205 6.81019L34.2411 8.58801C33.7926 8.84691 33.639 9.42027 33.8979 9.86871C34.0715 10.1695 34.3866 10.3376 34.7107 10.3376C34.8698 10.3376 35.0309 10.2971 35.1786 10.2119ZM33.2244 21.7385C33.5998 22.3884 33.6989 23.1476 33.5037 23.8761C33.3085 24.6045 32.843 25.2124 32.1931 25.5876C31.7505 25.8432 31.2666 25.9646 30.7889 25.9646C30.0175 25.9646 29.263 25.6469 28.7231 25.0672C24.5958 25.4621 20.4783 26.6083 16.4593 28.4796L21.551 33.5714C21.9172 33.9375 21.9172 34.5311 21.551 34.8972L18.3278 38.1205C18.152 38.2963 17.9135 38.3951 17.6649 38.3951C17.4163 38.3951 17.1778 38.2964 17.002 38.1205L10.614 31.7325C9.7646 32.1545 8.856 32.3565 7.95756 32.3565C5.88202 32.3565 3.86084 31.2803 2.75061 29.3573L1.11256 26.5201C-0.541812 23.6546 0.443501 19.9773 3.30897 18.3229L7.67061 15.8046C11.7683 13.1109 15.1784 9.87207 17.8138 6.17269C17.4378 4.94597 17.9411 3.57504 19.0985 2.90683C20.4442 2.13012 22.1708 2.59277 22.9476 3.93824L25.9454 9.13051L26.1916 8.98832C27.1788 8.4184 28.3322 8.26769 29.4394 8.56449C30.5465 8.86113 31.4702 9.56824 32.0401 10.5554C32.6101 11.5426 32.7606 12.6961 32.4639 13.8032C32.1672 14.9103 31.4601 15.834 30.473 16.4039L30.2268 16.5461L33.2244 21.7385ZM26.8828 10.7544L29.2892 14.9224L29.5354 14.7803C30.0888 14.4607 30.4857 13.9414 30.6527 13.3181C30.8197 12.6947 30.7358 12.0466 30.4162 11.4931C30.0967 10.9396 29.5774 10.5428 28.954 10.3757C28.3307 10.2088 27.6826 10.2928 27.129 10.6122L26.8828 10.7544ZM9.41256 16.8931L15.2379 26.9828C19.2876 25.0439 23.4423 23.8086 27.6194 23.3013L18.7916 8.01121C16.2637 11.3748 13.1167 14.3553 9.41256 16.8931ZM10.0103 29.93L13.5833 27.8671L7.81952 17.8839L4.24639 19.9468C2.27623 21.0843 1.59881 23.6125 2.73624 25.5828L4.37428 28.42C5.51178 30.39 8.04014 31.0675 10.0103 29.93ZM19.5623 34.2343L14.7098 29.3818L12.304 30.7708L17.6649 36.1318L19.5623 34.2343ZM31.6007 22.676L21.3237 4.87582C21.0638 4.42558 20.4861 4.27074 20.0358 4.53074C19.5856 4.79066 19.4308 5.36847 19.6908 5.81871L29.9676 23.6188C30.2276 24.069 30.8054 24.2238 31.2556 23.9639C31.4719 23.839 31.627 23.6355 31.6926 23.3908C31.7582 23.1461 31.7255 22.8922 31.6007 22.676Z" fill="#B82132"/>
</g>
<defs>
<clipPath id="clip0_319_777">
<rect width="40" height="40" fill="white"/>
</clipPath>
</defs>
</svg>
