<svg width="20" height="20" viewBox="0 0 20 20" fill="none" xmlns="http://www.w3.org/2000/svg">
<g clip-path="url(#clip0_319_9365)">
<path d="M12.6877 6.87641C12.5485 6.86469 12.4395 6.77199 12.3939 6.63992L10.3516 0.708984V10.3624L19.7732 7.47199L12.6877 6.87641Z" fill="#B82132"/>
<path d="M14.664 12.2189L19.902 8.16797L10.5731 11.0268L16.2932 18.9991L14.5394 12.5916C14.5017 12.4536 14.5509 12.3064 14.664 12.2189Z" fill="#B82132"/>
<path d="M9.5703 0.701172L7.54194 6.64008C7.49628 6.77211 7.39061 6.86477 7.25144 6.87656L0.179443 7.47328L9.5703 10.3632V0.701172Z" fill="#B82132"/>
<path d="M4.35339 19.2964L9.77136 15.4401C9.89359 15.3531 10.0575 15.3527 10.18 15.4394L15.6409 19.298L9.97718 11.4014L4.35339 19.2964Z" fill="#B82132"/>
<path d="M3.6941 19.0054L9.38074 11.0273L0.0975342 8.17676L5.2889 12.2194C5.40089 12.3066 5.44984 12.4523 5.41308 12.5895L3.6941 19.0054Z" fill="#B82132"/>
</g>
<defs>
<clipPath id="clip0_319_9365">
<rect width="20" height="20" fill="white"/>
</clipPath>
</defs>
</svg>
