<svg width="1920" height="136" viewBox="0 0 1920 136" fill="none" xmlns="http://www.w3.org/2000/svg">
<g opacity="0.12">
<path d="M1139.04 204.736V180.096H1199.52C1203.71 180.096 1205.8 177.856 1205.8 173.376V145.376H1201.76C1200.57 147.915 1198.7 150.453 1196.16 152.992C1193.63 155.531 1190.19 157.621 1185.86 159.264C1181.53 160.907 1176 161.728 1169.28 161.728C1160.62 161.728 1153.01 159.787 1146.44 155.904C1140.01 151.872 1135.01 146.347 1131.43 139.328C1127.84 132.309 1126.05 124.245 1126.05 115.136V48.832H1154.28V112.896C1154.28 121.259 1156.29 127.531 1160.32 131.712C1164.51 135.893 1170.4 137.984 1178.02 137.984C1186.68 137.984 1193.4 135.147 1198.18 129.472C1202.96 123.648 1205.35 115.584 1205.35 105.28V48.832H1233.57V179.648C1233.57 187.264 1231.33 193.312 1226.85 197.792C1222.37 202.421 1216.4 204.736 1208.93 204.736H1139.04Z" fill="white"/>
<path d="M1052.37 163.072C1041.62 163.072 1031.84 160.832 1023.03 156.352C1014.36 151.872 1007.5 145.376 1002.42 136.864C997.341 128.352 994.802 118.048 994.802 105.952V102.816C994.802 90.7201 997.341 80.4161 1002.42 71.9041C1007.5 63.3921 1014.36 56.8961 1023.03 52.4161C1031.84 47.936 1041.62 45.696 1052.37 45.696C1062.97 45.696 1072.08 47.5627 1079.7 51.2961C1087.31 55.0294 1093.44 60.1814 1098.07 66.7521C1102.84 73.1734 1105.98 80.4907 1107.47 88.7041L1080.15 94.5281C1079.55 90.0481 1078.2 86.0161 1076.11 82.4321C1074.02 78.8481 1071.04 76.0107 1067.15 73.9201C1063.42 71.8294 1058.72 70.784 1053.04 70.784C1047.37 70.784 1042.22 72.0534 1037.59 74.5921C1033.11 76.9814 1029.52 80.6401 1026.83 85.5681C1024.3 90.3467 1023.03 96.2454 1023.03 103.264V105.504C1023.03 112.523 1024.3 118.496 1026.83 123.424C1029.52 128.203 1033.11 131.861 1037.59 134.4C1042.22 136.789 1047.37 137.984 1053.04 137.984C1061.55 137.984 1067.98 135.819 1072.31 131.488C1076.79 127.008 1079.62 121.184 1080.82 114.016L1108.15 120.512C1106.2 128.427 1102.84 135.669 1098.07 142.24C1093.44 148.661 1087.31 153.739 1079.7 157.472C1072.08 161.205 1062.97 163.072 1052.37 163.072Z" fill="white"/>
<path d="M866.627 159.936V48.832H894.403V63.392H898.435C900.227 59.5094 903.587 55.8507 908.515 52.416C913.443 48.832 920.91 47.04 930.915 47.04C939.577 47.04 947.118 49.056 953.539 53.088C960.11 56.9707 965.187 62.4214 968.771 69.44C972.355 76.3094 974.147 84.3734 974.147 93.632V159.936H945.923V95.872C945.923 87.5094 943.833 81.2374 939.651 77.056C935.619 72.8747 929.795 70.784 922.179 70.784C913.518 70.784 906.798 73.696 902.019 79.52C897.241 85.1947 894.851 93.184 894.851 103.488V159.936H866.627Z" fill="white"/>
<path d="M792.45 163.072C781.399 163.072 771.618 160.757 763.106 156.128C754.743 151.349 748.172 144.704 743.394 136.192C738.764 127.531 736.45 117.376 736.45 105.728V103.04C736.45 91.3921 738.764 81.312 743.394 72.8C748.023 64.1387 754.519 57.4934 762.882 52.8641C771.244 48.0854 780.951 45.696 792.002 45.696C802.903 45.696 812.386 48.16 820.45 53.0881C828.514 57.8667 834.786 64.5867 839.266 73.2481C843.746 81.7601 845.986 91.6907 845.986 103.04V112.672H765.122C765.42 120.288 768.258 126.485 773.634 131.264C779.01 136.043 785.58 138.432 793.346 138.432C801.26 138.432 807.084 136.715 810.818 133.28C814.551 129.845 817.388 126.037 819.33 121.856L842.402 133.952C840.311 137.835 837.25 142.091 833.218 146.72C829.335 151.2 824.108 155.083 817.538 158.368C810.967 161.504 802.604 163.072 792.45 163.072ZM765.346 91.6161H817.314C816.716 85.1947 814.103 80.0427 809.474 76.1601C804.994 72.2774 799.095 70.3361 791.778 70.3361C784.162 70.3361 778.114 72.2774 773.634 76.1601C769.154 80.0427 766.391 85.1947 765.346 91.6161Z" fill="white"/>
<path d="M598.086 104.832V101.248C598.086 89.6001 600.401 79.6694 605.03 71.4561C609.66 63.0934 615.782 56.7467 623.398 52.4161C631.164 47.936 639.601 45.696 648.71 45.696C658.865 45.696 666.556 47.488 671.782 51.0721C677.009 54.6561 680.817 58.3894 683.206 62.2721H687.238V48.8321H715.014V179.648C715.014 187.264 712.774 193.312 708.294 197.792C703.814 202.421 697.841 204.736 690.374 204.736H616.006V180.096H680.518C684.7 180.096 686.79 177.856 686.79 173.376V144.48H682.758C681.265 146.869 679.174 149.333 676.486 151.872C673.798 154.261 670.214 156.277 665.734 157.92C661.254 159.563 655.58 160.384 648.71 160.384C639.601 160.384 631.164 158.219 623.398 153.888C615.782 149.408 609.66 143.061 605.03 134.848C600.401 126.485 598.086 116.48 598.086 104.832ZM656.774 135.744C665.436 135.744 672.678 132.981 678.502 127.456C684.326 121.931 687.238 114.165 687.238 104.16V101.92C687.238 91.7654 684.326 84.0001 678.502 78.6241C672.828 73.0987 665.585 70.3361 656.774 70.3361C648.113 70.3361 640.87 73.0987 635.046 78.6241C629.222 84.0001 626.31 91.7654 626.31 101.92V104.16C626.31 114.165 629.222 121.931 635.046 127.456C640.87 132.981 648.113 135.744 656.774 135.744Z" fill="white"/>
<path d="M454.326 159.936L495.542 3.13605H547.062L588.278 159.936H557.814L549.302 125.44H493.302L484.79 159.936H454.326ZM500.246 98.1121H542.358L523.318 21.728H519.286L500.246 98.1121Z" fill="white"/>
<path d="M361.183 159.936V3.13605H389.407V159.936H361.183Z" fill="white"/>
<path d="M270.66 163.072C262.745 163.072 255.652 161.728 249.38 159.04C243.108 156.203 238.105 152.171 234.372 146.944C230.788 141.568 228.996 135.072 228.996 127.456C228.996 119.84 230.788 113.493 234.372 108.416C238.105 103.189 243.182 99.3067 249.604 96.7681C256.174 94.0801 263.641 92.7361 272.004 92.7361H302.468V86.4641C302.468 81.2374 300.825 76.9814 297.54 73.6961C294.254 70.2614 289.028 68.5441 281.86 68.5441C274.841 68.5441 269.614 70.1867 266.18 73.4721C262.745 76.6081 260.505 80.7147 259.46 85.7921L233.476 77.0561C235.268 71.3814 238.105 66.2294 241.988 61.6001C246.02 56.8214 251.321 53.0134 257.892 50.1761C264.612 47.1894 272.75 45.696 282.308 45.696C296.942 45.696 308.516 49.3547 317.028 56.6721C325.54 63.9894 329.796 74.5921 329.796 88.4801V129.92C329.796 134.4 331.886 136.64 336.068 136.64H345.028V159.936H326.212C320.686 159.936 316.132 158.592 312.548 155.904C308.964 153.216 307.172 149.632 307.172 145.152V144.928H302.916C302.318 146.72 300.974 149.109 298.884 152.096C296.793 154.933 293.508 157.472 289.028 159.712C284.548 161.952 278.425 163.072 270.66 163.072ZM275.588 140.224C283.502 140.224 289.924 138.059 294.852 133.728C299.929 129.248 302.468 123.349 302.468 116.032V113.792H274.02C268.793 113.792 264.686 114.912 261.7 117.152C258.713 119.392 257.22 122.528 257.22 126.56C257.22 130.592 258.788 133.877 261.924 136.416C265.06 138.955 269.614 140.224 275.588 140.224Z" fill="white"/>
<path d="M181.047 159.936C173.73 159.936 167.757 157.696 163.127 153.216C158.647 148.587 156.407 142.464 156.407 134.848V72.128H128.631V48.832H156.407V14.336H184.631V48.832H215.095V72.128H184.631V129.92C184.631 134.4 186.722 136.64 190.903 136.64H212.407V159.936H181.047Z" fill="white"/>
<path d="M83.467 159.936V48.832H111.691V159.936H83.467ZM97.579 35.84C92.5017 35.84 88.171 34.1973 84.587 30.912C81.1524 27.6267 79.4351 23.296 79.4351 17.92C79.4351 12.544 81.1524 8.21334 84.587 4.928C88.171 1.64267 92.5017 0 97.579 0C102.806 0 107.136 1.64267 110.571 4.928C114.006 8.21334 115.723 12.544 115.723 17.92C115.723 23.296 114.006 27.6267 110.571 30.912C107.136 34.1973 102.806 35.84 97.579 35.84Z" fill="white"/>
<path d="M-60.2729 104.832V101.248C-60.2729 89.6001 -57.9583 79.6694 -53.3289 71.4561C-48.6996 63.0934 -42.577 56.7467 -34.961 52.4161C-27.1956 47.936 -18.7583 45.696 -9.64896 45.696C0.505707 45.696 8.1964 47.488 13.4231 51.0721C18.6497 54.6561 22.4577 58.3894 24.847 62.2721H28.8791V48.8321H56.6551V179.648C56.6551 187.264 54.4151 193.312 49.9351 197.792C45.4551 202.421 39.4817 204.736 32.015 204.736H-42.353V180.096H22.1591C26.3404 180.096 28.4311 177.856 28.4311 173.376V144.48H24.399C22.9057 146.869 20.815 149.333 18.127 151.872C15.439 154.261 11.8551 156.277 7.37506 157.92C2.89506 159.563 -2.77962 160.384 -9.64896 160.384C-18.7583 160.384 -27.1956 158.219 -34.961 153.888C-42.577 149.408 -48.6996 143.061 -53.3289 134.848C-57.9583 126.485 -60.2729 116.48 -60.2729 104.832ZM-1.58493 135.744C7.0764 135.744 14.3191 132.981 20.1431 127.456C25.9671 121.931 28.8791 114.165 28.8791 104.16V101.92C28.8791 91.7654 25.9671 84.0001 20.1431 78.6241C14.4684 73.0987 7.22573 70.3361 -1.58493 70.3361C-10.2463 70.3361 -17.4889 73.0987 -23.3129 78.6241C-29.1369 84.0001 -32.049 91.7654 -32.049 101.92V104.16C-32.049 114.165 -29.1369 121.931 -23.3129 127.456C-17.4889 132.981 -10.2463 135.744 -1.58493 135.744Z" fill="white"/>
<path d="M1445.04 92.368C1442.35 89.6805 1438.82 88.2118 1435.04 88.2118C1420.73 88.2118 1406.6 90.5243 1393.04 95.118L1386.73 97.243C1386.35 97.368 1386.13 96.8368 1386.48 96.6805L1392.48 93.7118C1405.32 87.368 1416.95 79.0243 1427.07 68.8993C1429.73 66.243 1431.2 62.7743 1431.23 59.0868C1431.32 51.3368 1425.01 44.868 1417.26 44.743C1413.42 44.6805 1409.79 46.1805 1407.07 48.8993C1396.95 59.0243 1388.6 70.6493 1382.26 83.493L1379.29 89.493C1379.1 89.8368 1378.6 89.618 1378.73 89.243L1380.85 82.9305C1385.45 69.368 1387.76 55.243 1387.76 40.9305C1387.76 37.1493 1386.29 33.5868 1383.6 30.9305C1380.92 28.243 1377.38 26.7743 1373.6 26.7743C1369.82 26.7743 1366.26 28.243 1363.6 30.9305C1360.92 33.618 1359.45 37.1493 1359.45 40.9305C1359.45 55.243 1361.76 69.368 1366.35 82.9305L1368.48 89.243C1368.6 89.618 1368.07 89.8368 1367.92 89.493L1364.95 83.493C1358.6 70.6493 1350.26 59.0243 1340.13 48.8993C1337.48 46.243 1334.01 44.7743 1330.32 44.743C1322.54 44.6493 1316.07 50.9618 1315.98 58.7118C1315.92 62.5555 1317.42 66.1805 1320.13 68.8993C1330.26 79.0243 1341.88 87.368 1354.73 93.7118L1360.73 96.6805C1361.07 96.868 1360.85 97.368 1360.48 97.243L1354.17 95.118C1340.6 90.5243 1326.48 88.2118 1312.17 88.2118C1308.38 88.2118 1304.82 89.6805 1302.17 92.368C1296.63 97.8993 1296.63 106.868 1302.17 112.399C1304.85 115.087 1308.38 116.556 1312.17 116.556C1326.48 116.556 1340.6 114.243 1354.17 109.649L1360.48 107.524C1360.85 107.399 1361.07 107.931 1360.73 108.087L1354.73 111.056C1341.88 117.399 1330.26 125.743 1320.13 135.868C1317.48 138.524 1316.01 141.993 1315.98 145.681C1315.88 153.431 1322.2 159.899 1329.95 160.024C1333.79 160.087 1337.42 158.587 1340.13 155.868C1350.26 145.743 1358.6 134.118 1364.95 121.274L1367.92 115.274C1368.1 114.931 1368.6 115.149 1368.48 115.524L1366.35 121.837C1361.76 135.399 1359.45 149.524 1359.45 163.837C1359.45 167.618 1360.92 171.181 1363.6 173.837C1366.29 176.524 1369.82 177.993 1373.6 177.993C1377.38 177.993 1380.95 176.524 1383.6 173.837C1386.29 171.149 1387.76 167.618 1387.76 163.837C1387.76 149.524 1385.45 135.399 1380.85 121.837L1378.73 115.524C1378.6 115.149 1379.13 114.931 1379.29 115.274L1382.26 121.274C1388.6 134.118 1396.95 145.743 1407.07 155.868C1409.73 158.524 1413.2 159.993 1416.88 160.024C1424.63 160.118 1431.1 153.806 1431.23 146.056C1431.29 142.212 1429.79 138.587 1427.07 135.868C1416.95 125.743 1405.32 117.399 1392.48 111.056L1386.48 108.087C1386.13 107.899 1386.35 107.399 1386.73 107.524L1393.04 109.649C1406.6 114.243 1420.73 116.556 1435.04 116.556C1438.82 116.556 1442.38 115.087 1445.04 112.399C1450.57 106.868 1450.57 97.868 1445.04 92.368Z" fill="white"/>
<path d="M1954.62 159.936C1947.3 159.936 1941.33 157.696 1936.7 153.216C1932.22 148.587 1929.98 142.464 1929.98 134.848V72.128H1902.2V48.832H1929.98V14.336H1958.2V48.832H1988.67V72.128H1958.2V129.92C1958.2 134.4 1960.29 136.64 1964.48 136.64H1985.98V159.936H1954.62Z" fill="white"/>
<path d="M1857.04 159.936V48.832H1885.26V159.936H1857.04ZM1871.15 35.84C1866.07 35.84 1861.74 34.1973 1858.16 30.912C1854.72 27.6267 1853.01 23.296 1853.01 17.92C1853.01 12.544 1854.72 8.21334 1858.16 4.928C1861.74 1.64267 1866.07 0 1871.15 0C1876.38 0 1880.71 1.64267 1884.14 4.928C1887.58 8.21334 1889.3 12.544 1889.3 17.92C1889.3 23.296 1887.58 27.6267 1884.14 30.912C1880.71 34.1973 1876.38 35.84 1871.15 35.84Z" fill="white"/>
<path d="M1713.3 104.832V101.248C1713.3 89.6001 1715.61 79.6694 1720.24 71.4561C1724.87 63.0934 1731 56.7467 1738.61 52.4161C1746.38 47.936 1754.81 45.696 1763.92 45.696C1774.08 45.696 1781.77 47.488 1787 51.0721C1792.22 54.6561 1796.03 58.3894 1798.42 62.2721H1802.45V48.8321H1830.23V179.648C1830.23 187.264 1827.99 193.312 1823.51 197.792C1819.03 202.421 1813.05 204.736 1805.59 204.736H1731.22V180.096H1795.73C1799.91 180.096 1802 177.856 1802 173.376V144.48H1797.97C1796.48 146.869 1794.39 149.333 1791.7 151.872C1789.01 154.261 1785.43 156.277 1780.95 157.92C1776.47 159.563 1770.79 160.384 1763.92 160.384C1754.81 160.384 1746.38 158.219 1738.61 153.888C1731 149.408 1724.87 143.061 1720.24 134.848C1715.61 126.485 1713.3 116.48 1713.3 104.832ZM1771.99 135.744C1780.65 135.744 1787.89 132.981 1793.72 127.456C1799.54 121.931 1802.45 114.165 1802.45 104.16V101.92C1802.45 91.7654 1799.54 84.0001 1793.72 78.6241C1788.04 73.0987 1780.8 70.3361 1771.99 70.3361C1763.33 70.3361 1756.08 73.0987 1750.26 78.6241C1744.44 84.0001 1741.52 91.7654 1741.52 101.92V104.16C1741.52 114.165 1744.44 121.931 1750.26 127.456C1756.08 132.981 1763.33 135.744 1771.99 135.744Z" fill="white"/>
<path d="M1663.66 159.936V48.832H1691.88V159.936H1663.66ZM1677.77 35.84C1672.69 35.84 1668.36 34.1973 1664.78 30.912C1661.34 27.6267 1659.62 23.296 1659.62 17.92C1659.62 12.544 1661.34 8.21334 1664.78 4.928C1668.36 1.64267 1672.69 0 1677.77 0C1682.99 0 1687.32 1.64267 1690.76 4.928C1694.19 8.21334 1695.91 12.544 1695.91 17.92C1695.91 23.296 1694.19 27.6267 1690.76 30.912C1687.32 34.1973 1682.99 35.84 1677.77 35.84Z" fill="white"/>
<path d="M1513.57 159.936V133.952H1534.18V29.12H1513.57V3.13605H1578.08C1599.14 3.13605 1615.12 8.51205 1626.02 19.2641C1637.07 29.8667 1642.6 45.6961 1642.6 66.7521V96.3201C1642.6 117.376 1637.07 133.28 1626.02 144.032C1615.12 154.635 1599.14 159.936 1578.08 159.936H1513.57ZM1563.75 133.056H1578.53C1590.48 133.056 1599.21 129.92 1604.74 123.648C1610.27 117.376 1613.03 108.565 1613.03 97.2161V65.8561C1613.03 54.3574 1610.27 45.5467 1604.74 39.424C1599.21 33.1521 1590.48 30.016 1578.53 30.016H1563.75V133.056Z" fill="white"/>
</g>
</svg>
