<svg width="52" height="16" viewBox="0 0 52 16" fill="none" xmlns="http://www.w3.org/2000/svg">
<g clip-path="url(#clip0_319_138)">
<mask id="mask0_319_138" style="mask-type:luminance" maskUnits="userSpaceOnUse" x="0" y="0" width="53" height="16">
<path d="M52.1123 0H0.112305V16H52.1123V0Z" fill="white"/>
</mask>
<g mask="url(#mask0_319_138)">
<path d="M40.3724 15.4411C40.3906 15.4031 40.4246 15.3909 40.4526 15.3712C41.0369 14.9803 41.6224 14.5906 42.2055 14.1973C42.2675 14.1557 42.3234 14.1458 42.3974 14.1593C44.2742 14.5208 46.0405 14.2659 47.6258 13.1385C48.876 12.249 49.639 11.0223 49.9099 9.5053C50.2097 7.8216 49.9558 6.22615 49.0267 4.77531C48.2249 3.52421 47.0669 2.75834 45.6581 2.35642C44.737 2.09418 43.7957 2.03904 42.8445 2.06232C42.1509 2.07947 41.456 2.10153 40.7636 2.15055C40.11 2.19711 39.4565 2.25103 38.8054 2.327C38.17 2.40053 37.5335 2.46915 36.8981 2.5439C36.2895 2.61619 35.6821 2.69708 35.0723 2.76569C34.5208 2.82819 33.9668 2.88088 33.4141 2.93724C32.6925 3.01077 31.9697 3.05611 31.2457 3.09042C30.8436 3.1088 30.4403 3.11247 30.037 3.12228C29.9921 3.1235 29.9471 3.12228 29.8985 3.13086C29.9921 3.18233 30.0905 3.21908 30.1779 3.27912C30.5169 3.51073 30.6954 3.83177 30.6954 4.24473C30.6967 6.10855 30.6954 7.97235 30.6967 9.8374C30.6967 9.9452 30.693 10.0531 30.7136 10.1608C30.778 10.488 30.9724 10.6351 31.3016 10.6069C31.5069 10.5886 31.6794 10.4942 31.8677 10.3827C31.8677 10.6719 31.8288 10.939 31.7195 11.1915C31.4498 11.8152 30.9542 12.1129 30.3006 12.1693C30.0711 12.1889 29.8415 12.1705 29.6155 12.1117C29.0433 11.9622 28.6874 11.5603 28.6024 10.9708C28.5781 10.8055 28.5695 10.64 28.5695 10.4746C28.5695 8.0851 28.5695 5.69435 28.5695 3.30486C28.5695 3.25095 28.5695 3.19826 28.5695 3.15047C28.5222 3.11493 28.4785 3.12841 28.4384 3.12841C27.3099 3.12841 26.1813 3.13086 25.054 3.09899C24.0991 3.07081 23.1455 3.03161 22.192 2.96788C21.423 2.91641 20.6552 2.85514 19.8887 2.77305C17.7555 2.5439 15.6418 2.19099 13.5572 1.67632C13.5281 1.66897 13.4977 1.6653 13.4503 1.65672C13.4868 1.73024 13.5171 1.78906 13.5439 1.84911C13.6921 2.17751 13.7419 2.52797 13.771 2.88333C13.8002 3.23012 13.7929 3.57934 13.7917 3.92736C13.7917 6.1894 13.7929 8.45145 13.7905 10.7148C13.7893 11.3814 13.6957 12.0321 13.3787 12.63C13.1478 13.0651 12.832 13.4131 12.3534 13.5785C12.0703 13.6765 11.7849 13.6826 11.5018 13.5956C11.4909 13.565 11.5067 13.5515 11.5164 13.5368C12.1493 12.6337 12.3072 11.227 11.4265 10.1438C10.9904 9.607 10.5215 9.1034 10.0586 8.5924C9.16576 7.6072 8.26807 6.6269 7.37271 5.6441C7.34727 5.61715 7.3193 5.59265 7.27553 5.551C7.27553 5.61105 7.27553 5.65515 7.27553 5.7005C7.27553 7.90495 7.27553 10.1094 7.27553 12.3139C7.27553 13.0087 7.1529 13.6741 6.79329 14.2782C6.53698 14.7108 6.20049 15.0563 5.72068 15.234C5.43029 15.3418 5.15212 15.3357 4.90676 15.2229C5.05494 15.0098 5.18251 14.7879 5.27484 14.5453C5.47527 14.0184 5.53353 13.4682 5.53353 12.9082C5.53237 10.1241 5.536 7.3388 5.5251 4.55477C5.52263 3.93103 5.38414 3.33672 4.98327 2.83186C4.86787 2.68727 4.74154 2.55493 4.59091 2.42136C5.41575 2.11747 6.00249 1.54766 6.47382 0.824685C8.33366 2.85882 10.1814 4.88805 12.0278 6.91605C12.0619 6.894 12.0521 6.8683 12.0521 6.84745C12.0509 5.5669 12.0521 4.28762 12.0461 3.00709C12.0448 2.67379 11.9828 2.34661 11.8638 2.03414C11.712 1.63344 11.4569 1.32096 11.0888 1.10284C11.0596 1.08569 11.0317 1.06731 11.0026 1.05016C11.0147 1.0085 11.0523 0.99869 11.0791 0.979085C11.5455 0.66661 12.012 0.356587 12.4773 0.0416631C12.538 0 12.589 -0.00490154 12.6571 0.0183807C13.9569 0.447265 15.2883 0.74871 16.6331 0.99624C17.6389 1.18127 18.6509 1.32832 19.6652 1.45208C20.2969 1.52928 20.9298 1.59054 21.5639 1.64814C22.3656 1.72044 23.1686 1.78048 23.9728 1.82459C25.0261 1.88341 26.0804 1.92263 27.1361 1.92998C27.5856 1.93366 28.0338 1.93488 28.4833 1.93611C28.5064 1.93611 28.5283 1.93244 28.5489 1.93121C28.5817 1.89077 28.5695 1.84666 28.5695 1.80622C28.5708 1.44228 28.5708 1.07957 28.5695 0.715625C28.5695 0.654355 28.5732 0.61147 28.6498 0.58941C29.3155 0.39825 29.9787 0.199737 30.6432 0.00490153C30.6565 0.00122538 30.6724 0.00245077 30.6978 0C30.6978 0.62617 30.6978 1.24622 30.6978 1.87362C30.9615 1.88464 31.2129 1.86014 31.4644 1.84421C32.0426 1.80622 32.6197 1.76455 33.1955 1.71064C33.7676 1.65794 34.3386 1.5881 34.9083 1.51458C35.619 1.42145 36.326 1.31362 37.033 1.2021C37.6793 1.1004 38.3255 0.993785 38.9718 0.890855C39.55 0.79895 40.1307 0.71685 40.7113 0.644555C41.3698 0.563675 42.0306 0.499957 42.6927 0.469323C43.4167 0.435009 44.1418 0.420307 44.8659 0.48035C45.908 0.56613 46.9214 0.774445 47.8762 1.20701C50.093 2.2106 51.506 3.9102 51.9588 6.3144C52.4925 9.14015 51.6226 11.5407 49.51 13.4645C48.276 14.5882 46.8012 15.2463 45.1805 15.5881C44.3472 15.7634 43.5029 15.8258 42.6538 15.794C41.897 15.7658 41.1523 15.653 40.4186 15.4668C40.4064 15.4606 40.3906 15.4496 40.3724 15.4411Z" fill="white"/>
<path d="M42.7549 12.0762C41.794 12.0762 40.8331 12.0762 39.8722 12.0762C39.8552 12.0382 39.8807 12.0136 39.8929 11.9867C40.1371 11.4733 40.25 10.9292 40.2513 10.3618C40.2525 9.12425 40.2537 7.88655 40.25 6.64895C40.2488 6.2139 40.1857 5.7875 40.0253 5.37945C39.9804 5.26425 39.922 5.15645 39.8516 5.03145C40.6922 4.78391 41.5256 4.53885 42.3686 4.29131C42.3686 4.6332 42.3686 4.96038 42.3686 5.29735C42.422 5.2851 42.4379 5.24345 42.4622 5.214C42.9748 4.6038 43.6162 4.26803 44.4191 4.29008C44.9365 4.30479 45.4106 4.4457 45.7772 4.84272C46.0857 5.17605 46.2256 5.5841 46.2609 6.03015C46.3007 6.54355 46.2754 7.05825 46.278 7.5729C46.2828 8.4968 46.2815 9.42075 46.285 10.3459C46.285 10.4256 46.2986 10.5076 46.3165 10.5861C46.3894 10.8936 46.5537 11.0346 46.8683 11.0664C46.9326 11.0726 46.996 11.0775 47.0698 11.0836C47.0016 11.4046 46.8303 11.651 46.5778 11.8335C46.0407 12.2207 45.4517 12.2796 44.8421 12.0468C44.4409 11.8935 44.2369 11.5664 44.1687 11.1486C44.1495 11.026 44.1447 10.9035 44.146 10.7785C44.1469 9.6144 44.146 8.45025 44.1469 7.28615C44.1469 7.1538 44.146 7.0227 44.1167 6.894C44.0088 6.41615 43.6332 6.28255 43.2469 6.33525C42.9165 6.3806 42.648 6.55825 42.4197 6.8009C42.3856 6.83645 42.371 6.8744 42.371 6.92465C42.3723 8.1194 42.365 9.31415 42.3759 10.5089C42.3807 11.0076 42.501 11.4868 42.7124 11.9401C42.7282 11.9745 42.744 12.01 42.7586 12.0455C42.761 12.0553 42.7574 12.0639 42.7549 12.0762Z" fill="white"/>
<path d="M39.1406 8.276C39.1163 9.42785 38.7215 10.4646 37.8359 11.2794C37.118 11.9399 36.2628 12.2524 35.2934 12.1642C34.1102 12.0563 33.2283 11.4362 32.6111 10.4314C32.1021 9.60435 31.926 8.69635 32.0366 7.73315C32.1544 6.6977 32.5844 5.8179 33.3704 5.13165C34.799 3.88669 36.8859 4.04476 38.1287 5.48215C38.809 6.2713 39.1272 7.19525 39.1406 8.276ZM33.9329 7.17195C33.9826 8.13385 34.296 9.00265 34.8658 9.7759C35.0991 10.0932 35.3772 10.3629 35.749 10.5136C36.3332 10.7513 36.8544 10.5222 37.0791 9.93025C37.1921 9.63495 37.2188 9.3274 37.1872 9.0186C37.0985 8.129 36.7742 7.33125 36.2264 6.62785C35.9652 6.29215 35.6566 6.01025 35.2424 5.8767C34.7066 5.70275 34.2609 5.9184 34.0543 6.4453C33.9632 6.6781 33.9365 6.92195 33.9329 7.17195Z" fill="white"/>
<path d="M22.0253 8.2347C21.9889 9.5557 21.5272 10.6781 20.463 11.4918C19.0673 12.5591 17.1528 12.3667 15.966 11.0617C15.3209 10.3522 14.9722 9.514 14.9042 8.557C14.824 7.42845 15.1241 6.41505 15.8481 5.545C16.4251 4.85265 17.1625 4.42134 18.059 4.3184C19.1632 4.19218 20.1072 4.55734 20.8834 5.34895C21.5491 6.0278 21.9051 6.8574 22.001 7.8046C22.0156 7.94675 22.0205 8.0889 22.0253 8.2347ZM16.8139 7.22255C16.8685 8.14775 17.188 9.041 17.7905 9.82775C18.025 10.1341 18.3032 10.3926 18.6725 10.5299C19.2349 10.7394 19.7293 10.5164 19.9541 9.9564C20.0925 9.60965 20.1095 9.2481 20.0598 8.8854C19.9419 8.0215 19.6139 7.2446 19.0636 6.5694C18.8122 6.26185 18.5182 6.0033 18.1319 5.8783C17.5938 5.70305 17.1406 5.9212 16.9365 6.453C16.849 6.67845 16.8211 6.91495 16.8139 7.22255Z" fill="white"/>
<path d="M25.617 12.0771C24.6488 12.0771 23.6867 12.0771 22.7246 12.0771C22.716 12.0281 22.7476 11.9938 22.7646 11.957C22.9833 11.4767 23.1024 10.9742 23.1024 10.4449C23.1036 9.1656 23.1048 7.88505 23.1024 6.60575C23.1012 6.0531 22.9955 5.52495 22.71 5.0324C23.5494 4.78608 24.384 4.54097 25.2319 4.29102C25.2319 4.78854 25.2319 5.26765 25.2319 5.74555C25.7372 4.85103 26.4552 4.3094 27.5132 4.29102C27.5132 5.052 27.5132 5.80435 27.5132 6.56655C27.2849 6.52 27.0601 6.4783 26.8281 6.48935C26.1442 6.52365 25.6231 6.8288 25.2732 7.42555C25.2477 7.46965 25.2331 7.515 25.2331 7.5677C25.2343 8.5541 25.2319 9.53935 25.238 10.5258C25.2404 11.027 25.3668 11.5024 25.5732 11.9558C25.5866 11.984 25.5988 12.0122 25.6109 12.0404C25.6145 12.0465 25.6145 12.0539 25.617 12.0771Z" fill="white"/>
<path d="M5.87143 0.671315C5.65273 1.14553 5.34542 1.51438 4.86436 1.71044C4.47197 1.87097 4.06503 1.87954 3.65443 1.81337C3.36045 1.76558 3.06769 1.70309 2.77371 1.65285C2.6413 1.63079 2.50646 1.62344 2.37404 1.65775C2.21612 1.69941 2.10922 1.79254 2.07642 1.95797C2.04119 2.13688 2.08614 2.29005 2.23556 2.39911C2.45179 2.55841 2.69839 2.56453 2.95107 2.53758C2.97779 2.53513 3.0033 2.52777 3.03003 2.52532C3.03975 2.5241 3.05068 2.53145 3.06525 2.53513C3.0276 2.80348 2.89033 3.00812 2.68624 3.176C1.97924 3.75438 0.629609 3.54974 0.259101 2.64786C-0.10169 1.76926 0.175281 0.67499 1.39493 0.320852C1.79702 0.204441 2.20519 0.216695 2.61579 0.262034C3.20009 0.325754 3.76254 0.494858 4.33714 0.60514C4.8267 0.69827 5.31624 0.739935 5.81191 0.671315C5.82645 0.66886 5.84225 0.671315 5.87143 0.671315Z" fill="white"/>
</g>
</g>
<defs>
<clipPath id="clip0_319_138">
<rect width="52" height="16" fill="white"/>
</clipPath>
</defs>
</svg>
