<svg width="60" height="16" viewBox="0 0 60 16" fill="none" xmlns="http://www.w3.org/2000/svg">
<g clip-path="url(#clip0_319_263)">
<mask id="mask0_319_263" style="mask-type:luminance" maskUnits="userSpaceOnUse" x="0" y="0" width="60" height="16">
<path d="M59.9462 0.00683594H0.172852V15.9928H59.9462V0.00683594Z" fill="white"/>
</mask>
<g mask="url(#mask0_319_263)">
<path d="M47.6201 11.4493C47.6201 12.8874 47.4613 13.6273 47.0063 14.3255C46.2551 15.4406 44.9324 15.9929 43.0278 15.9929C40.3719 15.9929 38.9329 15.0446 38.6789 13.1271H41.2396C41.4512 13.9399 41.9908 14.3047 43.0701 14.3047C44.6044 14.3047 45.1652 13.6794 45.1652 11.9599V10.9178C44.5303 11.8661 43.5886 12.3351 42.34 12.3351C39.9381 12.3351 38.3721 10.6156 38.3721 7.82274C38.3721 5.04032 39.991 3.1958 42.4353 3.1958C43.7262 3.1958 44.4986 3.5918 45.2075 4.65474V3.4459H47.6306V11.4493H47.6201ZM43.0278 5.16538C41.7157 5.16538 40.9327 6.13453 40.9327 7.78104C40.9327 9.46925 41.7369 10.4905 43.049 10.4905C44.361 10.4905 45.2075 9.46925 45.2075 7.80189C45.197 6.13453 44.4034 5.16538 43.0278 5.16538ZM50.7309 8.68771C50.7838 10.2821 51.5245 11.095 52.9001 11.095C53.8419 11.095 54.4028 10.699 54.7837 9.79234H57.2383C56.7621 11.689 55.0692 12.8561 52.8895 12.8561C50.022 12.8561 48.1385 10.9595 48.1385 8.08328C48.1385 5.28001 50.0961 3.21664 52.8154 3.21664C55.5878 3.21664 57.3969 5.24874 57.3969 8.40632V8.68771H50.7309ZM54.7939 7.07245C54.6567 5.72813 53.9474 5.00906 52.7943 5.00906C51.6409 5.00906 50.8685 5.79064 50.7309 7.07245H54.7939Z" fill="white"/>
<path d="M6.33111 12.6059V7.35367C6.33111 5.78012 5.9079 5.24863 4.73336 5.24863C3.32606 5.24863 2.71235 6.06146 2.71235 7.88514V12.6059H0.172852V3.4562H2.59595V4.72758C3.42129 3.66463 4.31011 3.21652 5.69624 3.21652C6.87079 3.21652 7.88656 3.68547 8.37331 4.46705C8.79658 5.07147 8.87061 5.66546 8.87061 6.85346V12.6163L6.33111 12.6059ZM11.9392 8.68759C11.9921 10.282 12.7328 11.0948 14.1083 11.0948C15.0501 11.0948 15.6109 10.6988 15.9918 9.79223H18.4361C17.9599 11.6888 16.2669 12.856 14.0872 12.856C11.2197 12.856 9.3362 10.9594 9.3362 8.08317C9.3362 5.27989 11.2937 3.21652 14.0131 3.21652C16.7854 3.21652 18.5948 5.24863 18.5948 8.40621V8.68759H11.9392ZM16.0024 7.07234C15.8648 5.72802 15.1559 5.00895 14.0025 5.00895C12.8491 5.00895 12.0768 5.79052 11.9392 7.07234H16.0024ZM29.5463 12.6059H26.9328L25.8323 8.60423C25.6207 7.72882 25.5043 7.18695 25.2503 5.82178C25.0387 7.18695 24.88 7.74967 24.6684 8.60423L23.6526 12.6059H21.0179L18.0339 3.4562H20.7322L21.7162 6.93682C22.0231 7.93724 22.1818 8.64589 22.4887 10.2924C22.7426 8.71885 22.8907 8.15613 23.1976 6.84306L24.0441 3.4562H26.5307L27.5148 7.2286C27.8216 8.31244 27.9169 8.85431 28.1285 10.282C28.4353 8.77095 28.5941 8.10402 28.8057 7.29116L30.9854 0.00683594H33.6413L29.5463 12.6059Z" fill="white"/>
<path d="M36.4035 7.28056L34.4777 0.840332L33.1657 4.92539L34.0968 7.81203H32.2345L31.5996 9.78163H34.7317L35.6417 12.5953H38.2552C38.2764 12.6057 36.6151 8.10382 36.4035 7.28056Z" fill="white"/>
<path d="M48.6355 13.7937C48.4874 13.7937 48.3604 13.9083 48.3604 14.0542C48.3604 14.2001 48.4768 14.3251 48.6355 14.3251C48.7096 14.3251 48.7942 14.2939 48.8577 14.2313L48.953 14.3355C48.8683 14.4189 48.7519 14.471 48.6355 14.471C48.3921 14.471 48.2122 14.2939 48.2122 14.0646C48.2122 13.8353 48.4027 13.6582 48.6461 13.6582C48.7625 13.6582 48.8789 13.7103 48.9635 13.7832L48.8683 13.8979C48.7942 13.8353 48.7202 13.7937 48.6355 13.7937ZM49.9794 14.0646C49.9794 14.2939 49.7888 14.471 49.5455 14.471C49.3022 14.471 49.1117 14.2939 49.1117 14.0646C49.1117 13.8353 49.3022 13.6582 49.5455 13.6582C49.7888 13.6582 49.9794 13.8353 49.9794 14.0646ZM49.2704 14.0646C49.2704 14.2105 49.3973 14.3355 49.5455 14.3355C49.6937 14.3355 49.8206 14.2209 49.8206 14.0646C49.8206 13.9187 49.6937 13.7937 49.5455 13.7937C49.3973 13.8041 49.2704 13.9187 49.2704 14.0646ZM50.4026 13.6686L50.6565 14.1792L50.9105 13.6686H51.0904V14.471H50.9528V13.8979L50.7094 14.3876H50.6036L50.3602 13.8979V14.471H50.2121V13.6686H50.4026ZM51.5877 13.6686L51.8416 14.1792L52.0956 13.6686H52.2755V14.471H52.1379V13.8979L51.8945 14.3876H51.7887L51.5453 13.8979V14.471H51.3972V13.6686H51.5877ZM52.9421 14.3355C53.069 14.3355 53.1431 14.2626 53.1431 14.1271V13.6582H53.3018V14.1271C53.3018 14.3355 53.1643 14.471 52.9421 14.471C52.7198 14.471 52.5823 14.346 52.5823 14.1271V13.6582H52.741V14.1271C52.7305 14.2626 52.8151 14.3355 52.9421 14.3355ZM53.7355 13.6686L54.1587 14.2105V13.6686H54.3071V14.471H54.1587L53.7462 13.9291V14.471H53.5981V13.6686H53.7355ZM54.7833 13.6686V14.471H54.6247V13.6686H54.7833ZM55.4605 13.7937C55.3121 13.7937 55.1851 13.9083 55.1851 14.0542C55.1851 14.2001 55.3019 14.3251 55.4605 14.3251C55.5344 14.3251 55.619 14.2939 55.6828 14.2313L55.7776 14.3355C55.693 14.4189 55.5767 14.471 55.4605 14.471C55.2172 14.471 55.0372 14.2939 55.0372 14.0646C55.0372 13.8353 55.2274 13.6582 55.4712 13.6582C55.5874 13.6582 55.7037 13.7103 55.7883 13.7832L55.693 13.8979C55.619 13.8353 55.5451 13.7937 55.4605 13.7937ZM56.5399 14.2939H56.1483L56.0738 14.4606H55.9153L56.2753 13.6582H56.4339L56.7831 14.4606H56.6139L56.5399 14.2939ZM56.4869 14.1688L56.3492 13.8353L56.2013 14.1688H56.4869ZM57.4812 13.6686V13.8041H57.2272V14.471H57.0687V13.8041H56.8147V13.6686H57.4812ZM57.8626 13.6686V14.471H57.7035V13.6686H57.8626ZM58.9731 14.0646C58.9731 14.2939 58.783 14.471 58.5397 14.471C58.296 14.471 58.1058 14.2939 58.1058 14.0646C58.1058 13.8353 58.296 13.6582 58.5397 13.6582C58.7937 13.6582 58.9731 13.8353 58.9731 14.0646ZM58.2751 14.0646C58.2751 14.2105 58.4021 14.3355 58.5499 14.3355C58.6983 14.3355 58.8253 14.2209 58.8253 14.0646C58.8253 13.9187 58.6983 13.7937 58.5499 13.7937C58.3913 13.8041 58.2751 13.9187 58.2751 14.0646ZM59.3755 13.6686L59.7987 14.2105V13.6686H59.9471V14.471H59.7987L59.3862 13.9291V14.471H59.2378V13.6686H59.3755ZM48.7942 15.7945H48.4027L48.3287 15.9612H48.1699L48.5297 15.1588H48.6884L49.0376 15.9612H48.8683L48.7942 15.7945ZM48.7413 15.659L48.6037 15.3256L48.4556 15.659H48.7413ZM49.7783 15.5652H49.9159V15.8674C49.8312 15.93 49.7042 15.9716 49.5984 15.9716C49.355 15.9716 49.1646 15.7945 49.1646 15.5652C49.1646 15.336 49.355 15.1588 49.5984 15.1588C49.7148 15.1588 49.8312 15.2005 49.9159 15.2735L49.8312 15.3881C49.7677 15.336 49.683 15.2943 49.5984 15.2943C49.4397 15.2943 49.3233 15.4089 49.3233 15.5652C49.3233 15.7216 49.4503 15.8362 49.609 15.8362C49.6619 15.8362 49.7254 15.8153 49.7888 15.7841V15.5652H49.7783ZM50.8047 15.1692V15.3047H50.3602V15.5027H50.7517V15.6382H50.3602V15.8362H50.8152V15.9716H50.2015V15.1692H50.8047ZM51.2385 15.1692L51.6618 15.7111V15.1692H51.8099V15.9716H51.6618L51.2491 15.4298V15.9716H51.1009V15.1692H51.2385ZM52.4871 15.2943C52.339 15.2943 52.212 15.4089 52.212 15.5548C52.212 15.7007 52.3284 15.8258 52.4871 15.8258C52.5612 15.8258 52.6458 15.7945 52.7093 15.732L52.8045 15.8362C52.7199 15.9195 52.6035 15.9716 52.4871 15.9716C52.2437 15.9716 52.0638 15.7945 52.0638 15.5652C52.0638 15.336 52.2543 15.1588 52.4976 15.1588C52.614 15.1588 52.7305 15.2109 52.8151 15.2839L52.7199 15.3985C52.6564 15.336 52.5717 15.2943 52.4871 15.2943ZM53.397 15.7007V15.9612H53.2384V15.7007L52.9315 15.1588H53.0902L53.3124 15.534L53.5346 15.1588H53.6931L53.397 15.7007Z" fill="white"/>
</g>
</g>
<defs>
<clipPath id="clip0_319_263">
<rect width="60" height="16" fill="white"/>
</clipPath>
</defs>
</svg>
