<svg width="103" height="32" viewBox="0 0 103 32" fill="none" xmlns="http://www.w3.org/2000/svg">
<g clip-path="url(#clip0_319_883)">
<mask id="mask0_319_883" style="mask-type:luminance" maskUnits="userSpaceOnUse" x="0" y="0" width="103" height="32">
<path d="M103 0H0V32H103V0Z" fill="white"/>
</mask>
<g mask="url(#mask0_319_883)">
<path d="M79.746 30.8822C79.7821 30.8061 79.8494 30.7817 79.9048 30.7424C81.0622 29.9606 82.222 29.1813 83.377 28.3946C83.4997 28.3113 83.6104 28.2916 83.7571 28.3186C87.4745 29.0416 90.9731 28.5318 94.1133 26.2771C96.5896 24.4979 98.1009 22.0446 98.6375 19.0106C99.2313 15.6432 98.7284 12.4523 96.8882 9.55062C95.3 7.04841 93.0063 5.51668 90.2157 4.71283C88.3912 4.18836 86.5267 4.07808 84.6427 4.12464C83.2687 4.15895 81.8924 4.20307 80.5208 4.3011C79.2262 4.39423 77.9317 4.50206 76.642 4.65401C75.3836 4.80106 74.1227 4.9383 72.8642 5.08779C71.6587 5.23239 70.4556 5.39415 69.2477 5.53138C68.1553 5.65637 67.058 5.76176 65.9632 5.87449C64.5339 6.02154 63.1022 6.11222 61.6681 6.18084C60.8716 6.2176 60.0728 6.22495 59.2739 6.24456C59.1849 6.24701 59.0959 6.24456 58.9996 6.26172C59.185 6.36465 59.3799 6.43817 59.5531 6.55825C60.2244 7.02145 60.5781 7.66355 60.5781 8.48946C60.5806 12.2171 60.5781 15.9447 60.5806 19.6748C60.5806 19.8904 60.5733 20.1061 60.6142 20.3217C60.7417 20.9761 61.1267 21.2702 61.7788 21.2138C62.1855 21.1771 62.5272 20.9884 62.9001 20.7653C62.9001 21.3437 62.8231 21.878 62.6065 22.3829C62.0724 23.6303 61.0906 24.2258 59.7961 24.3386C59.3414 24.3778 58.8866 24.341 58.439 24.2234C57.3057 23.9244 56.6007 23.1205 56.4323 21.9417C56.3841 21.6109 56.3672 21.28 56.3672 20.9492C56.3672 16.1702 56.3672 11.3887 56.3672 6.60972C56.3672 6.50189 56.3672 6.39651 56.3672 6.30093C56.2734 6.22986 56.1868 6.25681 56.1074 6.25681C53.8721 6.25681 51.6366 6.26172 49.4037 6.19799C47.5124 6.14162 45.6235 6.06321 43.7347 5.93576C42.2115 5.83283 40.6908 5.71029 39.1725 5.54609C34.9471 5.08779 30.7603 4.38198 26.6313 3.35265C26.5736 3.33795 26.5134 3.3306 26.4195 3.31344C26.4917 3.46049 26.5519 3.57812 26.6048 3.69821C26.8984 4.35502 26.997 5.05594 27.0548 5.76666C27.1126 6.46023 27.0981 7.15869 27.0957 7.85471C27.0957 12.3788 27.0981 16.9029 27.0933 21.4295C27.0909 22.7627 26.9056 24.0641 26.2776 25.2601C25.8204 26.1301 25.1948 26.8261 24.2467 27.1569C23.6861 27.353 23.1207 27.3653 22.56 27.1913C22.5383 27.13 22.5697 27.1031 22.5889 27.0736C23.8425 25.2675 24.1553 22.454 22.4108 20.2875C21.547 19.214 20.6182 18.2068 19.7014 17.1848C17.9328 15.2144 16.1547 13.2538 14.3812 11.2882C14.3308 11.2343 14.2754 11.1853 14.1887 11.102C14.1887 11.2221 14.1887 11.3103 14.1887 11.401C14.1887 15.8099 14.1887 20.2188 14.1887 24.6278C14.1887 26.0174 13.9458 27.3482 13.2335 28.5564C12.7258 29.4215 12.0593 30.1126 11.1089 30.468C10.5337 30.6836 9.98272 30.6714 9.49671 30.4459C9.79022 30.0195 10.0429 29.5759 10.2258 29.0906C10.6228 28.0368 10.7382 26.9364 10.7382 25.8164C10.7359 20.2482 10.7431 14.6776 10.7215 9.10954C10.7166 7.86206 10.4423 6.67344 9.64827 5.66372C9.41968 5.37454 9.16945 5.10986 8.87109 4.84272C10.5049 4.23493 11.6671 3.09532 12.6007 1.64937C16.2846 5.71764 19.9445 9.77609 23.6019 13.8321C23.6693 13.788 23.65 13.7366 23.65 13.6949C23.6476 11.1338 23.65 8.57524 23.638 6.01418C23.6356 5.34758 23.5128 4.69322 23.2771 4.06827C22.9763 3.26687 22.471 2.64193 21.7419 2.20569C21.6841 2.17138 21.6288 2.13462 21.5711 2.10031C21.5951 2.01699 21.6697 1.99738 21.7226 1.95817C22.6466 1.33322 23.5706 0.713174 24.4922 0.0833261C24.6125 0 24.7135 -0.00980307 24.8483 0.0367615C27.423 0.89453 30.0602 1.49742 32.7238 1.99248C34.7161 2.36254 36.7206 2.65663 38.7298 2.90416C39.981 3.05856 41.2346 3.18109 42.4906 3.29629C44.0787 3.44088 45.6693 3.56097 47.2621 3.64919C49.3484 3.76683 51.4369 3.84526 53.5279 3.85996C54.4182 3.86731 55.3061 3.86976 56.1964 3.87222C56.2421 3.87222 56.2855 3.86487 56.3263 3.86241C56.3913 3.78154 56.3672 3.69331 56.3672 3.61244C56.3697 2.88456 56.3697 2.15913 56.3672 1.43125C56.3672 1.30871 56.3744 1.22294 56.5261 1.17882C57.8447 0.7965 59.1585 0.399475 60.4747 0.00980307C60.5011 0.00245077 60.5324 0.00490154 60.5829 0C60.5829 1.25234 60.5829 2.49243 60.5829 3.74723C61.1051 3.76928 61.6032 3.72027 62.1012 3.68841C63.2466 3.61244 64.3896 3.52911 65.5301 3.42128C66.6634 3.31589 67.7944 3.1762 68.9229 3.02915C70.3305 2.84289 71.7309 2.62723 73.1313 2.4042C74.4115 2.20079 75.6915 1.98757 76.9717 1.78171C78.117 1.5979 79.2672 1.4337 80.4173 1.28911C81.7215 1.12735 83.0305 0.999914 84.3419 0.938647C85.776 0.870019 87.2123 0.840613 88.6465 0.960701C90.7108 1.13226 92.718 1.54889 94.6092 2.41401C99.0002 4.42119 101.799 7.8204 102.696 12.6288C103.753 18.2803 102.03 23.0813 97.8455 26.929C95.4012 29.1764 92.48 30.4925 89.2697 31.1762C87.6191 31.5267 85.9468 31.6516 84.2648 31.588C82.7658 31.5316 81.2907 31.3061 79.8374 30.9336C79.8133 30.9213 79.7821 30.8993 79.746 30.8822Z" fill="black"/>
<path d="M84.4657 24.1524C82.5624 24.1524 80.659 24.1524 78.7557 24.1524C78.722 24.0764 78.7726 24.0273 78.7966 23.9734C79.2803 22.9466 79.5041 21.8584 79.5065 20.7237C79.5089 18.2485 79.5113 15.7731 79.5041 13.2979C79.5016 12.4278 79.3766 11.575 79.0589 10.7589C78.9699 10.5285 78.8544 10.3129 78.7148 10.0629C80.3799 9.56782 82.0306 9.0777 83.7005 8.58263C83.7005 9.26641 83.7005 9.92077 83.7005 10.5947C83.8063 10.5702 83.8377 10.4869 83.8858 10.428C84.9012 9.2076 86.1717 8.53606 87.7621 8.58017C88.7869 8.60958 89.726 8.89141 90.4522 9.68544C91.0632 10.3521 91.3402 11.1682 91.4103 12.0603C91.4891 13.0871 91.4389 14.1165 91.4441 15.1458C91.4536 16.9936 91.451 18.8415 91.4579 20.6919C91.4579 20.8512 91.4848 21.0153 91.5203 21.1722C91.6648 21.7873 91.9902 22.0692 92.6134 22.1329C92.7407 22.1452 92.8662 22.155 93.0125 22.1673C92.8774 22.8093 92.5381 23.302 92.0379 23.6671C90.9741 24.4415 89.8073 24.5592 88.5999 24.0936C87.8053 23.7871 87.4011 23.1328 87.2661 22.2972C87.228 22.0521 87.2185 21.807 87.2211 21.557C87.2228 19.2288 87.2211 16.9005 87.2228 14.5723C87.2228 14.3076 87.2211 14.0454 87.1631 13.788C86.9493 12.8323 86.2054 12.5651 85.4402 12.6705C84.7857 12.7612 84.2539 13.1165 83.8016 13.6018C83.7341 13.6729 83.7053 13.7488 83.7053 13.8493C83.7077 16.2388 83.6933 18.6283 83.7149 21.0178C83.7245 22.0153 83.9627 22.9736 84.3815 23.8803C84.4127 23.949 84.444 24.02 84.4729 24.0911C84.4777 24.1107 84.4705 24.1278 84.4657 24.1524Z" fill="black"/>
<path d="M77.3061 16.552C77.258 18.8557 76.476 20.9291 74.7218 22.5588C73.2997 23.8798 71.6058 24.5048 69.6857 24.3284C67.3419 24.1127 65.5951 22.8725 64.3727 20.8629C63.3645 19.2087 63.0156 17.3927 63.2346 15.4663C63.468 13.3954 64.3198 11.6358 65.8766 10.2633C68.7063 7.77338 72.8401 8.08952 75.3018 10.9643C76.6492 12.5426 77.2796 14.3905 77.3061 16.552ZM66.9907 14.3439C67.0893 16.2677 67.7101 18.0053 68.8386 19.5518C69.3007 20.1865 69.8517 20.7257 70.588 21.0272C71.7453 21.5026 72.7776 21.0443 73.2227 19.8605C73.4465 19.2699 73.4994 18.6548 73.4369 18.0372C73.2612 16.258 72.6188 14.6625 71.5336 13.2557C71.0163 12.5843 70.4051 12.0205 69.5846 11.7534C68.5234 11.4055 67.6404 11.8368 67.2313 12.8906C67.0508 13.3562 66.9979 13.8439 66.9907 14.3439Z" fill="black"/>
<path d="M43.4037 16.4694C43.3315 19.1114 42.4171 21.3562 40.3092 22.9836C37.5445 25.1182 33.7523 24.7335 31.4015 22.1234C30.1238 20.7044 29.4332 19.028 29.2985 17.114C29.1396 14.8569 29.734 12.8301 31.168 11.09C32.311 9.7053 33.7716 8.84269 35.5474 8.6368C37.7346 8.38437 39.6043 9.11469 41.1418 10.6979C42.4604 12.0556 43.1655 13.7148 43.3555 15.6092C43.3844 15.8935 43.3941 16.1778 43.4037 16.4694ZM33.081 14.4451C33.1893 16.2955 33.8221 18.082 35.0156 19.6555C35.48 20.2682 36.031 20.7853 36.7625 21.0598C37.8765 21.4788 38.8559 21.0328 39.3011 19.9128C39.5753 19.2193 39.609 18.4962 39.5104 17.7708C39.277 16.043 38.6273 14.4892 37.5373 13.1388C37.0392 12.5237 36.457 12.0066 35.6917 11.7566C34.6258 11.4061 33.7282 11.8424 33.324 12.906C33.1507 13.3569 33.0954 13.8299 33.081 14.4451Z" fill="black"/>
<path d="M50.5199 24.1542C48.6021 24.1542 46.6964 24.1542 44.7906 24.1542C44.7737 24.0562 44.8363 23.9875 44.87 23.914C45.3031 22.9533 45.539 21.9485 45.539 20.8898C45.5414 18.3312 45.5437 15.7701 45.539 13.2115C45.5366 12.1062 45.3272 11.0499 44.7617 10.0648C46.4244 9.57215 48.0775 9.08194 49.757 8.58203C49.757 9.57708 49.757 10.5353 49.757 11.4911C50.758 9.70205 52.1801 8.61879 54.2759 8.58203C54.2759 10.104 54.2759 11.6087 54.2759 13.1331C53.8236 13.04 53.3784 12.9566 52.9188 12.9787C51.5641 13.0473 50.5319 13.6576 49.8388 14.8511C49.7883 14.9393 49.7595 15.03 49.7595 15.1354C49.7619 17.1082 49.757 19.0787 49.7691 21.0515C49.7739 22.0539 50.0242 23.0048 50.4332 23.9116C50.4597 23.9679 50.4838 24.0243 50.5078 24.0807C50.515 24.093 50.515 24.1077 50.5199 24.1542Z" fill="black"/>
<path d="M11.4075 1.34263C10.9743 2.29107 10.3656 3.02876 9.41273 3.42088C8.6355 3.74193 7.82943 3.75908 7.01613 3.62674C6.43382 3.53116 5.85393 3.40618 5.27163 3.30569C5.00935 3.26158 4.74226 3.24688 4.47998 3.3155C4.16717 3.39882 3.95543 3.58508 3.89046 3.91594C3.82068 4.27375 3.90971 4.58009 4.20567 4.79821C4.63398 5.11681 5.12244 5.12907 5.62293 5.07515C5.67587 5.07025 5.7264 5.05554 5.77934 5.05064C5.79859 5.04819 5.82024 5.06289 5.84911 5.07025C5.77453 5.60696 5.50262 6.01624 5.09838 6.35199C3.69796 7.50876 1.02466 7.09948 0.290769 5.29572C-0.423875 3.53852 0.124741 1.34998 2.54058 0.641705C3.33704 0.408883 4.14552 0.43339 4.95882 0.524069C6.1162 0.651508 7.23028 0.989717 8.36842 1.21028C9.33812 1.39654 10.3078 1.47987 11.2896 1.34263C11.3184 1.33772 11.3497 1.34263 11.4075 1.34263Z" fill="black"/>
</g>
</g>
<defs>
<clipPath id="clip0_319_883">
<rect width="103" height="32" fill="white"/>
</clipPath>
</defs>
</svg>
