<svg width="114" height="31" viewBox="0 0 114 31" fill="none" xmlns="http://www.w3.org/2000/svg">
<g clip-path="url(#clip0_319_894)">
<mask id="mask0_319_894" style="mask-type:luminance" maskUnits="userSpaceOnUse" x="0" y="0" width="114" height="31">
<path d="M114 0H0V31H114V0Z" fill="white"/>
</mask>
<g mask="url(#mask0_319_894)">
<path d="M68.0319 6.77734H58.524C55.1102 6.77734 51.6206 9.55048 50.73 12.967L49.4263 17.9935C48.5384 21.4157 50.581 24.1832 53.9864 24.1832H63.4943C66.908 24.1832 70.3976 21.4157 71.2883 17.9935L72.592 12.9726C73.4939 9.55329 71.454 6.77734 68.0319 6.77734ZM65.5565 17.9654C65.4076 18.488 65.0958 18.9488 64.6715 19.2888C64.2444 19.6259 63.7246 19.8226 63.1824 19.8507H56.5628C55.5232 19.8507 54.9107 19.0078 55.1692 17.9682L56.4729 12.9951C56.6246 12.4725 56.9337 12.0117 57.358 11.6718C57.785 11.3346 58.3048 11.1379 58.8471 11.1127H65.4582C66.4978 11.1127 67.1103 11.9527 66.849 12.9951L65.5565 17.9654Z" fill="black"/>
<path d="M109.239 6.77734H99.7173C96.3036 6.77734 92.814 9.55048 91.9261 12.967L90.6224 17.9935C89.7318 21.4157 91.78 24.1832 95.1825 24.1832H104.693C108.107 24.1832 111.593 21.4157 112.481 17.9935L113.785 12.967C114.693 9.55329 112.639 6.77734 109.239 6.77734ZM106.764 17.9654C106.615 18.488 106.306 18.9488 105.879 19.286C105.454 19.6231 104.935 19.8198 104.392 19.8479H97.7562C96.7166 19.8479 96.1041 19.005 96.3654 17.9654L97.6691 12.9923C97.8208 12.4697 98.1299 12.0089 98.5541 11.669C98.9784 11.3318 99.4982 11.1351 100.04 11.1098H106.668C107.705 11.1098 108.317 11.9499 108.056 12.9923L106.764 17.9654Z" fill="black"/>
<path d="M9.30789 6.77734H18.8158C22.2323 6.77734 24.275 9.55048 23.3759 12.967L20.5184 23.9275C20.4988 23.9978 20.4566 24.0624 20.3976 24.1045C20.3386 24.1495 20.2656 24.172 20.1925 24.1692H15.1436C15.093 24.172 15.0424 24.1607 14.9974 24.1382C14.9525 24.1158 14.9104 24.0849 14.8794 24.0455C14.8485 24.0062 14.8261 23.9584 14.8148 23.9107C14.8036 23.8629 14.8064 23.8095 14.8176 23.7618L17.6217 12.9839C17.8998 11.9443 17.2705 11.1014 16.2309 11.1014H9.60853C9.06626 11.1295 8.54647 11.3262 8.12221 11.6633C7.69795 12.0005 7.38889 12.4641 7.23717 12.9839L5.93348 17.957C5.66095 18.9994 6.2875 19.8395 7.32427 19.8395H12.643C12.6935 19.8367 12.7441 19.8479 12.7891 19.8704C12.834 19.8928 12.8762 19.9238 12.9071 19.9631C12.938 20.0024 12.9605 20.0502 12.9717 20.098C12.9829 20.1485 12.9801 20.1991 12.9689 20.2469L12.022 23.9247C12.0024 23.9978 11.9602 24.0596 11.9012 24.1045C11.8422 24.1495 11.7691 24.172 11.6961 24.1692H4.77309C1.35654 24.1692 -0.688888 21.4157 0.213014 17.9795L1.51669 12.953C2.39612 9.55329 5.89415 6.77734 9.30789 6.77734Z" fill="black"/>
<path d="M43.3797 6.77734H33.8718C30.4581 6.77734 26.9657 9.55048 26.0778 12.967L21.4953 30.5415C21.4812 30.5892 21.4812 30.6426 21.4925 30.6904C21.5037 30.741 21.5262 30.7859 21.5571 30.8252C21.588 30.8646 21.6301 30.8955 21.6751 30.918C21.72 30.9404 21.7706 30.9489 21.8212 30.9489H26.8898C26.9629 30.9517 27.0359 30.9292 27.0949 30.8842C27.1539 30.8393 27.1961 30.7775 27.2157 30.7044L31.8376 12.9895C31.9865 12.4669 32.2956 12.0061 32.7227 11.669C33.1469 11.3318 33.6667 11.1351 34.209 11.107H40.8314C41.8737 11.107 42.4947 11.9471 42.225 12.9895L40.9213 17.9626C40.7724 18.4852 40.4633 18.946 40.0362 19.2832C39.612 19.6203 39.0922 19.817 38.5499 19.8451H33.0458C32.9727 19.8423 32.8997 19.8647 32.8407 19.9097C32.7817 19.9547 32.7395 20.0165 32.7199 20.0867L31.7618 23.7589C31.7505 23.8067 31.7477 23.8601 31.759 23.9079C31.7702 23.9584 31.7899 24.0034 31.8236 24.0427C31.8545 24.0821 31.8966 24.113 31.9416 24.1354C31.9865 24.1579 32.0371 24.1663 32.0877 24.1663H38.8477C42.2615 24.1663 45.7539 21.3988 46.6417 17.9767L47.9454 12.9502C48.8389 9.55329 46.7935 6.77734 43.3797 6.77734Z" fill="black"/>
<path d="M78.9937 0.000234622C78.9207 -0.00257504 78.8476 0.0199023 78.7886 0.0648569C78.7296 0.109811 78.6875 0.171624 78.6678 0.244675L72.5343 23.7784C72.5203 23.8262 72.5203 23.8796 72.5315 23.9273C72.5428 23.9779 72.5652 24.0228 72.5961 24.0622C72.6271 24.1015 72.6692 24.1324 72.7141 24.1549C72.7591 24.1774 72.8097 24.1858 72.8603 24.1858H77.7182C77.7912 24.1886 77.8643 24.1661 77.9233 24.1212C77.9823 24.0762 78.0244 24.0144 78.0441 23.9414L84.1804 0.407636C84.1916 0.359871 84.1944 0.306488 84.1832 0.258724C84.172 0.20815 84.1523 0.163195 84.1186 0.12386C84.0877 0.0845245 84.0455 0.0536181 84.0006 0.0311408C83.9556 0.00866351 83.905 0.000234622 83.8544 0.000234622H78.9937Z" fill="black"/>
<path d="M87.2702 0.000234622C87.1971 -0.00257504 87.1241 0.0199023 87.0651 0.0648569C87.0061 0.109811 86.9639 0.171624 86.9443 0.244675L80.8108 23.7812C80.7996 23.829 80.7967 23.8824 80.808 23.9301C80.8192 23.9807 80.8389 24.0257 80.8726 24.065C80.9035 24.1043 80.9456 24.1352 80.9906 24.1577C81.0356 24.1802 81.0861 24.1886 81.1367 24.1886H85.9946C86.0677 24.1914 86.1407 24.1689 86.1997 24.124C86.2587 24.079 86.3009 24.0172 86.3205 23.9442L92.4568 0.410445C92.4709 0.362681 92.4709 0.309298 92.4596 0.261533C92.4484 0.210959 92.4287 0.166005 92.395 0.126669C92.3641 0.0873341 92.322 0.0564278 92.277 0.0339505C92.2321 0.0114732 92.1815 0.00304421 92.1309 0.00304421H87.2702V0.000234622Z" fill="black"/>
</g>
</g>
<defs>
<clipPath id="clip0_319_894">
<rect width="114" height="31" fill="white"/>
</clipPath>
</defs>
</svg>
