<svg width="101" height="54" viewBox="0 0 101 54" fill="none" xmlns="http://www.w3.org/2000/svg">
<g clip-path="url(#clip0_319_905)">
<mask id="mask0_319_905" style="mask-type:luminance" maskUnits="userSpaceOnUse" x="0" y="0" width="101" height="54">
<path d="M101 0H0V54H101V0Z" fill="white"/>
</mask>
<g mask="url(#mask0_319_905)">
<path fill-rule="evenodd" clip-rule="evenodd" d="M46.6203 26.6875C42.8194 26.6875 40.3398 29.6982 39.6999 33.4401C39.1118 36.8818 40.974 39.6264 44.0458 39.6264C48.3455 39.6264 50.9038 35.2249 50.9038 32.067C50.9038 28.7549 49.5994 26.6875 46.6203 26.6875ZM47.1831 33.5422C46.5674 36.1161 45.3882 36.9217 44.3158 36.7147C42.8569 36.4321 43.1075 34.0716 43.344 32.9828C43.8602 30.5983 45.1304 29.4538 46.0815 29.5751C46.396 29.615 48.1167 29.6473 47.1831 33.5422Z" fill="black"/>
<path fill-rule="evenodd" clip-rule="evenodd" d="M35.8086 26.6878H30.7017C31.0721 27.0966 30.7832 27.9541 30.7832 27.9541C30.7832 27.9541 27.6111 36.9445 27.3648 37.6392C27.1172 38.3327 26.6641 38.8177 26.6641 38.8177C26.6641 38.8177 30.9113 38.8177 30.7017 38.8177C30.577 38.8177 30.577 38.4227 30.577 38.4227L32.0256 34.6106C32.0256 34.6106 33.8312 38.1219 33.9553 38.3679C34.0787 38.6127 34.0164 38.8171 34.0164 38.8171H38.3347C37.9224 38.8171 37.4978 38.0411 37.4978 38.0411L35.3479 34.2162C38.3551 34.2162 39.3168 31.2616 39.3168 31.2616C40.7997 26.5654 35.8086 26.6878 35.8086 26.6878ZM35.796 30.8453C35.2334 32.0475 33.7085 31.9141 33.7085 31.9141H32.9263L33.7627 29.4751C33.7627 29.4751 34.2118 29.4687 34.6148 29.4687C36.4542 29.4687 35.796 30.8453 35.796 30.8453Z" fill="black"/>
<path fill-rule="evenodd" clip-rule="evenodd" d="M29.8945 21.3601C29.809 21.6361 29.127 21.5668 29.127 21.5668H26.1635C26.1635 21.5668 28.9103 13.707 29.1308 13.1133C29.4648 12.2148 29.6826 12.1369 29.7402 12.1328H25.6633C26.17 12.3932 25.7209 13.4194 25.7209 13.4194C25.7209 13.4194 22.4427 23.2213 22.2141 23.711C21.9861 24.2012 21.8145 24.263 21.8145 24.263H28.9033L29.8945 21.3601Z" fill="black"/>
<path fill-rule="evenodd" clip-rule="evenodd" d="M46.3625 23.4997C46.5773 22.9455 48.5048 17.7546 48.5048 17.7546L49.3431 24.263H52.6344L56.949 12.6859C56.949 12.6859 57.1258 12.1427 57.3663 12.1427L53.8689 12.1328C53.8689 12.1328 53.9696 12.5324 53.8443 12.8394C53.7214 13.1469 51.733 18.3997 51.733 18.3997L50.9568 12.1328H47.2007C47.2007 12.1328 47.395 12.4398 47.2704 12.7774C47.1691 13.0513 43.2883 23.5912 43.2883 23.5912C43.2883 23.5912 43.0401 24.263 42.8223 24.263H46.4556C46.4556 24.263 46.2068 23.8987 46.3625 23.4997Z" fill="black"/>
<path fill-rule="evenodd" clip-rule="evenodd" d="M34.5747 24.2526C34.5747 24.2526 34.5627 23.9512 34.6634 23.7554C34.8477 23.4014 35.3278 22.5473 35.3278 22.5473H39.2224L39.2297 23.6122C39.2297 23.6122 39.2497 23.9795 38.963 24.263H42.8251C42.8251 24.263 42.5385 24.0996 42.4856 23.6174L42.0009 12.9575C42.0009 12.9575 41.9805 12.2766 42.2996 12.1328H38.4681C38.4681 12.1328 38.7366 12.4695 38.2235 13.2352C37.7116 14.0016 31.1659 23.8542 31.1659 23.8542C31.1659 23.8542 31.0362 24.1071 30.7051 24.2526H34.5747ZM39.1477 16.2578L39.1784 19.8105H36.9976L39.1477 16.2578Z" fill="black"/>
<path fill-rule="evenodd" clip-rule="evenodd" d="M79.1862 16.9844H71.5009L70.5646 19.63H75.5393L69.8652 21.5723L69.4902 22.6451L78.221 19.8142L79.1862 16.9844Z" fill="black"/>
<path fill-rule="evenodd" clip-rule="evenodd" d="M55.5192 23.3169C55.5192 23.3169 55.2759 24.1094 54.9434 24.263L59.7913 24.2578C59.7913 24.2578 65.6686 24.4773 67.4868 18.2302C67.4868 18.2302 69.79 12.0715 63.1238 12.1333H59.095C59.095 12.1333 59.3978 12.6237 59.0031 13.757C58.6089 14.8909 55.5192 23.3169 55.5192 23.3169ZM61.973 14.7349H62.8824C62.8824 14.7349 65.2358 14.5946 63.549 18.7483C62.5226 21.2761 60.9951 21.4598 60.1703 21.4598C59.6259 21.4598 59.6099 21.465 59.6099 21.465L61.973 14.7349Z" fill="black"/>
<path fill-rule="evenodd" clip-rule="evenodd" d="M26.6646 28.3047L17.9335 31.1353L16.9688 33.9655H24.6539L25.5891 31.319H20.6152L26.2892 29.3771L26.6646 28.3047Z" fill="black"/>
<path fill-rule="evenodd" clip-rule="evenodd" d="M50.5023 0C22.6093 0 0 11.9482 0 26.6865C0 41.4253 22.6093 53.3729 50.5023 53.3729C78.3872 53.3729 101 41.4253 101 26.6865C101 11.9482 78.3872 0 50.5023 0ZM50.4833 51.1724C23.738 51.1724 2.05566 40.1996 2.05566 26.6643C2.05566 13.1291 23.738 2.15625 50.4833 2.15625C77.227 2.15625 98.9099 13.1291 98.9099 26.6643C98.9099 40.1996 77.227 51.1724 50.4833 51.1724Z" fill="black"/>
<path fill-rule="evenodd" clip-rule="evenodd" d="M79.49 26.6894H74.4571C74.8262 27.0981 74.5398 27.9555 74.5398 27.9555C74.5398 27.9555 71.2571 36.9793 71.0112 37.6733C70.7659 38.3685 70.2949 38.8113 70.2949 38.8113L74.4791 38.8177C74.1724 38.8246 74.3859 38.0752 74.3859 38.0752L75.6703 34.6109C75.6703 34.6109 77.4014 38.1231 77.5229 38.3685C77.6455 38.6133 77.5848 38.8171 77.5848 38.8171H82.027C81.6174 38.8171 81.1667 38.0411 81.1667 38.0411L79.0312 34.2166C82.0195 34.2166 82.918 31.3684 82.918 31.3684C84.487 26.4515 79.49 26.6894 79.49 26.6894ZM79.3666 30.8555C78.9067 32.0299 77.4036 31.9167 77.4036 31.9167H76.626L77.4441 29.5079H78.5549C78.5549 29.5079 79.9099 29.471 79.3666 30.8555Z" fill="black"/>
<path fill-rule="evenodd" clip-rule="evenodd" d="M50.4999 4.04297C24.841 4.04297 4.03906 14.1808 4.03906 26.6863C4.03906 39.1918 24.841 49.3291 50.4999 49.3291C76.1577 49.3291 96.959 39.1918 96.959 26.6863C96.959 14.1808 76.1577 4.04297 50.4999 4.04297ZM50.4997 48.1083C25.5047 48.1083 5.24219 38.5159 5.24219 26.6831C5.24219 14.8508 25.5047 5.25781 50.4997 5.25781C75.4941 5.25781 95.7566 14.8508 95.7566 26.6831C95.7566 38.5159 75.4941 48.1083 50.4997 48.1083Z" fill="black"/>
<path fill-rule="evenodd" clip-rule="evenodd" d="M68.7207 36.0829C67.9595 36.0829 65.3208 36.0829 65.3208 36.0829L66.0412 34.1238H68.68C68.68 34.1238 69.2405 34.0828 69.3603 34.2467L70.4399 31.1488C70.4399 31.1488 70.3608 31.4293 69.6397 31.4293C68.9198 31.4293 67.0801 31.4293 67.0801 31.4293L67.8408 29.2665H71.0801C71.0801 29.2665 71.5201 29.2042 71.679 29.5511L72.7196 26.6875L64.9204 26.6887C64.9204 26.6887 65.2003 26.9403 64.8412 27.9608C64.4804 28.9819 61.3207 37.6754 61.3207 37.6754C61.3207 37.6754 60.7609 38.8177 60.602 38.8177C60.4408 38.8177 68.6399 38.8177 68.6399 38.8177L69.6001 35.9201C69.6001 35.9201 69.4808 36.0829 68.7207 36.0829Z" fill="black"/>
<path fill-rule="evenodd" clip-rule="evenodd" d="M64.6389 26.6933H59.8794C59.8794 26.6933 60.252 26.9386 59.9625 27.3871C59.673 27.8367 55.4416 34.0822 55.4416 34.0822L55.4954 27.7831C55.4954 27.7831 55.4873 26.7724 55.8984 26.6875L51.7109 26.6933C51.7109 26.6933 52.0185 26.8566 52.0185 27.6318C52.0185 28.4076 52.0185 38.1239 52.0185 38.1239C52.0185 38.1239 51.9758 38.6976 51.7565 38.8177H55.082C55.082 38.8177 55.082 38.5724 55.4118 38.1643C55.7434 37.7562 62.651 28.6125 62.651 28.6125C62.651 28.6125 64.226 26.6933 64.6389 26.6933Z" fill="black"/>
</g>
</g>
<defs>
<clipPath id="clip0_319_905">
<rect width="101" height="54" fill="white"/>
</clipPath>
</defs>
</svg>
