<svg width="107" height="44" viewBox="0 0 107 44" fill="none" xmlns="http://www.w3.org/2000/svg">
<g clip-path="url(#clip0_319_923)">
<path d="M38.0237 27.8875C35.2789 17.78 37.9101 -1.60677 70.3929 1.70653M38.0237 27.8875C59.1488 38.4191 68.4053 14.8217 70.3929 1.70653M38.0237 27.8875C36.3673 30.6486 32.8275 37.3837 31.9189 42.2354C30.6886 41.4595 30.187 37.5038 38.0237 27.8875ZM38.0237 27.8875C38.999 25.9929 40.2068 24.1651 41.5834 22.4147C49.6638 12.1393 63.5594 4.52913 70.3929 1.70653" stroke="black" stroke-width="1.47579" stroke-linecap="round"/>
<path d="M0.485352 10.3284H4.0336V28.1466H12.393V31.3263H0.485352V10.3284Z" fill="black"/>
<path d="M20.1648 31.3263V28.2066H30.7795V31.3263H20.1648ZM20.1648 13.4481V10.3284H30.7795V13.4481H20.1648ZM20.1648 21.6073V18.5476H30.1781V21.6073H20.1648ZM17.9697 10.3284H21.4578V31.3263H17.9697V10.3284Z" fill="black"/>
<path d="M76.4217 13.508V10.3284H85.8338V13.508H76.4217ZM76.4217 21.8472V18.7575H85.5332V21.8472H76.4217ZM74.2266 10.3284H77.7147V31.3263H74.2266V10.3284Z" fill="black"/>
<path d="M95.105 31.3263V28.2066H105.72V31.3263H95.105ZM95.105 13.4481V10.3284H105.72V13.4481H95.105ZM95.105 21.6073V18.5476H105.119V21.6073H95.105ZM92.9103 10.3284H96.398V31.3263H92.9103V10.3284Z" fill="black"/>
<path d="M59.5344 36.2975V35.2375H62.6717V36.2975H59.5344ZM59.5344 39.0772V38.0473H62.5715V39.0772H59.5344ZM58.8027 35.2375H59.9654V42.2369H58.8027V35.2375Z" fill="black"/>
<path d="M65.1633 40.4354L65.3838 39.4355H68.6414L68.872 40.4354H65.1633ZM66.9976 37.2158L65.895 39.7854L65.875 40.0454L64.9027 42.2353H63.5696L66.9976 34.8459L70.4255 42.2353H69.0924L68.1402 40.1054L68.1101 39.8155L66.9976 37.2158Z" fill="black"/>
<path d="M72.7091 39.9863C72.8628 40.2529 73.0265 40.4895 73.2003 40.6961C73.3807 40.8962 73.5779 41.0528 73.7917 41.1661C74.0055 41.2728 74.2461 41.3262 74.5133 41.3262C74.8341 41.3262 75.0947 41.2395 75.2952 41.0661C75.4956 40.8928 75.5958 40.6695 75.5958 40.3962C75.5958 40.1362 75.5324 39.9296 75.4054 39.7763C75.2784 39.6163 75.1013 39.483 74.8742 39.3763C74.6537 39.263 74.3964 39.153 74.1024 39.0463C73.9287 38.9863 73.7349 38.9063 73.521 38.8063C73.3072 38.6997 73.1034 38.5697 72.9096 38.4164C72.7158 38.2564 72.5555 38.0631 72.4285 37.8365C72.3015 37.6032 72.2381 37.3232 72.2381 36.9966C72.2381 36.6233 72.335 36.2966 72.5288 36.0167C72.7225 35.73 72.9832 35.51 73.3105 35.3567C73.6447 35.1967 74.0222 35.1167 74.4432 35.1167C74.8575 35.1167 75.2183 35.19 75.5257 35.3367C75.8331 35.4834 76.0903 35.67 76.2975 35.8966C76.5113 36.1233 76.6784 36.3599 76.7986 36.6066L75.8365 37.1466C75.7496 36.9733 75.6393 36.8132 75.5057 36.6666C75.372 36.5133 75.215 36.3933 75.0345 36.3067C74.8608 36.2133 74.657 36.1667 74.4232 36.1667C74.0957 36.1667 73.8552 36.2433 73.7014 36.3966C73.5478 36.5433 73.4709 36.7166 73.4709 36.9165C73.4709 37.0965 73.5244 37.2598 73.6313 37.4065C73.7449 37.5465 73.9186 37.6798 74.1525 37.8065C74.3864 37.9331 74.6904 38.0631 75.0646 38.1965C75.2718 38.2698 75.4789 38.3631 75.6861 38.4764C75.8999 38.5897 76.0937 38.733 76.2674 38.9063C76.4411 39.073 76.5781 39.2696 76.6784 39.4963C76.7853 39.7229 76.8387 39.9896 76.8387 40.2962C76.8387 40.6229 76.7753 40.9161 76.6483 41.1762C76.5213 41.4361 76.3476 41.6561 76.1271 41.8361C75.9066 42.0094 75.656 42.1427 75.3754 42.2361C75.1013 42.336 74.8141 42.386 74.5133 42.386C74.0991 42.386 73.7148 42.3061 73.3607 42.146C73.0132 41.9794 72.7091 41.7594 72.4486 41.4861C72.1879 41.2128 71.9808 40.9161 71.8271 40.5962L72.7091 39.9863Z" fill="black"/>
<path d="M79.5278 39.0272V37.9373H84.5298V39.0272H79.5278ZM83.7677 35.2375H84.9504V42.2369H83.7677V35.2375ZM79.0568 35.2375H80.2395V42.2369H79.0568V35.2375Z" fill="black"/>
<path d="M87.5118 35.2375H88.7052V42.2369H87.5118V35.2375Z" fill="black"/>
<path d="M92.128 38.7364C92.128 39.2164 92.2284 39.6463 92.4285 40.0263C92.636 40.3995 92.9194 40.6929 93.2805 40.9061C93.6415 41.1194 94.0523 41.2261 94.5138 41.2261C94.981 41.2261 95.3919 41.1194 95.7464 40.9061C96.1074 40.6929 96.3875 40.3995 96.5885 40.0263C96.7951 39.6463 96.8989 39.2164 96.8989 38.7364C96.8989 38.2564 96.7984 37.8298 96.5983 37.4565C96.3982 37.0766 96.1172 36.7799 95.7562 36.5666C95.4025 36.3533 94.9876 36.2466 94.5138 36.2466C94.0523 36.2466 93.6415 36.3533 93.2805 36.5666C92.9194 36.7799 92.636 37.0766 92.4285 37.4565C92.2284 37.8298 92.128 38.2564 92.128 38.7364ZM90.875 38.7364C90.875 38.2097 90.9648 37.7265 91.1454 37.2865C91.3259 36.8465 91.5799 36.4666 91.9074 36.1466C92.2415 35.82 92.6287 35.5667 93.0697 35.3867C93.5181 35.2067 93.9992 35.1167 94.5138 35.1167C95.0415 35.1167 95.5258 35.2067 95.9669 35.3867C96.408 35.5667 96.7919 35.82 97.1194 36.1466C97.4535 36.4666 97.7107 36.8465 97.8913 37.2865C98.0718 37.7265 98.1616 38.2097 98.1616 38.7364C98.1616 39.2563 98.0718 39.7396 97.8913 40.1862C97.7107 40.6328 97.4567 41.0195 97.1292 41.3461C96.8025 41.6728 96.4145 41.9294 95.9669 42.116C95.5258 42.296 95.0415 42.386 94.5138 42.386C93.9919 42.386 93.5075 42.296 93.0599 42.116C92.6123 41.9294 92.2252 41.6728 91.8976 41.3461C91.5766 41.0195 91.3259 40.6328 91.1454 40.1862C90.9648 39.7396 90.875 39.2563 90.875 38.7364Z" fill="black"/>
<path d="M105.441 35.2374H106.604V42.5867L101.482 37.5371V42.2368H100.319V34.8875L105.441 39.9369V35.2374Z" fill="black"/>
</g>
<defs>
<clipPath id="clip0_319_923">
<rect width="107" height="44" fill="white"/>
</clipPath>
</defs>
</svg>
