<svg width="85" height="44" viewBox="0 0 85 44" fill="none" xmlns="http://www.w3.org/2000/svg">
<g clip-path="url(#clip0_319_974)">
<path d="M1.3102 29.2666H0.818329L13.0741 0.435187L13.525 0.229248L23.8543 29.2666H20.3701L17.173 20.2053H5.20417L1.3102 29.2666ZM11.8034 4.88347L5.36812 19.7934H17.0501L11.8034 4.88347Z" fill="black"/>
<path d="M50.2919 13.1198V12.7079H60.4162V13.1198H58.1619C56.6862 17.1562 54.2405 20.7807 50.8248 23.9933C49.1579 25.5585 47.2041 26.8353 44.9633 27.8238C42.7226 28.7848 40.4135 29.2654 38.0362 29.2654C35.7681 29.2654 33.6913 28.8261 31.8058 27.9474C30.7128 27.4531 29.7427 26.8216 28.8956 26.0528C28.0758 25.2565 27.3926 24.1993 26.8461 22.8813C26.2996 21.5358 26.0264 19.9981 26.0264 18.2682C26.0264 14.8909 27.0511 12.0489 29.1005 9.74242C31.1773 7.40844 33.5273 6.24146 36.1506 6.24146C40.9054 6.24146 43.3647 8.36949 43.5287 12.6255L50.3329 7.22995L50.6199 7.47709L30.2892 23.5403C30.9723 25.1878 31.9425 26.4921 33.1994 27.4531C34.4838 28.3867 36.0824 28.8535 37.9951 28.8535C39.9353 28.8535 41.8618 28.373 43.7746 27.412C45.7148 26.4234 47.3954 25.1467 48.8163 23.5815C51.6855 20.3963 53.7077 16.9091 54.8827 13.1198H50.2919ZM40.2906 15.2203C40.2633 12.0901 39.949 9.87969 39.3478 8.58915C38.774 7.2986 37.7902 6.65333 36.3966 6.65333C35.0303 6.65333 33.8689 7.02402 32.9125 7.7654C31.9834 8.47932 31.2593 9.42666 30.7401 10.6073C29.7837 12.8864 29.3055 15.3714 29.3055 18.0623L29.3875 19.8746C29.5241 21.1102 29.7701 22.236 30.1253 23.252L40.2906 15.2203Z" fill="black"/>
<path d="M67.4401 29.2662H64.0381V0.434814H67.4401V13.6973H80.7616V0.434814H84.1638V29.2662H80.7616V14.1092H67.4401V29.2662Z" fill="black"/>
<path d="M74.7277 34.1223H11.0674V43.6316H74.7277V34.1223Z" stroke="black" stroke-width="0.64771"/>
<path d="M15.7573 38.6892H15.8994V39.9742H15.7573L15.6534 39.5624C15.6425 39.5184 15.6298 39.4873 15.6152 39.469C15.6043 39.4471 15.5806 39.4342 15.5441 39.4306C15.5077 39.4233 15.4458 39.4196 15.3583 39.4196H14.6806V40.7211C14.6806 40.8493 14.6861 40.9262 14.697 40.9518C14.7079 40.9737 14.7426 40.9866 14.8008 40.9902L15.2108 41.0232V41.1659H13.7843V41.0232L14.0849 40.9902C14.1432 40.983 14.1778 40.9683 14.1887 40.9463C14.1997 40.9244 14.2051 40.8493 14.2051 40.7211V37.8765C14.2051 37.7483 14.1997 37.6733 14.1887 37.6513C14.1778 37.6293 14.1432 37.6147 14.0849 37.6074L13.7843 37.5799V37.4316H16.282V38.3267H16.1399L15.9814 37.7502C15.9668 37.6879 15.9449 37.6495 15.9158 37.6348C15.8903 37.6165 15.8138 37.6074 15.6862 37.6074H14.6806V39.2438H15.3583C15.4458 39.2438 15.5077 39.242 15.5441 39.2384C15.5806 39.2311 15.6043 39.2182 15.6152 39.1999C15.6298 39.178 15.6425 39.1451 15.6534 39.1011L15.7573 38.6892Z" fill="black"/>
<path d="M18.9007 41.0232V41.1659H17.8623V41.0232L18.1574 40.9902C18.1975 40.9866 18.2266 40.9811 18.2448 40.9737C18.2631 40.9628 18.2795 40.9409 18.294 40.9079C18.3122 40.8712 18.3341 40.809 18.3596 40.7211L19.4144 37.4316H19.7587L20.8244 40.7211C20.8499 40.809 20.8699 40.8712 20.8845 40.9079C20.9027 40.9409 20.921 40.9628 20.9392 40.9737C20.9574 40.9811 20.9847 40.9866 21.0211 40.9902L21.3217 41.0232V41.1659H19.9937V41.0232L20.2943 40.9902C20.3526 40.983 20.3835 40.9683 20.3872 40.9463C20.3945 40.9207 20.3781 40.8456 20.338 40.7211L20.1139 40.0182H18.7804L18.5564 40.7211C18.5163 40.8456 18.4981 40.9207 18.5017 40.9463C18.509 40.9683 18.5418 40.983 18.6001 40.9902L18.9007 41.0232ZM18.8351 39.8425H20.0593L19.4472 37.9313L18.8351 39.8425Z" fill="black"/>
<path d="M24.3645 41.0427C24.6086 41.0427 24.8054 40.9824 24.9548 40.8615C25.1078 40.7407 25.1843 40.5631 25.1843 40.3288C25.1843 40.1421 25.1278 39.9865 25.0149 39.862C24.9019 39.7339 24.7052 39.6314 24.4246 39.5545L24.0475 39.4447C23.7706 39.3678 23.5593 39.2378 23.4136 39.0547C23.2679 38.8716 23.195 38.6484 23.195 38.3848C23.195 38.2091 23.2351 38.0443 23.3152 37.8905C23.399 37.7367 23.5247 37.6123 23.6923 37.5171C23.8635 37.4219 24.0803 37.3743 24.3426 37.3743C24.6341 37.3743 24.8691 37.4292 25.0477 37.5391C25.2262 37.6452 25.3501 37.7843 25.4193 37.9564C25.4886 38.1285 25.505 38.3134 25.4685 38.5111L25.0094 38.6099C25.0568 38.2695 25.0222 38.0077 24.9056 37.8246C24.7926 37.6415 24.5959 37.55 24.3153 37.55C24.0931 37.55 23.9182 37.6104 23.7906 37.7313C23.6631 37.8484 23.5994 38.0205 23.5994 38.2475C23.5994 38.4269 23.6504 38.5806 23.7524 38.7088C23.8544 38.8333 24.0348 38.9321 24.2935 39.0053L24.6706 39.1151C25.2791 39.2836 25.5833 39.6405 25.5833 40.186C25.5833 40.3801 25.5377 40.5558 25.4467 40.7133C25.3592 40.867 25.2244 40.9897 25.0422 41.0811C24.8637 41.1727 24.6378 41.2185 24.3645 41.2185C24.175 41.2185 23.9929 41.1892 23.818 41.1306C23.6467 41.072 23.4992 40.9713 23.3753 40.8285C23.2551 40.6857 23.175 40.4881 23.1349 40.2355L23.4628 40.1256C23.481 40.3673 23.5338 40.554 23.6212 40.6857C23.7087 40.8176 23.818 40.9109 23.9491 40.9659C24.0803 41.0171 24.2188 41.0427 24.3645 41.0427Z" fill="black"/>
<path d="M31.1727 41.0232V41.1659H29.8557V41.0232L30.1563 40.9902C30.2146 40.983 30.2492 40.9683 30.2601 40.9463C30.271 40.9244 30.2765 40.8493 30.2765 40.7211V39.3702H28.626V40.7211C28.626 40.8493 28.6314 40.9244 28.6424 40.9463C28.6533 40.9683 28.6879 40.983 28.7462 40.9902L29.0468 41.0232V41.1659H27.7296V41.0232L28.0302 40.9902C28.0885 40.983 28.1231 40.9683 28.1341 40.9463C28.145 40.9244 28.1505 40.8493 28.1505 40.7211V37.8765C28.1505 37.7483 28.145 37.6733 28.1341 37.6513C28.1231 37.6293 28.0885 37.6147 28.0302 37.6074L27.7296 37.5799V37.4316H29.0468V37.5799L28.7462 37.6074C28.6879 37.6147 28.6533 37.6293 28.6424 37.6513C28.6314 37.6733 28.626 37.7483 28.626 37.8765V39.1945H30.2765V37.8765C30.2765 37.7483 30.271 37.6733 30.2601 37.6513C30.2492 37.6293 30.2146 37.6147 30.1563 37.6074L29.8557 37.5799V37.4316H31.1727V37.5799L30.8722 37.6074C30.8139 37.6147 30.7793 37.6293 30.7684 37.6513C30.7574 37.6733 30.752 37.7483 30.752 37.8765V40.7211C30.752 40.8493 30.7574 40.9244 30.7684 40.9463C30.7793 40.9683 30.8139 40.983 30.8722 40.9902L31.1727 41.0232Z" fill="black"/>
<path d="M33.2773 37.5799V37.4316H34.5945V37.5799L34.2939 37.6074C34.2356 37.6147 34.201 37.6293 34.19 37.6513C34.1791 37.6733 34.1736 37.7483 34.1736 37.8765V40.7211C34.1736 40.8493 34.1791 40.9244 34.19 40.9463C34.201 40.9683 34.2356 40.983 34.2939 40.9902L34.5945 41.0232V41.1659H33.2773V41.0232L33.5779 40.9902C33.6362 40.983 33.6708 40.9683 33.6818 40.9463C33.6927 40.9244 33.6982 40.8493 33.6982 40.7211V37.8765C33.6982 37.7483 33.6927 37.6733 33.6818 37.6513C33.6708 37.6293 33.6362 37.6147 33.5779 37.6074L33.2773 37.5799Z" fill="black"/>
<path d="M39.6766 39.0877V39.4996C39.6766 40.0341 39.5546 40.4551 39.3105 40.7627C39.0663 41.0666 38.7166 41.2185 38.2612 41.2185C37.8021 41.2185 37.4505 41.0666 37.2064 40.7627C36.9659 40.4551 36.8457 40.0341 36.8457 39.4996V39.0877C36.8457 38.5568 36.9659 38.1394 37.2064 37.8356C37.4505 37.5281 37.8021 37.3743 38.2612 37.3743C38.7166 37.3743 39.0663 37.5281 39.3105 37.8356C39.5546 38.1394 39.6766 38.5568 39.6766 39.0877ZM39.1574 38.8131C39.1574 38.3555 39.0809 38.0314 38.9279 37.8411C38.7786 37.6471 38.5563 37.55 38.2612 37.55C37.9661 37.55 37.742 37.6471 37.589 37.8411C37.4396 38.0314 37.3649 38.3555 37.3649 38.8131V39.7742C37.3649 40.2318 37.4396 40.5576 37.589 40.7517C37.742 40.9457 37.9661 41.0427 38.2612 41.0427C38.5563 41.0427 38.7786 40.9457 38.9279 40.7517C39.0809 40.5576 39.1574 40.2318 39.1574 39.7742V38.8131Z" fill="black"/>
<path d="M44.187 37.5799V37.4316H45.2308V37.5799L44.9303 37.6074C44.872 37.6147 44.8373 37.6312 44.8264 37.6568C44.8155 37.6787 44.81 37.752 44.81 37.8765V41.1659H44.5422L42.5528 37.7941V40.7211C42.5528 40.8456 42.5583 40.9207 42.5692 40.9463C42.5801 40.9683 42.6148 40.983 42.6731 40.9902L42.9737 41.0232V41.1659H41.9298V41.0232L42.2304 40.9902C42.2887 40.983 42.3233 40.9683 42.3342 40.9463C42.3451 40.9207 42.3506 40.8456 42.3506 40.7211V37.8765C42.3506 37.752 42.3451 37.6787 42.3342 37.6568C42.3233 37.6312 42.2887 37.6147 42.2304 37.6074L41.9298 37.5799V37.4316H42.8753L44.6078 40.3752V37.8765C44.6078 37.752 44.6023 37.6787 44.5914 37.6568C44.5805 37.6312 44.5459 37.6147 44.4876 37.6074L44.187 37.5799Z" fill="black"/>
<path d="M51.3295 41.0427C51.5736 41.0427 51.7704 40.9824 51.9198 40.8615C52.0728 40.7407 52.1493 40.5631 52.1493 40.3288C52.1493 40.1421 52.0928 39.9865 51.9799 39.862C51.8669 39.7339 51.6702 39.6314 51.3896 39.5545L51.0125 39.4447C50.7356 39.3678 50.5243 39.2378 50.3785 39.0547C50.2328 38.8716 50.1599 38.6484 50.1599 38.3848C50.1599 38.2091 50.2 38.0443 50.2802 37.8905C50.364 37.7367 50.4897 37.6123 50.6573 37.5171C50.8285 37.4219 51.0453 37.3743 51.3076 37.3743C51.5991 37.3743 51.8341 37.4292 52.0127 37.5391C52.1912 37.6452 52.3151 37.7843 52.3843 37.9564C52.4535 38.1285 52.4699 38.3134 52.4335 38.5111L51.9744 38.6099C52.0218 38.2695 51.9872 38.0077 51.8706 37.8246C51.7576 37.6415 51.5609 37.55 51.2803 37.55C51.0581 37.55 50.8832 37.6104 50.7556 37.7313C50.6281 37.8484 50.5644 38.0205 50.5644 38.2475C50.5644 38.4269 50.6154 38.5806 50.7174 38.7088C50.8194 38.8333 50.9998 38.9321 51.2585 39.0053L51.6356 39.1151C52.244 39.2836 52.5483 39.6405 52.5483 40.186C52.5483 40.3801 52.5027 40.5558 52.4117 40.7133C52.3242 40.867 52.1894 40.9897 52.0072 41.0811C51.8287 41.1727 51.6028 41.2185 51.3295 41.2185C51.14 41.2185 50.9579 41.1892 50.783 41.1306C50.6117 41.072 50.4642 40.9713 50.3403 40.8285C50.22 40.6857 50.1399 40.4881 50.0998 40.2355L50.4277 40.1256C50.4459 40.3673 50.4988 40.554 50.5862 40.6857C50.6737 40.8176 50.783 40.9109 50.9141 40.9659C51.0453 41.0171 51.1838 41.0427 51.3295 41.0427Z" fill="black"/>
<path d="M54.5068 37.4316H57.4142V38.3267H57.2721L57.1136 37.7502C57.1027 37.7062 57.09 37.6751 57.0754 37.6568C57.0644 37.6348 57.0408 37.622 57.0043 37.6183C56.9679 37.611 56.906 37.6074 56.8185 37.6074H56.2009V40.7211C56.2009 40.8493 56.2064 40.9244 56.2173 40.9463C56.2282 40.9683 56.2629 40.983 56.3212 40.9902L56.6218 41.0232V41.1659H55.3047V41.0232L55.6052 40.9902C55.6635 40.983 55.6981 40.9683 55.7091 40.9463C55.72 40.9244 55.7254 40.8493 55.7254 40.7211V37.6074H55.1025C55.0187 37.6074 54.9567 37.611 54.9167 37.6183C54.8802 37.622 54.8547 37.6348 54.8401 37.6568C54.8292 37.6751 54.8183 37.7062 54.8073 37.7502L54.6488 38.3267H54.5068V37.4316Z" fill="black"/>
<path d="M62.3085 39.0877V39.4996C62.3085 40.0341 62.1865 40.4551 61.9423 40.7627C61.6982 41.0666 61.3484 41.2185 60.893 41.2185C60.4339 41.2185 60.0823 41.0666 59.8382 40.7627C59.5977 40.4551 59.4775 40.0341 59.4775 39.4996V39.0877C59.4775 38.5568 59.5977 38.1394 59.8382 37.8356C60.0823 37.5281 60.4339 37.3743 60.893 37.3743C61.3484 37.3743 61.6982 37.5281 61.9423 37.8356C62.1865 38.1394 62.3085 38.5568 62.3085 39.0877ZM61.7893 38.8131C61.7893 38.3555 61.7128 38.0314 61.5598 37.8411C61.4104 37.6471 61.1881 37.55 60.893 37.55C60.5979 37.55 60.3738 37.6471 60.2207 37.8411C60.0714 38.0314 59.9967 38.3555 59.9967 38.8131V39.7742C59.9967 40.2318 60.0714 40.5576 60.2207 40.7517C60.3738 40.9457 60.5979 41.0427 60.893 41.0427C61.1881 41.0427 61.4104 40.9457 61.5598 40.7517C61.7128 40.5576 61.7893 40.2318 61.7893 39.7742V38.8131Z" fill="black"/>
<path d="M64.5616 37.5799V37.4316H66.0809C66.438 37.4316 66.7113 37.5177 66.9007 37.6897C67.0938 37.8582 67.1904 38.0833 67.1904 38.3652V38.5354C67.1904 38.7588 67.1285 38.9491 67.0046 39.1066C66.8843 39.2603 66.7113 39.3665 66.4854 39.4251L67.1849 40.7211C67.2323 40.809 67.2669 40.8712 67.2888 40.9079C67.3106 40.9409 67.3307 40.9628 67.3489 40.9737C67.3708 40.9811 67.3999 40.9866 67.4363 40.9902L67.6823 41.0232V41.1659H66.857L65.9935 39.4745H65.4579V40.7211C65.4579 40.8493 65.4633 40.9244 65.4743 40.9463C65.4852 40.9683 65.5198 40.983 65.5781 40.9902L65.8787 41.0232V41.1659H64.5616V41.0232L64.8622 40.9902C64.9205 40.983 64.9551 40.9683 64.966 40.9463C64.9769 40.9244 64.9824 40.8493 64.9824 40.7211V37.8765C64.9824 37.7483 64.9769 37.6733 64.966 37.6513C64.9551 37.6293 64.9205 37.6147 64.8622 37.6074L64.5616 37.5799ZM66.0809 37.6074H65.4579V39.2988H66.0809C66.2704 39.2988 66.418 39.2384 66.5236 39.1175C66.6329 38.9931 66.6876 38.8063 66.6876 38.5574V38.3432C66.6876 38.0943 66.6329 37.9094 66.5236 37.7886C66.418 37.6678 66.2704 37.6074 66.0809 37.6074Z" fill="black"/>
<path d="M72.0343 40.2708H72.1764V41.1659H69.5586V41.0232L69.8592 40.9902C69.9175 40.983 69.9521 40.9683 69.963 40.9463C69.9739 40.9244 69.9794 40.8493 69.9794 40.7211V37.8765C69.9794 37.7483 69.9739 37.6733 69.963 37.6513C69.9521 37.6293 69.9175 37.6147 69.8592 37.6074L69.5586 37.5799V37.4316H72.1053V38.3267H71.9687L71.8102 37.7502C71.7993 37.7062 71.7865 37.6751 71.772 37.6568C71.761 37.6348 71.7373 37.622 71.7009 37.6183C71.6645 37.611 71.6025 37.6074 71.5151 37.6074H70.4549V39.1945H71.1872C71.2747 39.1945 71.3366 39.1926 71.373 39.189C71.4095 39.1816 71.4331 39.1689 71.444 39.1505C71.4586 39.1286 71.4714 39.0956 71.4823 39.0517L71.5861 38.6398H71.7282V39.9249H71.5861L71.4823 39.513C71.4714 39.469 71.4586 39.438 71.444 39.4196C71.4331 39.3977 71.4095 39.3848 71.373 39.3812C71.3366 39.3739 71.2747 39.3702 71.1872 39.3702H70.4549V40.9902H71.5807C71.6681 40.9902 71.7301 40.9884 71.7665 40.9848C71.8029 40.9774 71.8266 40.9646 71.8375 40.9463C71.8521 40.9244 71.8649 40.8914 71.8758 40.8474L72.0343 40.2708Z" fill="black"/>
</g>
<defs>
<clipPath id="clip0_319_974">
<rect width="85" height="44" fill="white"/>
</clipPath>
</defs>
</svg>
