<svg width="98" height="38" viewBox="0 0 98 38" fill="none" xmlns="http://www.w3.org/2000/svg">
<mask id="mask0_319_949" style="mask-type:alpha" maskUnits="userSpaceOnUse" x="0" y="0" width="98" height="38">
<path d="M97.8274 0H0V38H97.8274V0Z" fill="#D9D9D9"/>
</mask>
<g mask="url(#mask0_319_949)">
<path d="M29.223 23.9936C29.223 24.1214 29.1375 24.2492 29.0091 24.3343C28.8808 24.4196 28.7524 24.5047 28.624 24.59C28.5384 24.6325 28.41 24.6751 28.3245 24.7176C28.2388 24.7602 28.1533 24.8029 28.0249 24.7602C27.7254 24.7176 27.4687 24.7176 27.1691 24.7602C26.8696 24.7602 26.6128 24.7176 26.3561 24.5473C26.0994 24.4196 25.8427 24.2492 25.6715 24.0363C25.4575 23.8234 25.3291 23.5678 25.1579 23.3123C24.944 22.8864 24.7728 22.4604 24.6016 21.992C24.4733 21.5662 24.3449 21.0976 24.2165 20.6292C24.0882 20.0756 23.9598 19.5219 23.8315 19.0109C23.6603 18.4998 23.5319 17.9462 23.3607 17.3925C23.1895 16.7963 23.0612 16.2426 22.9328 15.6464C22.8044 15.0502 22.6761 14.4965 22.5905 13.9003C22.5905 13.8577 22.5905 13.8577 22.5905 13.8152C22.5905 13.8152 22.5905 13.7725 22.5905 13.7299C22.5477 13.6021 22.5477 13.4745 22.5049 13.4319C22.4622 13.3466 22.4622 13.3041 22.4194 13.2615C22.3765 13.2188 22.3338 13.2188 22.2482 13.1763C22.1626 13.1763 22.077 13.1763 21.9486 13.1763C20.7932 13.1763 19.638 13.1337 18.4826 13.0059C18.4398 13.0059 18.3542 13.0059 18.2687 13.0059C18.1831 13.0059 18.0975 13.0059 18.012 13.0059C17.8408 13.0059 17.7551 13.0059 17.6696 13.0059C17.5841 13.0059 17.5412 13.0059 17.4984 13.0486C17.4556 13.0912 17.4129 13.1337 17.3701 13.2188C17.3272 13.3041 17.2845 13.4319 17.1989 13.6448C16.8138 14.6243 16.3859 15.6464 15.958 16.6259C15.53 17.6054 15.1449 18.5849 14.717 19.6071C14.5887 19.9478 14.4175 20.331 14.3319 20.6718C14.2036 21.0125 14.0752 21.3958 13.9469 21.7791C13.904 21.992 13.8184 22.1624 13.7328 22.3328C13.6473 22.5031 13.4761 22.6308 13.3049 22.7586C13.2194 22.8012 13.1338 22.8864 13.091 22.929C13.0054 22.9715 12.9198 22.9715 12.8342 22.8864C12.7487 22.8437 12.6631 22.7586 12.6631 22.6735C12.6631 22.5882 12.6631 22.5031 12.6631 22.3753C12.7915 21.8642 12.9198 21.3106 13.0482 20.7996C13.1766 20.2885 13.3478 19.7775 13.5188 19.2664C13.904 17.9462 14.4175 16.6259 14.9309 15.3482C15.4445 14.0707 15.958 12.7504 16.4287 11.3876C16.6854 10.621 16.985 9.89703 17.2845 9.17303C17.5841 8.44903 17.8835 7.72504 18.1831 7.00104C18.4826 6.27705 18.7822 5.55305 19.0817 4.87164C19.3812 4.14764 19.6808 3.46624 19.9802 2.74224L20.451 1.4646C20.4938 1.37942 20.5365 1.29425 20.5793 1.20907C20.6222 1.12389 20.665 1.03871 20.7505 0.996127C20.9217 0.91095 21.0928 0.783186 21.2213 0.698011C21.3496 0.570246 21.5207 0.48507 21.6492 0.357306C21.7774 0.272129 21.9059 0.186954 22.077 0.144366C22.291 0.0166016 22.5049 0.0166016 22.7189 0.0166016C22.9328 0.0166016 23.0612 0.144366 23.104 0.357306C23.2752 0.91095 23.4891 1.54977 23.7458 2.31636C23.9598 2.95518 24.1737 3.76435 24.4733 4.74387C24.73 5.68081 25.0724 6.83068 25.4146 8.10833C25.5858 8.96009 25.757 9.85444 25.971 10.7062C26.1421 11.558 26.3561 12.4097 26.6128 13.2615C26.7412 13.7725 26.8696 14.2836 26.9979 14.8373C27.1263 15.3482 27.2119 15.9019 27.3403 16.413C27.6826 17.7332 28.0249 18.9257 28.3245 20.033C28.4528 20.5014 28.5812 20.97 28.6668 21.3958C28.7951 21.8642 28.8808 22.2475 28.9663 22.6308C29.0518 23.0141 29.1375 23.3123 29.1803 23.5678C29.223 23.7381 29.223 23.9085 29.223 23.9936ZM21.2213 4.14764C20.9217 4.78646 20.6222 5.38269 20.3654 5.97892C20.0659 6.57516 19.8092 7.17139 19.5523 7.76762C18.9962 8.96009 18.4826 10.1526 18.0547 11.345C18.012 11.4302 18.012 11.4728 17.9691 11.558C17.9263 11.6431 17.9263 11.7283 17.9691 11.8135C18.2687 11.7709 18.5254 11.7709 18.7822 11.7283C19.0389 11.6857 19.3384 11.6857 19.5952 11.6857C19.9375 11.6857 20.3226 11.6857 20.665 11.6857C21.0073 11.6857 21.3923 11.6857 21.7347 11.6857C21.9486 11.6857 22.077 11.6857 22.1198 11.6005C22.1626 11.558 22.1626 11.4302 22.1198 11.2173C21.9914 10.3229 21.9059 9.47115 21.7774 8.5768C21.6492 7.68245 21.5635 6.83068 21.4352 5.93634C21.3923 5.63822 21.3496 5.38269 21.3068 5.08458C21.3496 4.82904 21.264 4.48835 21.2213 4.14764Z" fill="black"/>
<path d="M33.2383 18.1598C33.3238 17.9043 33.3666 17.6487 33.4523 17.4358C33.5378 17.1803 33.5806 16.9248 33.6662 16.7118C33.7517 16.2859 33.8802 15.9026 34.0086 15.4768C34.1369 15.0935 34.2653 14.6676 34.4365 14.2843C34.6076 13.8585 34.7787 13.4325 34.9926 13.0066C35.1638 12.5808 35.3778 12.1549 35.5917 11.729C35.7629 11.3457 35.9768 10.9624 36.1908 10.6217C36.4047 10.2384 36.6188 9.89774 36.7899 9.55703C36.961 9.25892 37.1322 8.9608 37.3034 8.70527C37.4746 8.40715 37.6458 8.15162 37.8597 7.85351C37.988 7.68316 38.1164 7.51281 38.2876 7.34245C38.4588 7.1721 38.5871 7.00174 38.7583 6.83139C38.8439 6.74622 38.9294 6.66105 39.015 6.57586C39.1006 6.49069 39.1862 6.40551 39.2718 6.32034C39.443 6.1074 39.6569 6.02222 39.9136 6.02222C40.0421 6.02222 40.1704 6.06482 40.2988 6.06482C40.4271 6.06482 40.5555 6.06482 40.641 6.06482C40.7694 6.06482 40.8978 6.14999 40.9834 6.23517C41.069 6.32034 41.1546 6.40551 41.2401 6.53328C41.3257 6.66105 41.4113 6.7888 41.4542 6.91657C41.4969 7.04434 41.5397 7.1721 41.5824 7.34245C41.7109 7.93868 41.7964 8.53492 41.7964 9.13115C41.7964 9.72738 41.7964 10.3236 41.7536 10.9198C41.7109 11.4309 41.6681 11.942 41.6252 12.453C41.5824 12.9641 41.5397 13.4752 41.5397 13.9861C41.4969 14.8805 41.4542 15.7749 41.4113 16.6692C41.3685 17.5636 41.4113 18.458 41.4113 19.3523C41.4542 19.7781 41.4542 20.2041 41.4969 20.6299C41.4969 21.0558 41.5824 21.4816 41.6252 21.9075C41.6681 22.0353 41.6681 22.1631 41.7109 22.2908C41.7109 22.4186 41.7536 22.5464 41.7964 22.6315C41.8392 22.7168 41.8392 22.8445 41.8392 22.9297C41.8392 23.0148 41.7964 23.1001 41.7536 23.2277C41.7964 23.4407 41.7109 23.5685 41.6252 23.6963C41.4969 23.7814 41.3685 23.8667 41.1973 23.9518C41.0261 23.9943 40.8978 24.0796 40.7267 24.1647C40.5982 24.2499 40.4271 24.2925 40.256 24.3776C39.9992 24.4629 39.7425 24.4629 39.4858 24.3776C39.2289 24.2925 38.9722 24.1647 38.8439 23.9518C38.801 23.9092 38.801 23.8667 38.7583 23.7814C38.7583 23.7388 38.7583 23.6537 38.7155 23.611C38.7155 23.5685 38.7155 23.5259 38.7155 23.4834C38.7155 23.4407 38.7155 23.3981 38.7155 23.3556C38.4588 22.0353 38.3304 20.6725 38.3731 19.2671C38.3731 19.0115 38.3731 18.7135 38.3731 18.458C38.3731 18.2024 38.3731 17.9469 38.4159 17.6487C38.4588 17.2229 38.4588 16.797 38.5016 16.3712C38.5443 15.9453 38.5871 15.5193 38.63 15.0935C38.6727 14.7527 38.7155 14.3694 38.7583 14.0288C38.801 13.6881 38.8439 13.3048 38.9294 12.9641C38.9722 12.666 39.015 12.4104 39.0579 12.1123C39.1006 11.8142 39.1862 11.5587 39.2289 11.2606C39.3146 10.7495 39.4001 10.1958 39.4858 9.6848C39.5713 9.17373 39.6569 8.62009 39.6569 8.10904C39.6569 8.02385 39.6569 7.98127 39.6569 7.8961C39.6569 7.81092 39.6569 7.72574 39.6569 7.64057C39.2718 7.8961 38.9722 8.23681 38.7155 8.5775C38.5871 8.79044 38.4588 9.00338 38.3304 9.21632C38.202 9.42926 38.0737 9.64221 37.988 9.85515C37.8597 10.0681 37.7313 10.3236 37.5601 10.5366C37.4318 10.7495 37.2606 11.005 37.1322 11.218C37.0038 11.4735 36.8755 11.729 36.7471 11.9845C36.5759 12.3678 36.4047 12.7086 36.2337 13.0919C36.0625 13.4325 35.8913 13.8158 35.7201 14.1991C35.6346 14.3694 35.5917 14.5398 35.5062 14.7527C35.4634 14.9231 35.3778 15.136 35.335 15.3064C35.1638 15.7749 35.0355 16.2433 34.8644 16.7544C34.6932 17.2229 34.5648 17.6914 34.3937 18.2024C34.308 18.458 34.2225 18.7135 34.1796 18.9264C34.1369 19.1819 34.0513 19.4375 34.0086 19.6504C33.9229 19.9912 33.8374 20.3745 33.8374 20.7577C33.7946 21.1409 33.7517 21.4816 33.709 21.8649C33.6662 22.0353 33.6662 22.2057 33.6234 22.376C33.5806 22.5464 33.5378 22.7168 33.5378 22.8871C33.495 23.0574 33.495 23.1852 33.495 23.3556C33.495 23.5259 33.4523 23.6537 33.4095 23.824C33.3666 24.0796 33.2811 24.2925 33.1527 24.5054C33.1099 24.5906 33.0671 24.6758 32.9815 24.7184C32.9387 24.7609 32.8532 24.8036 32.7248 24.8887C32.6392 24.9313 32.5536 24.9313 32.4681 24.9738C32.3825 24.9738 32.2969 24.9738 32.1685 24.9738C32.0402 24.9738 31.9974 24.9738 31.9118 24.9738C31.8262 24.9738 31.7406 24.9313 31.6978 24.8462C31.4411 24.548 31.2272 24.2499 31.0987 23.9092C30.8848 23.4407 30.7564 22.9297 30.6709 22.4186C30.5853 21.9075 30.4997 21.3965 30.4141 20.8854C30.3714 20.2892 30.2857 19.693 30.2002 19.1393C30.1145 18.5431 30.0718 17.9469 30.029 17.3932C29.9863 16.7118 29.9863 15.9879 29.9434 15.3064C29.9434 14.5824 29.9434 13.901 29.9434 13.177C29.9434 12.6234 29.9434 12.0697 29.9863 11.5161C30.029 10.9624 30.029 10.4088 30.0718 9.85515C30.1145 9.17373 30.1574 8.44975 30.243 7.68316C30.2857 7.47022 30.3285 7.25728 30.3714 7.04434C30.4141 6.83139 30.5424 6.66105 30.6709 6.44811C30.7993 6.23517 30.9704 6.14999 31.1844 6.14999C31.3554 6.1074 31.5266 6.14999 31.655 6.14999C31.7835 6.19257 31.9118 6.27775 32.0402 6.44811C32.1685 6.61845 32.2541 6.7888 32.2969 6.95916C32.3825 7.12951 32.4253 7.29987 32.4253 7.51281C32.4681 7.76833 32.4681 7.98127 32.5108 8.23679C32.5536 8.44975 32.5965 8.70527 32.6392 8.9608C32.682 9.3015 32.7675 9.64221 32.7675 9.98291C32.8104 10.3236 32.8104 10.6643 32.8532 11.005C32.896 11.5161 32.896 12.0271 32.9387 12.5382C32.9816 13.0492 32.9816 13.5603 33.0244 14.0714C33.0671 14.6251 33.0671 15.1787 33.1099 15.7322C33.1527 16.2859 33.1527 16.8396 33.1956 17.3932C33.1956 17.5636 33.2383 17.734 33.2383 17.9043C33.2383 18.0747 33.2811 18.2449 33.2811 18.4153H33.2383V18.1598Z" fill="black"/>
<path d="M46.508 18.1598C46.5935 17.9043 46.6363 17.6487 46.7219 17.4358C46.8074 17.1803 46.8502 16.9248 46.9359 16.7118C47.0214 16.2859 47.1498 15.9026 47.2781 15.4768C47.4065 15.0935 47.5349 14.6676 47.7061 14.2843C47.8772 13.8585 48.0484 13.4325 48.2623 13.0066C48.4335 12.5808 48.6474 12.1549 48.8614 11.729C49.0326 11.3457 49.2465 10.9624 49.4605 10.6217C49.6744 10.2384 49.8883 9.89774 50.0595 9.55703C50.2307 9.25892 50.4019 8.9608 50.5731 8.70527C50.7443 8.40715 50.9153 8.15162 51.1293 7.85351C51.2577 7.68316 51.3861 7.51281 51.5573 7.34245C51.7283 7.1721 51.8567 7.00174 52.0279 6.83139C52.1135 6.74622 52.1991 6.66105 52.2846 6.57586C52.3703 6.49069 52.4558 6.40551 52.5415 6.32034C52.7125 6.1074 52.9265 6.02222 53.1833 6.02222C53.3116 6.02222 53.44 6.06482 53.5684 6.06482C53.6967 6.06482 53.8251 6.06482 53.9107 6.06482C54.0391 6.06482 54.1675 6.14999 54.253 6.23517C54.3386 6.32034 54.4242 6.40551 54.5097 6.53328C54.5954 6.66105 54.6809 6.7888 54.7237 6.91657C54.7666 7.04434 54.8093 7.1721 54.8521 7.34245C54.9805 7.93868 55.0661 8.53492 55.0661 9.13115C55.0661 9.72738 55.0661 10.3236 55.0233 10.9198C54.9805 11.4309 54.9376 11.942 54.8949 12.453C54.8521 12.9641 54.8093 13.4752 54.8093 13.9861C54.7666 14.8805 54.7237 15.7749 54.6809 16.6692C54.6382 17.5636 54.6809 18.458 54.6809 19.3523C54.7237 19.7781 54.7237 20.2041 54.7666 20.6299C54.7666 21.0558 54.8521 21.4816 54.8949 21.9075C54.9376 22.0353 54.9376 22.1631 54.9805 22.2908C54.9805 22.4186 55.0233 22.5464 55.0661 22.6315C55.1088 22.7168 55.1088 22.8445 55.1088 22.9297C55.1088 23.0148 55.0661 23.1001 55.0233 23.2277C55.0661 23.4407 55.0233 23.5685 54.8949 23.6963C54.7666 23.7814 54.6382 23.8667 54.467 23.9518C54.2958 23.9943 54.1675 24.0796 53.9963 24.1647C53.8679 24.2499 53.6967 24.2925 53.5255 24.3776C53.2688 24.4629 53.0121 24.4629 52.7554 24.3776C52.4986 24.2925 52.2419 24.1647 52.1135 23.9518C52.0707 23.9092 52.0707 23.8667 52.0279 23.7814C52.0279 23.7388 52.0279 23.6537 51.9852 23.611C51.9852 23.5685 51.9852 23.5259 51.9852 23.4834C51.9852 23.4407 51.9852 23.3981 51.9852 23.3556C51.7283 22.0353 51.6 20.6725 51.6428 19.2671C51.6428 19.0115 51.6428 18.7135 51.6428 18.458C51.6428 18.2024 51.6428 17.9469 51.6856 17.6487C51.7283 17.2229 51.7283 16.797 51.7712 16.3712C51.814 15.9453 51.8567 15.5193 51.8995 15.0935C51.9424 14.7527 51.9852 14.3694 52.0279 14.0288C52.0707 13.6881 52.1135 13.3048 52.1991 12.9641C52.2419 12.666 52.2846 12.4104 52.3274 12.1123C52.3703 11.8142 52.4558 11.5587 52.4986 11.2606C52.5842 10.7495 52.6698 10.1958 52.7554 9.6848C52.8409 9.17373 52.9265 8.62009 52.9265 8.10904C52.9265 8.02385 52.9265 7.98127 52.9265 7.8961C52.9265 7.81092 52.9265 7.72574 52.9265 7.64057C52.5413 7.8961 52.2419 8.23681 51.9852 8.5775C51.8567 8.79044 51.7283 9.00338 51.6 9.21632C51.4716 9.42926 51.3433 9.64221 51.2577 9.85515C51.1294 10.0681 51.001 10.3236 50.8298 10.5366C50.7014 10.7495 50.5303 11.005 50.4019 11.218C50.2735 11.4735 50.1452 11.729 50.0168 11.9845C49.8456 12.3678 49.6744 12.7086 49.5032 13.0919C49.3322 13.4325 49.161 13.8158 48.9898 14.1991C48.9041 14.3694 48.8614 14.5398 48.7758 14.7527C48.7331 14.9231 48.6474 15.136 48.6047 15.3064C48.4335 15.7749 48.3051 16.2433 48.134 16.7544C47.9628 17.2229 47.8344 17.6914 47.6632 18.2024C47.5777 18.458 47.4921 18.7135 47.4493 18.9264C47.4065 19.1819 47.321 19.4375 47.2781 19.6504C47.1926 19.9912 47.1071 20.3745 47.1071 20.7577C47.0642 21.1409 47.0214 21.4816 46.9786 21.8649C46.9359 22.0353 46.9359 22.2057 46.893 22.376C46.8502 22.5464 46.8075 22.7168 46.8075 22.8871C46.7647 23.0574 46.7647 23.1852 46.7647 23.3556C46.7647 23.5259 46.7219 23.6537 46.679 23.824C46.6363 24.0796 46.5507 24.2925 46.4223 24.5054C46.3796 24.5906 46.3368 24.6758 46.2511 24.7184C46.2084 24.7609 46.1229 24.8036 45.9944 24.8887C45.9089 24.9313 45.8232 24.9313 45.7377 24.9738C45.6521 24.9738 45.5665 24.9738 45.4381 24.9738C45.3526 24.9738 45.2669 24.9738 45.1814 24.9738C45.0959 24.9738 45.0102 24.9313 44.9675 24.8462C44.7108 24.548 44.4968 24.2499 44.3684 23.9092C44.1545 23.4407 44.026 22.9297 43.9405 22.4186C43.8549 21.9075 43.7693 21.3965 43.6838 20.8854C43.6409 20.2892 43.5554 19.693 43.4699 19.1393C43.3842 18.5431 43.3414 17.9469 43.2987 17.3932C43.2558 16.7118 43.2558 15.9879 43.213 15.3064C43.213 14.5824 43.213 13.901 43.213 13.177C43.213 12.6234 43.213 12.0697 43.2558 11.5161C43.2987 10.9624 43.2987 10.4088 43.3414 9.85515C43.3842 9.17373 43.427 8.44975 43.5126 7.68316C43.5554 7.47022 43.5981 7.25728 43.6409 7.04434C43.6838 6.83139 43.8121 6.66105 43.9405 6.44811C44.0688 6.23517 44.24 6.14999 44.4539 6.14999C44.6251 6.1074 44.7963 6.14999 44.9247 6.14999C45.053 6.19257 45.1814 6.27775 45.3098 6.44811C45.4381 6.61845 45.5238 6.7888 45.5665 6.95916C45.6521 7.12951 45.695 7.29987 45.695 7.51281C45.7377 7.76833 45.7377 7.98127 45.7805 8.23679C45.8233 8.44975 45.866 8.70527 45.9089 8.9608C45.9517 9.3015 46.0372 9.64221 46.0372 9.98291C46.08 10.3236 46.08 10.6643 46.1229 11.005C46.1656 11.5161 46.1656 12.0271 46.2084 12.5382C46.2511 13.0492 46.2511 13.5603 46.294 14.0714C46.3368 14.6251 46.3368 15.1787 46.3796 15.7322C46.4223 16.2859 46.4223 16.8396 46.4651 17.3932C46.4651 17.5636 46.508 17.734 46.508 17.9043C46.508 18.0747 46.5507 18.2449 46.5507 18.4153H46.508V18.1598Z" fill="black"/>
<path d="M69.1456 24.8034C69.0173 24.8034 68.8889 24.8034 68.7605 24.7609C68.6322 24.7183 68.5465 24.6756 68.4183 24.6331C68.2898 24.5479 68.1614 24.4627 68.0759 24.335C67.6908 23.8239 67.4341 23.2702 67.2201 22.674C67.0062 22.0778 66.835 21.4816 66.7066 20.8427C66.621 20.4594 66.5354 20.0761 66.4926 19.6928C66.4499 19.3095 66.3643 18.9262 66.3643 18.5429C66.3214 17.9467 66.2359 17.393 66.1503 16.7968C66.0647 16.2432 66.022 15.6469 65.9363 15.0507C65.9363 14.8804 65.9363 14.7527 65.8935 14.5823C65.8935 14.4119 65.8508 14.2416 65.8508 14.0712C65.7224 14.199 65.6368 14.3268 65.5512 14.4545C65.4657 14.5823 65.4229 14.7101 65.3372 14.8378C65.1233 15.434 64.8666 15.9877 64.5671 16.5413C64.2675 17.095 63.968 17.6487 63.7112 18.2023C63.5829 18.4152 63.4545 18.6707 63.369 18.9262C63.2833 19.1818 63.155 19.3948 63.0266 19.6502C62.9411 19.8206 62.8127 19.991 62.7271 20.1188C62.5987 20.289 62.5131 20.4168 62.3848 20.5872C62.1281 20.9279 61.8285 21.226 61.529 21.5241C61.2294 21.8222 60.887 22.0352 60.5019 22.2482C59.9029 22.5462 59.2182 22.7166 58.5336 22.6315C58.234 22.5888 57.9345 22.5037 57.6777 22.3333C57.421 22.1629 57.2071 21.95 57.0359 21.6945C56.8219 21.4389 56.6936 21.1409 56.608 20.8854C56.5225 20.5872 56.4368 20.289 56.394 19.9484C56.3085 19.3522 56.3085 18.756 56.3513 18.2023C56.394 17.6061 56.4797 17.0524 56.608 16.4562C56.6936 16.0302 56.8219 15.6044 56.9503 15.1785C57.0788 14.7527 57.2498 14.3694 57.421 13.9861C57.8918 13.0491 58.5336 12.2399 59.3039 11.5159C59.7745 11.0901 60.2452 10.6642 60.7587 10.3235C61.2721 9.94019 61.8285 9.64208 62.3848 9.34395C62.9838 9.04584 63.5829 8.8329 64.182 8.66255C64.7811 8.4922 65.3801 8.32184 66.022 8.23667C66.0647 8.23667 66.1075 8.23667 66.1075 8.23667C66.1503 8.23667 66.1503 8.23667 66.1931 8.23667C66.2787 7.93855 66.3643 7.64044 66.4499 7.38491C66.5354 7.12938 66.621 6.83127 66.7066 6.53314C66.7493 6.40539 66.835 6.32021 66.9205 6.23504C67.0489 6.19245 67.1773 6.14985 67.3484 6.19245C67.648 6.23503 67.9047 6.3628 68.0331 6.57574C68.2043 6.78868 68.2898 7.00162 68.2898 7.21456C68.3326 7.51267 68.3755 7.76821 68.3755 8.06632C68.3755 8.36443 68.3326 8.66255 68.2898 8.91808C68.2471 9.64208 68.2043 10.3661 68.2043 11.0901C68.1614 11.8141 68.2043 12.5381 68.2471 13.2621C68.3326 14.1565 68.4183 15.0507 68.5894 15.9451C68.7177 16.8395 68.8889 17.6912 69.1029 18.5856C69.2313 19.0966 69.3168 19.6502 69.488 20.1613C69.6164 20.6723 69.7447 21.1834 69.9159 21.6945C70.0015 21.9926 70.0871 22.2907 70.1726 22.5462C70.2582 22.8444 70.3438 23.0999 70.4722 23.3981C70.4722 23.4406 70.5149 23.5257 70.5149 23.6535C70.5577 23.8239 70.5149 23.9517 70.4722 24.0794C70.4294 24.1646 70.301 24.2923 70.2155 24.4201C70.1298 24.5052 70.0015 24.5905 69.8731 24.6331C69.7447 24.6756 69.6592 24.7609 69.5307 24.8034C69.4452 24.7183 69.3168 24.7609 69.1456 24.8034ZM60.2879 20.289H60.3736C60.4591 20.2465 60.5019 20.2465 60.5448 20.2039C61.2294 19.8206 61.7857 19.2244 62.1708 18.5429C62.2991 18.33 62.3848 18.1171 62.4703 17.9041C62.5559 17.6912 62.6842 17.4783 62.7699 17.2654C62.9838 16.8821 63.1978 16.4988 63.4545 16.1155C63.7112 15.7322 63.8824 15.3489 64.0536 14.923C64.182 14.5823 64.3103 14.2841 64.4815 13.9435C64.6526 13.6454 64.7811 13.3046 64.9093 13.0066C65.0805 12.5807 65.2517 12.1548 65.4229 11.7715C65.5941 11.3456 65.7224 10.9197 65.8508 10.4938C65.8935 10.3661 65.9363 10.2383 65.9363 10.1105C65.9792 9.98278 65.9363 9.81243 65.9363 9.68466C65.808 9.72725 65.6796 9.72725 65.5512 9.76985C65.4229 9.81243 65.3372 9.85502 65.2089 9.94019C64.7811 10.1531 64.3532 10.4087 63.9251 10.6216C63.4973 10.8771 63.1121 11.1327 62.6842 11.4308C62.3848 11.6863 62.0424 11.9418 61.7857 12.1974C61.4861 12.4529 61.2721 12.751 61.101 13.1343C61.0154 13.3046 60.9299 13.4324 60.887 13.6028C60.8015 13.7732 60.716 13.9008 60.6731 14.0712C60.5875 14.3268 60.4591 14.5823 60.3736 14.8378C60.2879 15.0934 60.2024 15.3489 60.1597 15.6469C60.1169 15.8599 60.074 16.1155 60.0312 16.371C59.9885 16.6265 59.9885 16.8395 59.9457 17.095C59.9029 17.4783 59.8601 17.9041 59.8601 18.2874C59.8601 18.6707 59.9029 19.0966 59.9885 19.4799C60.0312 19.6077 60.0312 19.7355 60.074 19.9059C60.1169 20.0335 60.2024 20.1613 60.2879 20.289Z" fill="black"/>
<path d="M72.2688 5.63799C72.1406 5.59541 72.0977 5.51024 72.0977 5.38247C72.0977 5.33989 72.0977 5.2547 72.1405 5.16953C72.1833 5.08435 72.2261 5.04176 72.2688 4.95659C72.3116 4.87141 72.3973 4.82882 72.44 4.78624C72.5257 4.74365 72.5684 4.74365 72.654 4.74365C72.7824 4.78624 72.9536 4.78624 73.0819 4.82882C73.253 4.87141 73.3815 4.91401 73.5097 5.04176L73.5954 5.12695C73.7237 5.42506 73.7237 5.72318 73.6382 5.9787C73.5526 6.23423 73.3815 6.48975 73.1246 6.66011C73.0391 6.70269 72.9536 6.74529 72.8679 6.74529C72.7824 6.74529 72.6967 6.78788 72.5684 6.78788C72.5257 6.78788 72.44 6.78787 72.44 6.74529C72.3973 6.70269 72.3973 6.66011 72.44 6.57494C72.4828 6.53235 72.4828 6.48975 72.5255 6.44717C72.5684 6.40458 72.654 6.31941 72.6967 6.27681C72.7396 6.23423 72.8251 6.14906 72.8679 6.10647C72.9107 6.06387 72.9107 6.02129 72.9536 5.9787C72.9963 5.93612 72.9963 5.89352 72.9536 5.80835C72.9107 5.76576 72.8679 5.76576 72.8251 5.72318C72.7824 5.72318 72.6967 5.72318 72.654 5.68058L72.4828 5.63799C72.44 5.63799 72.3545 5.638 72.3116 5.59541C72.3545 5.68058 72.3116 5.68058 72.2688 5.63799Z" fill="black"/>
<path d="M75.2615 16.8811C75.5609 17.1366 75.8178 17.4348 76.0745 17.6903C76.3312 17.9884 76.4596 18.3292 76.5451 18.7125C76.588 19.0531 76.6735 19.3938 76.802 19.7345C76.8875 20.0753 77.0587 20.3733 77.2726 20.714C77.401 20.8844 77.5293 21.0548 77.7005 21.1826C77.8289 21.3103 78.0001 21.4806 78.1712 21.6084C78.2996 21.7361 78.4708 21.7788 78.6419 21.8214C78.8131 21.8639 78.9842 21.8639 79.1554 21.8639C79.2838 21.8214 79.4122 21.7788 79.5405 21.7361C79.6689 21.6084 79.8401 21.4381 79.9684 21.3103C80.0968 21.1399 80.1823 20.9695 80.2252 20.7566C80.3963 20.1604 80.4819 19.6067 80.5247 19.0105C80.5675 18.4143 80.4819 17.8606 80.3107 17.2644C80.2252 16.8811 80.0968 16.5404 79.9256 16.2423C79.7544 15.9016 79.5833 15.6036 79.3693 15.3054C79.1126 14.9646 78.8987 14.6239 78.6419 14.2833C78.3851 13.9426 78.1712 13.6018 77.9572 13.2611C77.7005 12.8353 77.4438 12.4094 77.2299 11.9409C77.0159 11.515 76.8447 11.0466 76.7163 10.5355C76.6308 10.1522 76.588 9.81152 76.6308 9.42823C76.6735 9.04493 76.7163 8.66164 76.8447 8.32095C76.973 7.98024 77.1442 7.63953 77.401 7.29883C77.615 7.00071 77.9145 6.74519 78.2141 6.48966C78.2996 6.44706 78.428 6.36189 78.5135 6.31931C78.5991 6.27671 78.7275 6.19154 78.8131 6.14895C79.1126 5.9786 79.4122 5.85083 79.7117 5.80825C80.054 5.76566 80.3535 5.76566 80.6531 5.85083C80.9526 5.93601 81.2522 6.02119 81.5517 6.19154C81.8513 6.31931 82.0652 6.48966 82.2791 6.7026C82.707 7.12848 83.0922 7.59694 83.4773 8.10801C83.6056 8.27835 83.734 8.4913 83.8195 8.70424C83.9052 8.91718 83.9907 9.13012 84.1191 9.30047C84.1619 9.42823 84.2474 9.556 84.2903 9.68376C84.3331 9.81152 84.3758 9.93929 84.4615 10.067C84.547 10.2374 84.5043 10.4078 84.3758 10.5781C84.3331 10.6207 84.2903 10.7059 84.2474 10.7059C84.2046 10.7485 84.1191 10.7485 84.0335 10.7059C83.8624 10.7059 83.7768 10.6207 83.7768 10.4503C83.734 10.3226 83.734 10.2374 83.6912 10.1096C83.6912 9.98187 83.6483 9.8967 83.6056 9.81152C83.4344 9.42823 83.2633 9.04493 83.0065 8.74682C82.7498 8.40612 82.4503 8.15059 82.108 7.89507C81.9795 7.80988 81.8084 7.72471 81.5944 7.68211C81.4232 7.63953 81.2522 7.55436 81.0382 7.51177C80.9098 7.46918 80.8243 7.46918 80.6959 7.51177C80.5675 7.55436 80.4819 7.59694 80.3963 7.72471C80.1823 7.98024 79.9684 8.27835 79.8401 8.57647C79.7117 8.87458 79.6261 9.21529 79.5833 9.556C79.5833 9.72635 79.5833 9.8967 79.6261 10.067C79.6689 10.2374 79.7544 10.3652 79.7972 10.4929C80.054 11.004 80.3107 11.4724 80.6102 11.8983C80.9098 12.3242 81.2093 12.7927 81.5089 13.2185C81.7656 13.5593 81.9795 13.9 82.1935 14.2406C82.4074 14.5814 82.6214 14.9221 82.8355 15.3054C83.3489 16.2849 83.6485 17.3497 83.734 18.4568C83.7768 19.0531 83.734 19.6067 83.6912 20.1604C83.6485 20.714 83.5201 21.2677 83.3489 21.8214C83.1777 22.4602 82.921 23.0138 82.5359 23.4822C82.1507 23.9508 81.6373 24.3341 80.9953 24.5895C80.7386 24.7174 80.4392 24.7599 80.1823 24.7599C79.9256 24.7599 79.6261 24.7599 79.3693 24.7599C78.5135 24.6748 77.7005 24.4192 77.0159 23.9508C76.7591 23.7378 76.5024 23.5249 76.2884 23.312C76.0745 23.0989 75.8605 22.8434 75.6466 22.588C75.133 21.9491 74.7908 21.2252 74.5769 20.416C74.4912 20.0753 74.4484 19.7771 74.4912 19.4364C74.534 19.0958 74.5769 18.7976 74.7051 18.4568C74.7908 18.2014 74.8763 17.9459 75.0047 17.6903C75.0475 17.4348 75.1759 17.1793 75.2615 16.8811Z" fill="black"/>
<path d="M91.781 37.9839C91.522 37.9839 91.2921 37.9672 91.0914 37.934C90.8908 37.909 90.6944 37.8591 90.5022 37.7843V36.5988C90.6443 36.6487 90.7738 36.682 90.8908 36.6986C91.0162 36.7152 91.1415 36.7236 91.267 36.7236C91.6096 36.7236 91.873 36.6445 92.0569 36.4864C92.2491 36.3284 92.4414 36.0622 92.6336 35.6879L89.9756 29.873H91.7434L93.4862 33.891L95.2163 29.873H96.9715L94.627 35.376C94.4098 35.8917 94.1715 36.3451 93.9124 36.7361C93.6617 37.1354 93.365 37.4432 93.0222 37.6594C92.6795 37.8757 92.2659 37.9839 91.781 37.9839Z" fill="black"/>
<path d="M87.4539 35.9118C86.3923 35.9118 85.5774 35.6497 85.009 35.1256C84.449 34.6016 84.169 33.8362 84.169 32.8296C84.169 31.7898 84.4699 31.0161 85.0718 30.5087C85.6819 30.0013 86.4926 29.7476 87.5041 29.7476C87.9219 29.7476 88.2813 29.7766 88.5822 29.8348C88.8832 29.8931 89.1757 29.9887 89.4599 30.1219V31.3323C89.2509 31.2325 89.0086 31.1534 88.7328 31.0952C88.4568 31.0369 88.1602 31.0078 87.8425 31.0078C87.2073 31.0078 86.7225 31.1409 86.3881 31.4071C86.0538 31.665 85.8867 32.1392 85.8867 32.8296C85.8867 33.4618 86.0371 33.9235 86.338 34.2147C86.6473 34.5059 87.1446 34.6515 87.83 34.6515C88.1225 34.6515 88.4067 34.6223 88.6826 34.5641C88.9667 34.5059 89.23 34.4185 89.4725 34.3021V35.5499C88.9125 35.7911 88.2396 35.9118 87.4539 35.9118Z" fill="black"/>
<path d="M77.2588 35.787V29.8723H78.826L78.8886 30.4338C79.1311 30.2508 79.4362 30.0927 79.804 29.9596C80.1801 29.8182 80.573 29.7476 80.9825 29.7476C81.7682 29.7476 82.3407 29.9305 82.7001 30.2965C83.0595 30.6626 83.2392 31.2283 83.2392 31.9936V35.787H81.5466V32.0809C81.5466 31.6816 81.4631 31.3988 81.2959 31.2325C81.137 31.066 80.8362 30.9828 80.3933 30.9828C80.1341 30.9828 79.8708 31.0411 79.6034 31.1576C79.3443 31.274 79.1269 31.4196 78.9514 31.5942V35.787H77.2588Z" fill="black"/>
<path d="M73.5564 35.9118C72.5283 35.9118 71.7134 35.6581 71.1115 35.1505C70.5097 34.6349 70.2089 33.857 70.2089 32.8172C70.2089 31.8771 70.4596 31.1325 70.961 30.5836C71.4709 30.0262 72.2274 29.7476 73.2303 29.7476C74.1497 29.7476 74.8519 29.9887 75.3367 30.4712C75.8299 30.9454 76.0764 31.5693 76.0764 32.343V33.4161H71.776C71.868 33.8903 72.0852 34.2147 72.428 34.3894C72.779 34.5641 73.2722 34.6515 73.9074 34.6515C74.2251 34.6515 74.5468 34.6223 74.8728 34.5641C75.2071 34.5059 75.4913 34.4311 75.7254 34.3395V35.5374C75.4496 35.6621 75.1277 35.7537 74.76 35.812C74.3922 35.8785 73.991 35.9118 73.5564 35.9118ZM71.776 32.3805H74.597V32.0559C74.597 31.7149 74.4967 31.4487 74.2961 31.2574C74.0955 31.0577 73.757 30.9579 73.2805 30.9579C72.7205 30.9579 72.3277 31.0702 72.102 31.2948C71.8847 31.5194 71.776 31.8813 71.776 32.3805Z" fill="black"/>
<path d="M66.0511 37.9832C65.6082 37.9832 65.1527 37.954 64.6846 37.8958C64.2249 37.8375 63.8362 37.7544 63.5185 37.6462V36.3859C63.8529 36.4941 64.2458 36.5773 64.6971 36.6354C65.1485 36.7021 65.5705 36.7353 65.9634 36.7353C66.5401 36.7353 66.9581 36.7021 67.2172 36.6354C67.4763 36.5773 67.6059 36.4691 67.6059 36.311C67.6059 36.1779 67.5473 36.0865 67.4303 36.0366C67.3217 35.9867 67.0876 35.9617 66.7282 35.9617H65.1108C64.0494 35.9617 63.5185 35.5707 63.5185 34.7888C63.5185 34.5475 63.5855 34.3271 63.7192 34.1273C63.8529 33.9277 64.0661 33.7696 64.3587 33.6532C63.6816 33.3121 63.343 32.7382 63.343 31.9312C63.343 31.1658 63.5813 30.6127 64.0577 30.2716C64.5342 29.9222 65.2404 29.7476 66.1765 29.7476C66.3688 29.7476 66.5778 29.7642 66.8034 29.7975C67.0375 29.8224 67.213 29.8474 67.33 29.8723H69.5617L69.5241 30.9329H68.5837C68.8429 31.1742 68.9724 31.5111 68.9724 31.9437C68.9724 32.5509 68.7802 33.0376 68.3957 33.4037C68.0113 33.7614 67.4429 33.9402 66.6905 33.9402C66.5569 33.9402 66.4273 33.936 66.302 33.9277C66.1849 33.9111 66.0637 33.8945 65.9384 33.8778C65.6876 33.9111 65.4745 33.9694 65.2989 34.0525C65.1317 34.1357 65.0482 34.248 65.0482 34.3894C65.0482 34.5808 65.2195 34.6764 65.5621 34.6764H67.2423C67.844 34.6764 68.3079 34.8137 68.6339 35.0882C68.9599 35.3543 69.1229 35.7454 69.1229 36.2611C69.1229 36.8434 68.8597 37.276 68.333 37.5588C67.8065 37.8417 67.0458 37.9832 66.0511 37.9832ZM66.1891 32.9919C66.6905 32.9919 67.0375 32.9087 67.2297 32.7423C67.4303 32.5675 67.5305 32.2765 67.5305 31.8688C67.5305 31.4612 67.4303 31.1658 67.2297 30.9828C67.0375 30.7998 66.6905 30.7083 66.1891 30.7083C65.7127 30.7083 65.37 30.7998 65.161 30.9828C64.952 31.1576 64.8475 31.4529 64.8475 31.8688C64.8475 32.2515 64.9437 32.5344 65.1359 32.7174C65.3365 32.9003 65.6876 32.9919 66.1891 32.9919Z" fill="black"/>
<path d="M54.3544 35.7875L57.4387 27.7515H59.2942L62.3659 35.7875H60.6107L59.8458 33.8533H56.8745L56.1222 35.7875H54.3544ZM57.1252 32.5556H59.5951L58.3539 29.3237L57.1252 32.5556Z" fill="black"/>
<path d="M47.3182 37.9832C46.8752 37.9832 46.4197 37.954 45.9516 37.8958C45.4919 37.8375 45.1033 37.7544 44.7856 37.6462V36.3859C45.12 36.4941 45.5127 36.5773 45.9642 36.6354C46.4155 36.7021 46.8376 36.7353 47.2304 36.7353C47.8072 36.7353 48.225 36.7021 48.4842 36.6354C48.7433 36.5773 48.8729 36.4691 48.8729 36.311C48.8729 36.1779 48.8143 36.0865 48.6973 36.0366C48.5887 35.9867 48.3546 35.9617 47.9952 35.9617H46.3779C45.3163 35.9617 44.7856 35.5707 44.7856 34.7888C44.7856 34.5475 44.8524 34.3271 44.9862 34.1273C45.12 33.9277 45.3331 33.7696 45.6256 33.6532C44.9487 33.3121 44.6101 32.7382 44.6101 31.9312C44.6101 31.1658 44.8482 30.6127 45.3247 30.2716C45.8011 29.9222 46.5075 29.7476 47.4436 29.7476C47.6358 29.7476 47.8447 29.7642 48.0704 29.7975C48.3045 29.8224 48.48 29.8474 48.5971 29.8723H50.8288L50.7911 30.9329H49.8508C50.1099 31.1742 50.2395 31.5111 50.2395 31.9437C50.2395 32.5509 50.0472 33.0376 49.6627 33.4037C49.2782 33.7614 48.7098 33.9402 47.9576 33.9402C47.8239 33.9402 47.6943 33.936 47.5689 33.9277C47.452 33.9111 47.3307 33.8945 47.2053 33.8778C46.9546 33.9111 46.7414 33.9694 46.5659 34.0525C46.3988 34.1357 46.3152 34.248 46.3152 34.3894C46.3152 34.5808 46.4865 34.6764 46.8292 34.6764H48.5092C49.1111 34.6764 49.575 34.8137 49.901 35.0882C50.2269 35.3543 50.3899 35.7454 50.3899 36.2611C50.3899 36.8434 50.1266 37.276 49.6001 37.5588C49.0734 37.8417 48.3129 37.9832 47.3182 37.9832ZM47.4561 32.9919C47.9576 32.9919 48.3045 32.9087 48.4968 32.7423C48.6973 32.5675 48.7976 32.2765 48.7976 31.8688C48.7976 31.4612 48.6973 31.1658 48.4968 30.9828C48.3045 30.7998 47.9576 30.7083 47.4561 30.7083C46.9797 30.7083 46.6371 30.7998 46.4281 30.9828C46.2191 31.1576 46.1146 31.4529 46.1146 31.8688C46.1146 32.2515 46.2107 32.5344 46.403 32.7174C46.6036 32.9003 46.9546 32.9919 47.4561 32.9919Z" fill="black"/>
<path d="M37.451 35.787V29.8723H39.0183L39.0809 30.4338C39.3234 30.2508 39.6284 30.0927 39.9961 29.9596C40.3723 29.8182 40.7651 29.7476 41.1747 29.7476C41.9603 29.7476 42.5329 29.9305 42.8923 30.2965C43.2518 30.6626 43.4315 31.2283 43.4315 31.9936V35.787H41.7389V32.0809C41.7389 31.6816 41.6553 31.3988 41.4881 31.2325C41.3293 31.066 41.0284 30.9828 40.5854 30.9828C40.3263 30.9828 40.0631 31.0411 39.7955 31.1576C39.5364 31.274 39.3192 31.4196 39.1436 31.5942V35.787H37.451Z" fill="black"/>
<path d="M34.1813 28.7873V27.4646H36.0243V28.7873H34.1813ZM34.3191 35.7876V31.1207H33.429L33.5794 29.8729H36.0117V35.7876H34.3191Z" fill="black"/>
<path d="M28.8543 35.9118C28.3277 35.9118 27.8556 35.8203 27.4376 35.6373C27.028 35.4459 26.7062 35.1381 26.4722 34.7139C26.2382 34.2813 26.1211 33.7114 26.1211 33.0044C26.1211 32.2972 26.2507 31.7025 26.5098 31.22C26.7689 30.7374 27.1157 30.3715 27.5504 30.1218C27.985 29.8723 28.4615 29.7475 28.9798 29.7475C29.6317 29.7475 30.1875 29.8972 30.6472 30.1968V27.3767H32.3398V35.787H30.8854L30.7851 35.2379C30.526 35.4626 30.2418 35.6331 29.9325 35.7495C29.6317 35.8577 29.2722 35.9118 28.8543 35.9118ZM29.3182 34.6764C29.8448 34.6764 30.2877 34.4975 30.6472 34.1398V31.4446C30.2961 31.1368 29.8866 30.9829 29.4185 30.9829C28.3654 30.9829 27.8388 31.6566 27.8388 33.0044C27.8388 33.6366 27.9683 34.0733 28.2275 34.3146C28.4866 34.5558 28.8502 34.6764 29.3182 34.6764Z" fill="black"/>
<path d="M19.2052 35.787V29.8723H20.7724L20.8352 30.4338C21.0775 30.2508 21.3826 30.0927 21.7504 29.9596C22.1265 29.8182 22.5194 29.7476 22.9289 29.7476C23.7146 29.7476 24.2872 29.9305 24.6466 30.2965C25.006 30.6626 25.1856 31.2283 25.1856 31.9936V35.787H23.4931V32.0809C23.4931 31.6816 23.4095 31.3988 23.2423 31.2325C23.0836 31.066 22.7826 30.9828 22.3397 30.9828C22.0805 30.9828 21.8172 31.0411 21.5498 31.1576C21.2907 31.274 21.0733 31.4196 20.8978 31.5942V35.787H19.2052Z" fill="black"/>
<path d="M14.1401 35.9118C13.764 35.9118 13.413 35.8452 13.0869 35.712C12.7694 35.5707 12.5103 35.3669 12.3097 35.1006C12.1174 34.8261 12.0213 34.485 12.0213 34.0774C12.0213 33.4951 12.2261 33.0292 12.6356 32.6799C13.0536 32.3305 13.6679 32.1557 14.4787 32.1557H16.2339V31.9936C16.2339 31.6275 16.1294 31.3697 15.9205 31.2199C15.7198 31.0702 15.3103 30.9954 14.6919 30.9954C14.0148 30.9954 13.3629 31.0993 12.7359 31.3073V30.1219C13.0117 30.0137 13.3461 29.9264 13.739 29.8598C14.1401 29.7849 14.5748 29.7476 15.0429 29.7476C15.9372 29.7476 16.6268 29.9305 17.1116 30.2965C17.6047 30.6542 17.8513 31.2325 17.8513 32.031V35.787H16.3843L16.2966 35.2505C16.0626 35.4583 15.7742 35.6206 15.4316 35.737C15.0888 35.8535 14.6584 35.9118 14.1401 35.9118ZM14.604 34.8012C14.9801 34.8012 15.3062 34.7389 15.582 34.614C15.8578 34.4892 16.0752 34.3311 16.2339 34.1399V33.204H14.5163C13.8559 33.204 13.5258 33.4743 13.5258 34.0151C13.5258 34.5391 13.8852 34.8012 14.604 34.8012Z" fill="black"/>
<path d="M7.96973 35.787V29.8723H9.53692L9.61214 30.4837C9.87962 30.3173 10.2098 30.1676 10.6026 30.0345C11.0038 29.8931 11.3967 29.7975 11.7811 29.7476V31.0203C11.5555 31.0536 11.3089 31.1035 11.0414 31.17C10.774 31.2365 10.519 31.3114 10.2766 31.3946C10.0342 31.4778 9.82946 31.5652 9.6623 31.6567V35.787H7.96973Z" fill="black"/>
<path d="M0 35.7875V27.7515H4.08725C4.89802 27.7515 5.49981 27.9427 5.89266 28.3254C6.29387 28.6998 6.49446 29.2322 6.49446 29.9227C6.49446 30.3552 6.41088 30.7171 6.24371 31.0082C6.07655 31.291 5.85087 31.5116 5.56668 31.6696C5.94281 31.7861 6.23953 31.9815 6.45685 32.2561C6.68253 32.5222 6.79536 32.9174 6.79536 33.4415C6.79536 34.2151 6.57387 34.8016 6.13087 35.201C5.69624 35.5919 5.06517 35.7875 4.2377 35.7875H0ZM1.69257 31.0832H3.77381C4.18337 31.0832 4.47591 30.9958 4.65144 30.8211C4.82697 30.6381 4.91473 30.3844 4.91473 30.06C4.91473 29.7023 4.82278 29.436 4.6389 29.2613C4.46338 29.0867 4.13322 28.9993 3.64844 28.9993H1.69257V31.0832ZM1.69257 34.5521H3.8365C4.26277 34.5521 4.57622 34.4647 4.77681 34.29C4.97742 34.1153 5.07771 33.8075 5.07771 33.3666C5.07771 33.0089 4.97742 32.7428 4.77681 32.5681C4.58457 32.3933 4.23352 32.306 3.72366 32.306H1.69257V34.5521Z" fill="black"/>
</g>
</svg>
