<svg width="112" height="30" viewBox="0 0 112 30" fill="none" xmlns="http://www.w3.org/2000/svg">
<g clip-path="url(#clip0_319_993)">
<mask id="mask0_319_993" style="mask-type:luminance" maskUnits="userSpaceOnUse" x="0" y="0" width="112" height="30">
<path d="M111.69 0.0131836H0.113281V29.9868H111.69V0.0131836Z" fill="white"/>
</mask>
<g mask="url(#mask0_319_993)">
<path d="M88.6809 21.4679C88.6809 24.1644 88.3846 25.5517 87.5353 26.8608C86.1329 28.9516 83.664 29.9872 80.1087 29.9872C75.151 29.9872 72.4648 28.2091 71.9908 24.6138H76.7707C77.1657 26.1379 78.173 26.8218 80.1877 26.8218C83.0517 26.8218 84.0985 25.6494 84.0985 22.4254V20.4714C82.9134 22.2495 81.1555 23.1288 78.8248 23.1288C74.3412 23.1288 71.418 19.9048 71.418 14.6682C71.418 9.45116 74.44 5.99268 79.0026 5.99268C81.4123 5.99268 82.8542 6.73518 84.1775 8.7282V6.46162H88.7006V21.4679H88.6809ZM80.1087 9.68564C77.6595 9.68564 76.1979 11.5028 76.1979 14.59C76.1979 17.7554 77.699 19.6703 80.1482 19.6703C82.5974 19.6703 84.1775 17.7554 84.1775 14.6291C84.1578 11.5028 82.6764 9.68564 80.1087 9.68564ZM94.4879 16.29C94.5866 19.2795 95.9692 20.8036 98.5369 20.8036C100.295 20.8036 101.342 20.0611 102.053 18.3612H106.635C105.746 21.9174 102.586 24.1058 98.5172 24.1058C93.1645 24.1058 89.6487 20.5496 89.6487 15.1567C89.6487 9.90057 93.3028 6.03175 98.3789 6.03175C103.554 6.03175 106.931 9.84195 106.931 15.7624V16.29H94.4879ZM102.072 13.2614C101.816 10.7408 100.492 9.39255 98.3394 9.39255C96.1865 9.39255 94.7446 10.858 94.4879 13.2614H102.072Z" fill="black"/>
<path d="M11.6087 23.6364V13.7885C11.6087 10.8381 10.8187 9.84155 8.62623 9.84155C5.99927 9.84155 4.85367 11.3656 4.85367 14.785V23.6364H0.113281V6.48075H4.6364V8.86457C6.17703 6.87154 7.83617 6.03134 10.4236 6.03134C12.6161 6.03134 14.5122 6.91062 15.4208 8.37608C16.2109 9.50937 16.3491 10.6231 16.3491 12.8506V23.656L11.6087 23.6364ZM22.0771 16.2896C22.1758 19.2791 23.5585 20.8032 26.1262 20.8032C27.8841 20.8032 28.9309 20.0607 29.642 18.3608H34.2046C33.3158 21.9169 30.1555 24.1054 26.0867 24.1054C20.734 24.1054 17.2182 20.5492 17.2182 15.1563C17.2182 9.90016 20.8722 6.03134 25.9484 6.03134C31.1233 6.03134 34.5009 9.84155 34.5009 15.762V16.2896H22.0771ZM29.6617 13.261C29.4049 10.7404 28.0816 9.39214 25.9287 9.39214C23.7757 9.39214 22.3339 10.8576 22.0771 13.261H29.6617ZM54.9438 23.6364H50.0652L48.011 16.1333C47.6159 14.4919 47.3987 13.4759 46.9246 10.9162C46.5296 13.4759 46.2333 14.531 45.8383 16.1333L43.9421 23.6364H39.024L33.454 6.48075H38.4907L40.3276 13.0069C40.9004 14.8827 41.1967 16.2114 41.7695 19.2987C42.2435 16.3482 42.52 15.2931 43.0928 12.8311L44.673 6.48075H49.3146L51.1515 13.554C51.7243 15.5862 51.9021 16.6022 52.2971 19.2791C52.8699 16.4459 53.1662 15.1954 53.5612 13.6713L57.63 0.0131836H62.5877L54.9438 23.6364Z" fill="black"/>
<path d="M67.7446 13.6516L64.1498 1.57617L61.7006 9.23565L63.4387 14.6481H59.9624L58.7773 18.3411H64.6238L66.3225 23.6167H71.2011C71.2406 23.6363 68.1396 15.1952 67.7446 13.6516Z" fill="black"/>
<path d="M90.5761 25.8639C90.2996 25.8639 90.0626 26.0788 90.0626 26.3524C90.0626 26.6259 90.2798 26.8604 90.5761 26.8604C90.7144 26.8604 90.8724 26.8018 90.9909 26.6845L91.1687 26.8799C91.0106 27.0362 90.7934 27.1339 90.5761 27.1339C90.1218 27.1339 89.786 26.8018 89.786 26.3719C89.786 25.942 90.1416 25.6099 90.5959 25.6099C90.8131 25.6099 91.0304 25.7076 91.1884 25.8443L91.0106 26.0593C90.8724 25.942 90.7341 25.8639 90.5761 25.8639ZM93.0846 26.3719C93.0846 26.8018 92.729 27.1339 92.2747 27.1339C91.8205 27.1339 91.4649 26.8018 91.4649 26.3719C91.4649 25.942 91.8205 25.6099 92.2747 25.6099C92.729 25.6099 93.0846 25.942 93.0846 26.3719ZM91.7612 26.3719C91.7612 26.6455 91.9982 26.8799 92.2747 26.8799C92.5513 26.8799 92.7883 26.665 92.7883 26.3719C92.7883 26.0983 92.5513 25.8639 92.2747 25.8639C91.9982 25.8834 91.7612 26.0983 91.7612 26.3719ZM93.8746 25.6294L94.3487 26.5868L94.8227 25.6294H95.1585V27.1339H94.9017V26.0593L94.4474 26.9776H94.2499L93.7956 26.0593V27.1339H93.5191V25.6294H93.8746ZM96.0868 25.6294L96.5608 26.5868L97.0349 25.6294H97.3707V27.1339H97.1139V26.0593L96.6596 26.9776H96.4621L96.0078 26.0593V27.1339H95.7313V25.6294H96.0868ZM98.615 26.8799C98.852 26.8799 98.9903 26.7432 98.9903 26.4891V25.6099H99.2866V26.4891C99.2866 26.8799 99.0298 27.1339 98.615 27.1339C98.2002 27.1339 97.9435 26.8995 97.9435 26.4891V25.6099H98.2397V26.4891C98.22 26.7432 98.378 26.8799 98.615 26.8799ZM100.096 25.6294L100.886 26.6455V25.6294H101.163V27.1339H100.886L100.116 26.1179V27.1339H99.8396V25.6294H100.096ZM102.052 25.6294V27.1339H101.756V25.6294H102.052ZM103.316 25.8639C103.039 25.8639 102.802 26.0788 102.802 26.3524C102.802 26.6259 103.02 26.8604 103.316 26.8604C103.454 26.8604 103.612 26.8018 103.731 26.6845L103.908 26.8799C103.75 27.0362 103.533 27.1339 103.316 27.1339C102.862 27.1339 102.526 26.8018 102.526 26.3719C102.526 25.942 102.881 25.6099 103.336 25.6099C103.553 25.6099 103.77 25.7076 103.928 25.8443L103.75 26.0593C103.612 25.942 103.474 25.8639 103.316 25.8639ZM105.331 26.8018H104.6L104.461 27.1144H104.165L104.837 25.6099H105.133L105.785 27.1144H105.469L105.331 26.8018ZM105.232 26.5673L104.975 25.942L104.699 26.5673H105.232ZM107.088 25.6294V25.8834H106.614V27.1339H106.318V25.8834H105.844V25.6294H107.088ZM107.8 25.6294V27.1339H107.503V25.6294H107.8ZM109.873 26.3719C109.873 26.8018 109.518 27.1339 109.064 27.1339C108.609 27.1339 108.254 26.8018 108.254 26.3719C108.254 25.942 108.609 25.6099 109.064 25.6099C109.538 25.6099 109.873 25.942 109.873 26.3719ZM108.57 26.3719C108.57 26.6455 108.807 26.8799 109.083 26.8799C109.36 26.8799 109.597 26.665 109.597 26.3719C109.597 26.0983 109.36 25.8639 109.083 25.8639C108.787 25.8834 108.57 26.0983 108.57 26.3719ZM110.624 25.6294L111.414 26.6455V25.6294H111.691V27.1339H111.414L110.644 26.1179V27.1339H110.367V25.6294H110.624ZM90.8724 29.6155H90.1416L90.0033 29.9281H89.707L90.3786 28.4235H90.6749L91.3267 29.9281H91.0106L90.8724 29.6155ZM90.7736 29.3614L90.5168 28.7362L90.2403 29.3614H90.7736ZM92.7093 29.1856H92.9661V29.7522C92.808 29.8695 92.571 29.9476 92.3735 29.9476C91.9192 29.9476 91.5637 29.6155 91.5637 29.1856C91.5637 28.7557 91.9192 28.4235 92.3735 28.4235C92.5908 28.4235 92.808 28.5017 92.9661 28.6385L92.808 28.8534C92.6895 28.7557 92.5315 28.6776 92.3735 28.6776C92.0772 28.6776 91.86 28.8925 91.86 29.1856C91.86 29.4787 92.097 29.6936 92.3933 29.6936C92.492 29.6936 92.6105 29.6545 92.729 29.5959V29.1856H92.7093ZM94.6252 28.4431V28.6971H93.7956V29.0684H94.5264V29.3224H93.7956V29.6936H94.6449V29.9476H93.4993V28.4431H94.6252ZM95.435 28.4431L96.2251 29.4591V28.4431H96.5016V29.9476H96.2251L95.4548 28.9316V29.9476H95.1782V28.4431H95.435ZM97.7657 28.6776C97.4892 28.6776 97.2522 28.8925 97.2522 29.166C97.2522 29.4396 97.4694 29.6741 97.7657 29.6741C97.904 29.6741 98.062 29.6155 98.1805 29.4982L98.3582 29.6936C98.2002 29.8499 97.983 29.9476 97.7657 29.9476C97.3114 29.9476 96.9756 29.6155 96.9756 29.1856C96.9756 28.7557 97.3312 28.4235 97.7854 28.4235C98.0027 28.4235 98.22 28.5212 98.378 28.658L98.2002 28.873C98.0817 28.7557 97.9237 28.6776 97.7657 28.6776ZM99.4643 29.4396V29.9281H99.1681V29.4396L98.5953 28.4235H98.8915L99.3063 29.127L99.7211 28.4235H100.017L99.4643 29.4396Z" fill="black"/>
</g>
</g>
<defs>
<clipPath id="clip0_319_993">
<rect width="112" height="30" fill="white"/>
</clipPath>
</defs>
</svg>
