<svg width="99" height="30" viewBox="0 0 99 30" fill="none" xmlns="http://www.w3.org/2000/svg">
<mask id="mask0_319_936" style="mask-type:luminance" maskUnits="userSpaceOnUse" x="0" y="0" width="99" height="30">
<path d="M98.0397 0H0V30H98.0397V0Z" fill="white"/>
</mask>
<g mask="url(#mask0_319_936)">
<path d="M18.8146 3.91016C17.6377 3.91016 15.939 4.28433 12.8672 5.30608V24.6854C15.5681 25.5662 17.6377 26.0815 18.8146 26.0815C21.5275 26.0815 23.0569 24.2949 23.0569 21.4292V8.56235C23.0569 5.69657 21.5275 3.91016 18.8146 3.91016ZM19.6986 20.9312C19.6986 22.0528 19.0728 22.426 18.3244 22.426C17.7419 22.426 16.8426 22.1982 16.1094 21.9823V8.00163C16.8426 7.79341 17.7419 7.56557 18.3244 7.56557C19.0728 7.56557 19.6986 7.93867 19.6986 9.06021V20.9312Z" fill="black"/>
<path d="M57.5904 0.419474C54.1551 0.240522 52.1094 1.87293 52.1094 5.61084V24.181C52.1094 28.1272 53.9621 29.7509 57.5904 29.5807C61.1417 29.4146 62.9944 27.9612 62.9944 23.7656V6.03932C62.9944 2.03898 61.3185 0.614721 57.5904 0.419474ZM59.25 23.849C59.25 24.9707 58.9028 25.5521 57.5904 25.5934C56.2399 25.6357 55.8733 25.0119 55.8733 23.849V6.15106C55.8733 4.98823 56.2399 4.34395 57.5904 4.38621C58.9028 4.42751 59.25 5.02942 59.25 6.15106V23.849Z" fill="black"/>
<path d="M90.9922 7.66406V22.2924C95.208 20.1371 97.6274 17.6325 97.6274 14.949C97.6274 12.2947 95.208 9.80307 90.9922 7.66406Z" fill="black"/>
<path d="M0.40625 14.9524C0.40625 17.6316 2.82295 20.1405 7.03694 22.2915V7.67188C2.82295 9.8065 0.40625 12.2981 0.40625 14.9524Z" fill="black"/>
<path d="M32.5111 23.201C32.5111 24.3226 32.152 25.0332 30.8515 24.8629C29.5737 24.6968 29.2298 24.1144 29.2298 22.7856V1.69459C28.3817 1.79428 26.4898 2.07643 25.6797 2.20119V23.533C25.6797 26.9389 27.2155 28.2645 30.8515 28.7124C34.1782 29.1236 36.2165 27.3132 36.2165 23.533V0.996094C35.5222 1.03816 33.2443 1.24551 32.5111 1.32907V23.201Z" fill="black"/>
<path d="M73.2951 16.2322L69.1841 1.79911C68.0647 1.64074 66.7142 1.47906 65.6719 1.375V28.6174C66.4051 28.5435 68.2741 28.3148 69.2384 28.1813L68.9453 12.1287L73.295 27.5543C74.2213 27.3968 75.5718 27.1432 76.4601 26.961V3.02374C75.5338 2.82844 73.8504 2.52151 73.04 2.38917L73.2951 16.2322Z" fill="black"/>
<path d="M44.2582 0.574219C43.6139 0.574219 41.2634 0.660926 39.1016 0.798672V29.1875C39.8348 29.2288 41.7645 29.3373 42.8069 29.3665V19.7256L44.2582 19.7225C48.1415 19.7102 49.7545 17.8375 49.7545 14.2318V5.86656C49.7545 2.33688 47.9408 0.574219 44.2582 0.574219ZM46.01 13.9324C46.01 15.1538 45.613 15.7732 44.1075 15.7775L42.8069 15.7805V4.57878C43.3862 4.54623 43.6942 4.53759 44.0424 4.53759C45.6706 4.53759 46.01 5.20256 46.01 6.44778V13.9324Z" fill="black"/>
<path d="M78.2852 7.21158C79.2028 7.38841 80.1064 7.58477 80.9871 7.79299V25.9064C81.7977 25.7026 83.3028 25.2795 84.3065 24.9595V8.64772C85.2703 8.91676 86.1778 9.1858 87.0085 9.44182V5.94896C84.3881 4.96403 81.574 4.16245 78.2852 3.42383V7.21158Z" fill="black"/>
</g>
</svg>
