<svg width="132" height="28" viewBox="0 0 132 28" fill="none" xmlns="http://www.w3.org/2000/svg">
<path d="M22.9904 13.6609C22.8133 7.37472 17.7345 2.33398 11.4952 2.33398C9.51931 2.33398 7.65979 2.83953 6.03547 3.73009L22.9904 13.6609Z" fill="black"/>
<path d="M4.4186 4.80378C3.94263 5.18124 3.49672 5.59591 3.0851 6.04346L22.4957 17.4126C22.6701 16.8329 22.8013 16.2341 22.8853 15.6201L4.4186 4.80378Z" fill="black"/>
<path d="M19.9055 21.9577C19.4939 22.4052 19.048 22.8199 18.5721 23.1974L0.10516 12.381C0.189228 11.7669 0.32041 11.1681 0.49488 10.5885L19.9055 21.9577Z" fill="black"/>
<path d="M20.9963 20.5758L1.13049 8.94006C1.38156 8.41179 1.67072 7.90565 1.99435 7.42531L21.8601 19.061C21.609 19.5893 21.3199 20.0954 20.9963 20.5758Z" fill="black"/>
<path d="M11.4952 25.6673C13.4712 25.6673 15.3309 25.1617 16.9552 24.2711L0 14.3401C0.17704 20.6264 5.25586 25.6673 11.4952 25.6673Z" fill="black"/>
<path d="M45.7439 14.2632C45.7439 13.4173 45.278 12.8632 44.5793 12.8632C43.8369 12.8632 43.2546 13.2715 42.6141 14.3215V19.2507H36.5252C33.3663 19.2507 31.3284 17.3111 31.3284 14.1611C31.3284 11.0111 33.3663 9.07148 36.5252 9.07148H38.9708V11.0402H36.5252C34.822 11.0402 33.8031 12.1777 33.8031 14.1611C33.8031 16.1444 34.822 17.2819 36.5252 17.2819H40.3432V8.45898H42.6141V12.0319C43.2983 11.2736 44.1717 10.9673 45.0451 10.9673C46.8939 10.9673 48.0147 12.2215 48.0147 14.1173V19.2507H45.7439V14.2632Z" fill="black"/>
<path d="M53.2498 12.8632C53.8612 12.8632 54.1232 13.359 54.1232 14.1173V15.2111H56.4087V14.1173C56.4087 12.0465 55.3023 10.9673 53.7447 10.9673C52.915 10.9673 52.2162 11.3319 51.6194 12.0465L51.5757 11.1423H49.3776V19.2507H51.6485V14.1902C52.2454 13.3152 52.7403 12.8632 53.2498 12.8632Z" fill="black"/>
<path fill-rule="evenodd" clip-rule="evenodd" d="M61.1307 19.4257C58.5395 19.4257 56.9674 17.8361 56.9674 15.1965C56.9674 12.5569 58.5395 10.9673 61.1307 10.9673C63.7218 10.9673 65.2794 12.5569 65.2794 15.1965C65.2794 17.8361 63.7218 19.4257 61.1307 19.4257ZM59.2383 15.1965C59.2383 16.6986 59.9516 17.5882 61.1307 17.5882C62.2952 17.5882 63.0085 16.6986 63.0085 15.1965C63.0085 13.6944 62.2952 12.8048 61.1307 12.8048C59.9516 12.8048 59.2383 13.6944 59.2383 15.1965Z" fill="black"/>
<path d="M75.5089 12.8486C76.2804 12.8486 76.7753 13.3444 76.7753 14.1611V19.2507H79.0462V14.1611C79.0462 12.1632 77.7506 10.9673 76.1494 10.9673C74.8975 10.9673 73.9513 11.5215 73.4563 12.3819C72.9614 11.4777 72.0152 10.9673 70.9089 10.9673C69.9918 10.9673 69.1184 11.4194 68.5652 12.1194L68.5215 11.1423H66.3234V19.2507H68.5943V14.1027C69.0456 13.359 69.6278 12.8486 70.2829 12.8486C71.0399 12.8486 71.5494 13.3444 71.5494 14.1611V19.2507H73.8203V14.1319C74.2715 13.3736 74.8538 12.8486 75.5089 12.8486Z" fill="black"/>
<path fill-rule="evenodd" clip-rule="evenodd" d="M85.237 19.2507L85.1933 18.4486C84.6402 19.1486 83.7813 19.4257 82.7769 19.4257C81.2047 19.4257 80.1712 18.4194 80.1712 16.9902C80.1712 15.3132 81.4959 14.3652 83.6794 14.3652H85.1642V13.8111C85.1642 13.0382 84.6256 12.5715 83.7085 12.5715C82.806 12.5715 82.2237 13.009 82.1509 13.7236H79.9383C80.0838 12.0173 81.5395 10.9673 83.8104 10.9673C86.0231 10.9673 87.4351 12.0465 87.4351 13.9569V19.2507H85.237ZM82.3984 16.8444C82.3984 17.2819 82.7041 17.6319 83.3446 17.6319C84.1307 17.6319 84.7275 17.2382 85.1642 16.5673V15.9402L83.6357 15.9548C82.8788 15.9548 82.3984 16.2173 82.3984 16.8444Z" fill="black"/>
<path d="M89.3703 16.334C89.3703 18.0548 90.4475 19.2507 92.0924 19.2507H94.1304V17.4132H92.995C92.0051 17.4132 91.6412 17.1798 91.6412 16.334V12.9798H93.3007V11.1423H91.6412V8.45898H89.3703V11.1423H87.9874V12.9798H89.3703V16.334Z" fill="black"/>
<path fill-rule="evenodd" clip-rule="evenodd" d="M98.5904 19.4257C95.9993 19.4257 94.4271 17.8361 94.4271 15.1965C94.4271 12.5569 95.9993 10.9673 98.5904 10.9673C101.182 10.9673 102.739 12.5569 102.739 15.1965C102.739 17.8361 101.182 19.4257 98.5904 19.4257ZM96.698 15.1965C96.698 16.6986 97.4113 17.5882 98.5904 17.5882C99.755 17.5882 100.468 16.6986 100.468 15.1965C100.468 13.6944 99.755 12.8048 98.5904 12.8048C97.4113 12.8048 96.698 13.6944 96.698 15.1965Z" fill="black"/>
<path fill-rule="evenodd" clip-rule="evenodd" d="M103.405 15.1965C103.405 17.8361 104.977 19.4257 107.568 19.4257C110.159 19.4257 111.717 17.8361 111.717 15.1965C111.717 12.5569 110.159 10.9673 107.568 10.9673C104.977 10.9673 103.405 12.5569 103.405 15.1965ZM107.568 17.5882C106.389 17.5882 105.676 16.6986 105.676 15.1965C105.676 13.6944 106.389 12.8048 107.568 12.8048C108.733 12.8048 109.446 13.6944 109.446 15.1965C109.446 16.6986 108.733 17.5882 107.568 17.5882Z" fill="black"/>
<path d="M116.012 16.3486C116.041 18.259 117.41 19.4257 119.637 19.4257C121.733 19.4257 123 18.434 123 16.7861C123 14.7818 121.344 14.4679 120.029 14.2185C119.162 14.0542 118.443 13.9179 118.443 13.3444C118.443 12.8777 118.822 12.6152 119.462 12.6152C120.219 12.6152 120.714 13.009 120.758 13.7236H122.854C122.708 11.9882 121.558 10.9673 119.535 10.9673C117.541 10.9673 116.187 11.9007 116.187 13.4902C116.187 15.3934 117.82 15.7757 119.13 16.0827C120.009 16.2885 120.743 16.4604 120.743 17.034C120.743 17.5007 120.321 17.7777 119.637 17.7777C118.647 17.7777 118.065 17.2382 118.108 16.3486H116.012Z" fill="black"/>
<path d="M112.775 19.2507V8.45898H115.046V19.2507H112.775Z" fill="black"/>
</svg>
