<svg width="91" height="16" viewBox="0 0 91 16" fill="none" xmlns="http://www.w3.org/2000/svg">
<g clip-path="url(#clip0_319_149)">
<mask id="mask0_319_149" style="mask-type:luminance" maskUnits="userSpaceOnUse" x="0" y="0" width="91" height="16">
<path d="M90.945 0H0.112305V16H90.945V0Z" fill="white"/>
</mask>
<g mask="url(#mask0_319_149)">
<mask id="mask1_319_149" style="mask-type:luminance" maskUnits="userSpaceOnUse" x="0" y="0" width="91" height="16">
<path d="M90.7737 0H0.337097V16H90.7737V0Z" fill="white"/>
</mask>
<g mask="url(#mask1_319_149)">
<path d="M8.92731 0.015625L10.7762 5.62084H10.829L8.98017 0.015625H8.92731ZM16.9963 6.37085L16.9435 6.41031L12.1629 9.884L13.9853 15.5156L13.9985 15.5551L14.0382 15.5287L12.2289 9.89713L17.0095 6.41031L16.9963 6.37085ZM8.53119 12.5288L3.73727 15.9761L3.77689 16.0024L8.55748 12.5419L8.53119 12.5288Z" fill="white"/>
<path d="M35.8344 8.45183C35.8344 8.99296 35.5998 9.15403 34.7197 9.46029C34.0151 9.72403 33.4725 9.84083 33.3109 9.84083C33.0172 9.84083 32.8857 9.62136 32.8857 9.16816C32.8857 8.08656 33.1931 6.77083 34.3378 6.77083C35.3943 6.77083 35.8344 7.91136 35.8344 8.45183ZM24.3888 13.174C24.3888 13.086 24.375 13.0282 24.3312 12.984C24.2134 12.8666 23.7733 12.794 23.5531 12.5744C23.3925 12.4134 23.2889 12.1361 23.2889 11.493V9.02189C23.2889 8.83136 23.3333 8.71503 23.524 8.71503H26.0479C26.2387 8.71503 26.2825 8.83136 26.2825 9.02189V11.493C26.2825 12.1361 26.1801 12.4134 26.0184 12.5744C25.7981 12.794 25.3581 12.8666 25.2408 12.984C25.1965 13.0282 25.1822 13.086 25.1822 13.174C25.1822 13.5534 25.2408 13.9345 25.2995 13.9924C25.3581 14.0514 25.4463 14.0655 25.637 14.0655H29.76C29.9507 14.0655 30.0384 14.0514 30.0976 13.9924C30.1562 13.9345 30.2153 13.5534 30.2153 13.174C30.2153 13.086 30.2001 13.0282 30.1562 12.984C30.0537 12.8818 29.5983 12.794 29.3781 12.5744C29.2175 12.4134 29.1292 12.1066 29.1292 11.6092V4.78241C29.1292 4.4319 29.2175 4.19713 29.349 4.06663C29.5841 3.83239 30.0537 3.78821 30.1562 3.68554C30.2 3.64189 30.2153 3.55451 30.2153 3.48135C30.2153 3.21821 30.1562 2.82343 30.0976 2.76503C30.0384 2.70662 29.9802 2.69133 29.76 2.69133H25.7833C25.6222 2.69133 25.5636 2.70655 25.5197 2.75081C25.4758 2.79454 25.4315 3.10133 25.4315 3.4961C25.4315 3.56873 25.4463 3.65657 25.4758 3.68554C25.5488 3.75923 25.9159 3.87605 26.0628 4.02237C26.2239 4.18344 26.2825 4.35874 26.2825 4.85557V6.79983C26.2825 6.87296 26.2091 6.97503 26.1066 6.97503H23.4653C23.3624 6.97503 23.2889 6.87296 23.2889 6.79983V4.85557C23.2889 4.35874 23.3476 4.18344 23.5092 4.02237C23.656 3.87605 24.0227 3.75923 24.0961 3.68554C24.1256 3.65657 24.1405 3.56873 24.1405 3.4961C24.1405 3.10133 24.0961 2.79454 24.0522 2.75081C24.0084 2.70662 23.9493 2.69133 23.7881 2.69133H19.812C19.5918 2.69133 19.533 2.70662 19.4739 2.76503C19.4158 2.82343 19.3566 3.21821 19.3566 3.48135C19.3566 3.55451 19.3715 3.64189 19.4158 3.68554C19.5183 3.78821 19.9879 3.83239 20.2225 4.06663C20.3545 4.19713 20.4427 4.4319 20.4427 4.78241V11.6092C20.4427 12.1066 20.3545 12.4134 20.1934 12.5744C19.9732 12.794 19.5183 12.8818 19.4158 12.984C19.3715 13.0282 19.3566 13.086 19.3566 13.174C19.3566 13.5534 19.4158 13.9345 19.4739 13.9924C19.533 14.0514 19.5918 14.0655 19.812 14.0655H23.935C24.1256 14.0655 24.2134 14.0514 24.2725 13.9924C24.3312 13.9345 24.3888 13.5534 24.3888 13.174ZM38.0207 12.9692C38.446 12.5456 38.5496 12.2966 38.5496 12.0918C38.5496 11.8724 38.4904 11.6972 38.3145 11.5219C38.1232 11.3319 37.9627 11.3024 37.8153 11.3024C37.6098 11.3024 37.5216 11.3608 37.39 11.493C36.7445 12.1361 35.9226 12.4866 34.9247 12.4866C33.9126 12.4866 33.2813 11.8145 33.2813 11.3898C33.2813 11.2735 33.3843 11.1708 33.6479 11.0976C36.4656 10.2203 37.6393 9.63609 38.0795 9.19716C38.3287 8.96343 38.4312 8.68556 38.4312 8.43716C38.4312 7.32609 36.8179 5.35295 34.3378 5.35295C33.3109 5.35295 32.2692 5.76133 31.4915 6.53659C30.714 7.31189 30.2296 8.40763 30.2296 9.89923C30.2296 11.3319 30.6845 12.3261 31.4768 13.1156C32.2692 13.905 33.4134 14.2998 34.6611 14.2998C35.9374 14.2998 37.1407 13.8466 38.0207 12.9692ZM42.6134 5.84925C42.6134 5.65973 42.5103 5.58611 42.3492 5.58611H39.5173C39.3556 5.58611 39.2975 5.58611 39.2526 5.64505C39.1946 5.70346 39.1365 6.09816 39.1365 6.36191C39.1365 6.43445 39.1655 6.49241 39.1946 6.53659C39.2975 6.66816 39.5173 6.71183 39.7086 6.87296C39.8401 7.00443 39.8992 7.28243 39.8992 7.70609V11.6092C39.8992 12.1066 39.8401 12.4282 39.6933 12.5744C39.4729 12.794 39.1063 12.8961 39.0039 12.9982C38.9748 13.0282 38.96 13.086 38.96 13.1887C38.96 13.5687 39.0187 13.9345 39.0773 13.9924C39.1217 14.0361 39.1946 14.0655 39.3556 14.0655H43.1274C43.2885 14.0655 43.362 14.0361 43.4058 13.9924C43.4644 13.9345 43.5083 13.5687 43.5083 13.1887C43.5083 13.086 43.494 13.0282 43.4644 12.9982C43.362 12.8961 43.0244 12.794 42.8041 12.5744C42.6577 12.4282 42.6134 12.1066 42.6134 11.6092V5.84925ZM41.0434 2.16553C40.2368 2.16553 39.576 2.79453 39.576 3.58394C39.576 4.38764 40.2368 5.01657 41.0434 5.01657C41.8654 5.01657 42.5257 4.38764 42.5257 3.58394C42.5257 2.79453 41.8654 2.16553 41.0434 2.16553ZM52.4149 7.85243C52.4149 6.21505 51.5643 5.38185 50.2286 5.38185C49.5974 5.38185 48.9228 5.58611 48.2477 5.99611C48.0132 6.14243 47.9397 6.18608 47.8811 6.18608C47.6461 6.18608 47.8076 5.58611 47.3819 5.58611H44.7998C44.6382 5.58611 44.5943 5.58611 44.5357 5.64505C44.4623 5.71821 44.4036 6.09816 44.4036 6.36191C44.4036 6.43445 44.4184 6.49241 44.4623 6.53659C44.5796 6.65401 44.7998 6.69769 44.9757 6.87296C45.1083 7.00443 45.1658 7.28243 45.1658 7.70609V11.6092C45.1658 12.1066 45.122 12.4282 44.9757 12.5744C44.7703 12.7786 44.4184 12.8961 44.3154 12.9982C44.2863 13.0282 44.271 13.086 44.271 13.1887C44.271 13.5687 44.3154 13.9345 44.3746 13.9924C44.4184 14.0361 44.5062 14.0655 44.6677 14.0655H48.3656C48.5414 14.0655 48.5995 14.0361 48.6434 13.9924C48.7173 13.9192 48.7765 13.5687 48.7765 13.1887C48.7765 13.086 48.7612 13.0282 48.7316 12.9982C48.6149 12.8818 48.2773 12.7786 48.0718 12.5744C47.9249 12.4282 47.8521 12.1066 47.8521 11.6092V8.72976C47.8521 7.54556 48.5112 7.18029 48.9963 7.18029C49.4949 7.18029 49.7738 7.54556 49.7738 8.31976V12.3703C49.7738 13.4518 50.4638 14.1676 51.7108 14.1676C53.0899 14.1676 53.6765 13.174 53.6765 12.9692C53.6765 12.794 53.3981 12.443 53.2224 12.443C53.0161 12.443 52.723 12.7061 52.576 12.7061C52.4736 12.7061 52.4149 12.633 52.4149 12.3992V7.85243ZM79.6042 12.9692C80.0297 12.5456 80.1321 12.2966 80.1321 12.0918C80.1321 11.8724 80.0732 11.6972 79.8979 11.5219C79.7059 11.3319 79.5446 11.3024 79.3988 11.3024C79.1933 11.3024 79.105 11.3608 78.9725 11.493C78.3268 12.1361 77.5058 12.4866 76.5082 12.4866C75.4958 12.4866 74.8648 11.8145 74.8648 11.3898C74.8648 11.2735 74.9672 11.1708 75.2315 11.0976C78.0485 10.2203 79.2221 9.63609 79.6624 9.19716C79.912 8.96343 80.0144 8.68556 80.0144 8.43716C80.0144 7.32609 78.4004 5.35295 75.9207 5.35295C74.8936 5.35295 73.8518 5.76133 73.0736 6.53659C72.2967 7.31189 71.8123 8.40763 71.8123 9.89923C71.8123 11.3319 72.2673 12.3261 73.0595 13.1156C73.8518 13.905 74.9966 14.2998 76.2432 14.2998C77.5199 14.2998 78.7243 13.8466 79.6042 12.9692ZM77.4182 8.45183C77.4182 8.99296 77.1826 9.15403 76.3027 9.46029C75.5982 9.72403 75.0555 9.84083 74.8936 9.84083C74.6005 9.84083 74.4687 9.62136 74.4687 9.16816C74.4687 8.08656 74.7758 6.77083 75.9207 6.77083C76.9766 6.77083 77.4182 7.91136 77.4182 8.45183ZM61.571 12.9692C61.996 12.5456 62.0994 12.2966 62.0994 12.0918C62.0994 11.8724 62.0402 11.6972 61.8645 11.5219C61.6738 11.3319 61.5127 11.3024 61.3657 11.3024C61.1594 11.3024 61.0721 11.3608 60.9401 11.493C60.2943 12.1361 59.4723 12.4866 58.4746 12.4866C57.4623 12.4866 56.8311 11.8145 56.8311 11.3898C56.8311 11.2735 56.9345 11.1708 57.1984 11.0976C60.0158 10.2203 61.1895 9.63609 61.6291 9.19716C61.8791 8.96343 61.9815 8.68556 61.9815 8.43716C61.9815 7.32609 60.3681 5.35295 57.888 5.35295C56.8607 5.35295 55.8189 5.76133 55.0415 6.53659C54.2637 7.31189 53.7795 8.40763 53.7795 9.89923C53.7795 11.3319 54.2346 12.3261 55.026 13.1156C55.8189 13.905 56.9636 14.2998 58.2112 14.2998C59.4874 14.2998 60.6908 13.8466 61.571 12.9692ZM59.385 8.45183C59.385 8.99296 59.1496 9.15403 58.2698 9.46029C57.5648 9.72403 57.0223 9.84083 56.8607 9.84083C56.5671 9.84083 56.4356 9.62136 56.4356 9.16816C56.4356 8.08656 56.7438 6.77083 57.888 6.77083C58.9443 6.77083 59.385 7.91136 59.385 8.45183ZM88.759 7.85243C88.759 6.21505 87.9086 5.38185 86.5744 5.38185C85.9421 5.38185 85.2676 5.58611 84.5931 5.99611C84.3576 6.14243 84.2847 6.18608 84.2264 6.18608C83.9916 6.18608 84.1522 5.58611 83.7273 5.58611H81.1452C80.9832 5.58611 80.9391 5.58611 80.8802 5.64505C80.8066 5.71821 80.7484 6.09816 80.7484 6.36191C80.7484 6.43445 80.7631 6.49241 80.8066 6.53659C80.925 6.65401 81.1452 6.69769 81.3205 6.87296C81.4516 7.00443 81.5112 7.28243 81.5112 7.70609V11.6092C81.5112 12.1066 81.467 12.4282 81.3205 12.5744C81.115 12.7786 80.7631 12.8961 80.6614 12.9982C80.6313 13.0282 80.6159 13.086 80.6159 13.1887C80.6159 13.5687 80.6614 13.9345 80.7183 13.9924C80.7631 14.0361 80.8514 14.0655 81.0127 14.0655H84.7095C84.8862 14.0655 84.9444 14.0361 84.9892 13.9924C85.0622 13.9192 85.121 13.5687 85.121 13.1887C85.121 13.086 85.1063 13.0282 85.0769 12.9982C84.9591 12.8818 84.6219 12.7786 84.4165 12.5744C84.2693 12.4282 84.1957 12.1066 84.1957 11.6092V8.72976C84.1957 7.54556 84.8568 7.18029 85.3412 7.18029C85.8404 7.18029 86.1187 7.54556 86.1187 8.31976V12.3703C86.1187 13.4518 86.8086 14.1676 88.0551 14.1676C89.4355 14.1676 90.0217 13.174 90.0217 12.9692C90.0217 12.794 89.7427 12.443 89.5673 12.443C89.3613 12.443 89.0682 12.7061 88.9216 12.7061C88.8186 12.7061 88.759 12.633 88.759 12.3992V7.85243ZM65.7227 2.42873H62.9063C62.7297 2.42873 62.6564 2.42873 62.6127 2.50243C62.5536 2.57505 62.5094 2.94078 62.5094 3.18924C62.5094 3.27662 62.525 3.33503 62.5536 3.39343C62.6564 3.4961 63.0528 3.59816 63.229 3.77399C63.3751 3.92031 63.4493 4.21242 63.4493 5.32291V11.1708C63.4493 12.1508 63.3464 12.4576 63.229 12.5744C63.0232 12.7786 62.6715 12.8961 62.5686 12.9982C62.5395 13.0282 62.525 13.086 62.525 13.1887C62.525 13.5687 62.5686 13.9345 62.6273 13.9924C62.6715 14.0361 62.7297 14.0655 62.9209 14.0655H66.6039C66.7945 14.0655 66.8528 14.0361 66.897 13.9924C66.9557 13.9345 67.0288 13.5687 67.0288 13.1887C67.0288 13.086 67.0149 13.0282 66.9702 12.9982C66.8678 12.8961 66.5156 12.7786 66.3243 12.5744C66.1637 12.4282 66.1045 12.1066 66.1045 11.6092V11.2735C66.1045 11.0834 66.1638 11.0245 66.4865 10.703C66.6329 10.5719 66.7645 10.4698 66.8678 10.4698C67.0149 10.4698 67.1318 10.5718 68.7457 13.8171C68.8488 14.0218 68.8923 14.0655 69.1559 14.0655H71.548C71.724 14.0655 71.7835 14.0361 71.827 13.9924C71.8852 13.9345 71.9441 13.5687 71.9441 13.1887C71.9441 13.086 71.9307 13.0282 71.9 12.9982C71.7976 12.8961 71.1813 12.8229 71.0495 12.5744C68.9224 8.99296 68.8628 8.87549 68.8628 8.65656C68.8628 8.46663 69.8029 7.53136 70.5798 6.91716C71.079 6.52237 71.4015 6.78503 71.4015 6.31765C71.4015 5.77662 71.3285 5.58611 71.2255 5.58611H67.6751C67.3667 5.58611 67.3372 5.76133 67.3372 6.41978C67.3372 6.63865 67.9535 6.66816 67.9535 6.97503C67.9535 7.23816 66.4569 8.67129 66.2079 8.67129C66.1197 8.67129 66.1045 8.61289 66.1045 8.36403V2.83819C66.1045 2.60395 65.9429 2.42873 65.7227 2.42873Z" fill="white"/>
<path d="M8.51792 0.138184L10.4657 6.04045L16.7016 6.0622L11.6695 9.73183L13.5757 15.6475L8.51792 12.0132L3.46006 15.6475L5.36625 9.73183L0.334167 6.0622L6.57005 6.04045L8.51792 0.138184Z" fill="white"/>
<path d="M88.7679 2.12256C89.0135 2.12256 89.251 2.18431 89.4772 2.30782C89.704 2.43003 89.8813 2.60594 90.0104 2.83546C90.1409 3.06505 90.2058 3.30515 90.2058 3.55589C90.2058 3.80541 90.1416 4.04367 90.0145 4.27068C89.8887 4.49647 89.7113 4.67299 89.4832 4.80022C89.2563 4.92623 89.0181 4.9892 88.7679 4.9892C88.5176 4.9892 88.2781 4.92623 88.0499 4.80022C87.8231 4.67299 87.6458 4.49647 87.5186 4.27068C87.3922 4.04367 87.3293 3.80541 87.3293 3.55589C87.3293 3.30515 87.3935 3.06505 87.522 2.83546C87.6525 2.60594 87.8305 2.43003 88.0573 2.30782C88.2848 2.18431 88.5203 2.12256 88.7679 2.12256ZM88.7692 2.40327C88.5718 2.40327 88.3825 2.45255 88.2005 2.55103C88.0191 2.64959 87.8753 2.7912 87.7702 2.97585C87.6665 3.16042 87.6143 3.35382 87.6143 3.55589C87.6143 3.75673 87.6652 3.94823 87.7662 4.13037C87.8693 4.31251 88.0125 4.45472 88.1945 4.55701C88.3778 4.6593 88.5692 4.7104 88.7692 4.7104C88.972 4.7104 89.1627 4.6593 89.344 4.55701C89.5267 4.45472 89.6699 4.31251 89.7722 4.13037C89.8753 3.94823 89.9268 3.75673 89.9268 3.55589C89.9268 3.35382 89.8739 3.16042 89.7689 2.97585C89.6645 2.7912 89.5213 2.64959 89.3386 2.55103C89.1573 2.45255 88.9673 2.40327 88.7692 2.40327ZM88.1175 4.32308V2.80177H88.428C88.7184 2.80177 88.881 2.80306 88.9158 2.80557C89.0181 2.81431 89.0984 2.83493 89.1546 2.86732C89.2122 2.89851 89.2604 2.94717 89.2972 3.01327C89.3366 3.07813 89.3554 3.15053 89.3554 3.23031C89.3554 3.34013 89.3192 3.43428 89.2463 3.51291C89.1754 3.59026 89.0737 3.63825 88.9445 3.65695C88.9907 3.67445 89.0262 3.69376 89.0509 3.71498C89.0764 3.73498 89.1105 3.77361 89.1546 3.83103C89.1654 3.84594 89.2028 3.90769 89.2671 4.01621L89.4477 4.32315H89.0643L88.9365 4.07615C88.8502 3.9102 88.7793 3.80601 88.7224 3.76365C88.6662 3.72 88.5946 3.69817 88.5083 3.69817H88.428V4.32315L88.1175 4.32308ZM88.428 3.45861H88.5544C88.7331 3.45861 88.8435 3.45177 88.8863 3.43801C88.9298 3.42431 88.9639 3.40059 88.9894 3.3669C89.0141 3.33199 89.0275 3.29275 89.0275 3.24902C89.0275 3.20666 89.0141 3.16924 88.9894 3.13677C88.9653 3.10308 88.9312 3.07943 88.8863 3.06566C88.8415 3.05076 88.7298 3.04323 88.5544 3.04323H88.428V3.45861Z" fill="white"/>
</g>
</g>
</g>
<defs>
<clipPath id="clip0_319_149">
<rect width="91" height="16" fill="white"/>
</clipPath>
</defs>
</svg>
