<svg width="118" height="28" viewBox="0 0 118 28" fill="none" xmlns="http://www.w3.org/2000/svg">
<path fill-rule="evenodd" clip-rule="evenodd" d="M12 2.33398C18.6274 2.33398 24 7.55733 24 14.0007C24 20.444 18.6274 25.6673 12 25.6673C5.37258 25.6673 0 20.444 0 14.0007C0 7.55733 5.37258 2.33398 12 2.33398ZM21 14.0007C21 18.8331 16.9706 22.7507 12 22.7507V5.25065C16.9706 5.25065 21 9.16816 21 14.0007Z" fill="black"/>
<path d="M37.83 7.53223C41.043 7.53223 42.5708 9.13873 42.87 11.4697H40.5548C40.287 10.2885 39.3578 9.57973 37.8458 9.57973C35.877 9.57973 34.7115 10.8397 34.7115 13.4385C34.7115 16.431 36.0975 17.4232 37.893 17.4232C39.3893 17.4232 40.287 16.7302 40.5705 15.5332H42.87C42.5393 18.1005 40.7595 19.4707 37.83 19.4707C34.3178 19.4707 32.3333 17.4862 32.3333 13.5487C32.3333 10.068 34.05 7.53223 37.83 7.53223Z" fill="black"/>
<path d="M45.8797 15.0765C45.8797 16.9822 46.6042 17.6437 47.8327 17.6437C49.0455 17.6437 49.7542 16.9822 49.7542 15.0765C49.7542 13.2022 49.0455 12.525 47.8327 12.525C46.6042 12.525 45.8797 13.2022 45.8797 15.0765ZM43.533 15.0765C43.533 12.2415 45.0292 10.7137 47.8327 10.7137C50.6362 10.7137 52.1167 12.2415 52.1167 15.0765C52.1167 17.9272 50.6205 19.4707 47.8327 19.4707C45.0292 19.4707 43.533 17.9272 43.533 15.0765Z" fill="black"/>
<path d="M57.9318 10.7137C59.6801 10.7137 60.6881 11.4067 60.8928 12.9345C60.9401 13.3597 60.9558 13.7535 60.9558 14.4307V19.2502H58.7036V14.3992C58.7036 13.2967 58.4043 12.588 57.16 12.588C56.1363 12.5565 55.4118 13.2652 55.4118 14.8402V19.2502H53.1596V10.9342H55.2228L55.3173 12.2887C55.5851 11.0602 56.5616 10.7137 57.9318 10.7137Z" fill="black"/>
<path d="M65.1988 16.368C65.1988 17.5965 65.4666 17.7067 66.9628 17.628V19.329C66.4431 19.392 66.0021 19.4392 65.2618 19.4392C63.5923 19.4392 63.0568 18.762 62.9623 17.691C62.9308 17.2342 62.9308 16.9035 62.9308 16.431V12.7297H61.7338V10.95H62.9308V8.52448H65.1988V10.95H67.0573V12.7297H65.1988V16.368Z" fill="black"/>
<path d="M72.3918 10.7137C72.691 10.7137 72.88 10.7137 73.069 10.761V12.588C71.0688 12.3832 70.1553 13.2967 70.1553 15.6435V19.2502H67.903V10.9342H69.9663L70.0608 12.525C70.2183 11.2335 71.1318 10.7137 72.3918 10.7137Z" fill="black"/>
<path d="M77.049 10.7137C79.506 10.7137 80.4195 11.769 80.5297 13.2337C80.5612 13.659 80.577 14.0527 80.577 14.5252V19.2502H78.5452L78.4192 18.1477C78.0412 19.266 77.049 19.4707 75.8205 19.4707C74.2927 19.4707 73.0957 18.6045 73.0957 16.9822C73.0957 14.9032 74.6865 14.1472 77.8995 14.1472H78.3562V13.848C78.3562 13.029 78.0885 12.5092 76.9545 12.5092C75.9622 12.5092 75.5212 12.8557 75.4267 13.6275H73.3635C73.4265 11.832 74.529 10.7137 77.049 10.7137ZM75.285 16.7145C75.285 17.3287 75.7732 17.6752 76.545 17.6752C77.427 17.6752 78.3562 17.1712 78.3562 16.3522V15.6907C76.3717 15.5962 75.285 15.801 75.285 16.7145Z" fill="black"/>
<path d="M85.0736 10.7137C87.4361 10.7137 88.4441 11.6272 88.5543 13.3755H86.3809C86.2706 12.6037 85.7509 12.4147 85.0264 12.4147C84.3649 12.4147 83.8609 12.6667 83.8609 13.1392C83.8609 13.6432 84.2704 13.9267 85.5619 14.1315C87.7511 14.4622 88.8064 15.2182 88.8064 16.8562C88.8064 18.6202 87.1999 19.4707 85.1996 19.4707C82.8371 19.4707 81.6244 18.636 81.4039 16.746H83.6089C83.7506 17.502 84.2231 17.754 85.2626 17.754C86.0816 17.754 86.5699 17.4862 86.5699 17.0452C86.5699 16.494 86.0029 16.179 84.7744 15.99C82.5694 15.6277 81.6244 14.9662 81.6244 13.281C81.6244 11.7532 82.9789 10.7137 85.0736 10.7137Z" fill="black"/>
<path d="M92.6094 16.368C92.6094 17.5965 92.8771 17.7067 94.3734 17.628V19.329C93.8536 19.392 93.4126 19.4392 92.6724 19.4392C91.0029 19.4392 90.4674 18.762 90.3729 17.691C90.3414 17.2342 90.3414 16.9035 90.3414 16.431V12.7297H89.1444V10.95H90.3414V8.52448H92.6094V10.95H94.4679V12.7297H92.6094V16.368Z" fill="black"/>
<path d="M101.674 7.75273L105.738 19.2502H103.297L102.336 16.4782H98.0991L97.1226 19.2502H94.7128L98.8551 7.75273H101.674ZM98.6503 14.5252H101.816L100.257 9.91048L98.6503 14.5252Z" fill="black"/>
<path d="M108.957 7.75273V19.2502H106.657V7.75273H108.957Z" fill="black"/>
</svg>
