<svg width="103" height="28" viewBox="0 0 103 28" fill="none" xmlns="http://www.w3.org/2000/svg">
<path d="M18.3988 15.166C18.3988 18.3877 15.8245 20.9993 12.6488 20.9993C9.47319 20.9993 6.89883 18.3877 6.89883 15.166H2.29883C2.29883 20.965 6.93268 25.666 12.6488 25.666C18.365 25.666 22.9988 20.965 22.9988 15.166C22.9988 9.36703 18.365 4.66602 12.6488 4.66602V9.33268C15.8245 9.33268 18.3988 11.9444 18.3988 15.166Z" fill="black"/>
<path opacity="0.5" d="M5.75 2.33398C5.75 5.55565 3.17564 8.16732 0 8.16732V12.834C5.71615 12.834 10.35 8.13297 10.35 2.33398H5.75Z" fill="black"/>
<path d="M31.3333 8.06738H39.3658V10.3196H34.0895V12.5246H39.1768V14.7611H34.0895V16.9976H39.4918V19.2499H31.3333V8.06738Z" fill="black"/>
<path d="M40.2309 13.5326C40.5459 11.6899 41.9319 10.7134 44.2629 10.7134C46.9404 10.7134 48.2634 11.9419 48.2634 14.3831V16.7614C48.2634 17.3756 48.5154 17.4701 48.7989 17.4701H49.0824V19.2499L48.7044 19.2814C48.2634 19.2971 46.3419 19.5964 46.0584 17.9899C45.6174 18.8876 44.6724 19.4389 43.0816 19.4389C41.3806 19.4389 40.0891 18.5254 40.0891 17.0449C40.0891 15.5486 41.2074 14.9186 43.2706 14.5091L45.5071 14.0524C45.5071 12.9026 45.1134 12.3671 44.2471 12.3671C43.5226 12.3671 43.0816 12.7924 42.9399 13.6429L40.2309 13.5326ZM42.8769 16.9346C42.8769 17.4229 43.2706 17.7694 44.0109 17.7694C44.9244 17.7694 45.5544 17.0764 45.5544 15.7061V15.6274L44.3731 15.8479C43.4754 16.0054 42.8769 16.1944 42.8769 16.9346Z" fill="black"/>
<path d="M54.752 13.6586C54.626 12.9184 54.0433 12.4774 53.4133 12.4774C52.7518 12.4774 52.2793 12.8239 52.3108 13.3751C52.3423 13.9106 52.9408 14.1626 53.681 14.2886C56.3428 14.6824 57.4768 15.3596 57.4768 16.9189C57.4768 18.5884 55.9333 19.4389 53.6338 19.4389C51.035 19.4389 49.46 18.3836 49.3183 16.5881L52.043 16.4779C52.1848 17.2181 52.7045 17.6276 53.5393 17.6276C54.1063 17.6276 54.7205 17.4071 54.689 16.8874C54.6733 16.2731 54.0118 16.1156 53.24 15.9739C50.6728 15.5014 49.523 14.8714 49.523 13.3751C49.523 11.6899 50.9405 10.6976 53.492 10.6976C55.7285 10.6976 57.1775 11.7529 57.4453 13.5641L54.752 13.6586Z" fill="black"/>
<path d="M57.296 10.9024H59.816L61.769 16.4306L63.6275 10.9024H66.1475L62.903 19.9586C62.4935 21.1084 61.7218 21.6124 60.4303 21.6124H58.7923V19.6909H59.879C60.4145 19.6909 60.6823 19.5491 60.8398 19.1554L61.013 18.7301H60.2885L57.296 10.9024Z" fill="black"/>
<path d="M75.4833 8.06738V10.3196H72.1758V19.2499H69.4353V10.3196H66.1278V8.06738H75.4833Z" fill="black"/>
<path d="M75.5478 13.5326C75.8628 11.6899 77.2488 10.7134 79.5798 10.7134C82.2573 10.7134 83.5803 11.9419 83.5803 14.3831V16.7614C83.5803 17.3756 83.8323 17.4701 84.1158 17.4701H84.3993V19.2499L84.0213 19.2814C83.5803 19.2971 81.6588 19.5964 81.3753 17.9899C80.9343 18.8876 79.9893 19.4389 78.3986 19.4389C76.6976 19.4389 75.4061 18.5254 75.4061 17.0449C75.4061 15.5486 76.5243 14.9186 78.5876 14.5091L80.8241 14.0524C80.8241 12.9026 80.4303 12.3671 79.5641 12.3671C78.8396 12.3671 78.3986 12.7924 78.2568 13.6429L75.5478 13.5326ZM78.1938 16.9346C78.1938 17.4229 78.5876 17.7694 79.3278 17.7694C80.2413 17.7694 80.8713 17.0764 80.8713 15.7061V15.6274L79.6901 15.8479C78.7923 16.0054 78.1938 16.1944 78.1938 16.9346Z" fill="black"/>
<path d="M91.0429 10.8866H93.9724L91.0271 15.0131L94.0511 19.2499H91.1216L89.4836 16.6984L87.8299 19.2499H84.9004L87.9244 15.0131L84.9791 10.8866H87.8929L89.4836 13.3121L91.0429 10.8866Z" fill="black"/>
</svg>
