<svg width="94" height="28" viewBox="0 0 94 28" fill="none" xmlns="http://www.w3.org/2000/svg">
<path d="M17.1926 23.1008C16.8303 23.905 16.3799 24.6926 15.8398 25.3741C20.3202 23.8658 23.6184 19.7909 23.9815 14.9H22.3866C20.4403 14.9 18.8768 16.4516 18.5604 18.3697C18.2688 20.1378 17.8022 21.7478 17.1926 23.1008Z" fill="black"/>
<path d="M13.665 14.9C15.7028 14.9 17.3697 16.5979 16.9954 18.5986C16.1825 22.944 14.252 26 12 26C9.1504 26 6.8157 21.1071 6.60834 14.9H13.665Z" fill="black"/>
<path d="M18.6019 9.8901C18.8999 11.8261 20.4705 13.4 22.4317 13.4H24C23.7523 8.37628 20.4115 4.1649 15.8398 2.6259C16.3799 3.30735 16.8303 4.09496 17.1926 4.89917C17.832 6.3182 18.314 8.01985 18.6019 9.8901Z" fill="black"/>
<path d="M17.0556 9.73743C17.3965 11.728 15.7367 13.4 13.7148 13.4H6.6C6.74085 7.05133 9.10464 2 12 2C14.3096 2 16.281 5.21433 17.0556 9.73743Z" fill="black"/>
<path d="M5.09781 13.4C5.16605 10.155 5.78588 7.16636 6.80736 4.89917C7.16971 4.09496 7.62014 3.30735 8.16016 2.6259C3.58851 4.1649 0.24768 8.37628 0 13.4H5.09781Z" fill="black"/>
<path d="M0.0185255 14.9C0.381611 19.7909 3.67981 23.8658 8.16016 25.3741C7.62014 24.6926 7.16971 23.905 6.80736 23.1008C5.81743 20.9037 5.20473 18.029 5.10571 14.9H0.0185255Z" fill="black"/>
<path d="M31.3333 19.2493V7.76758H40.1288V9.95683H33.9323V12.3981H39.3206V14.4456H33.9323V17.0601H40.1288V19.2493H31.3333Z" fill="black"/>
<path d="M44.4779 19.4068C43.5376 19.4068 42.835 19.1023 42.3701 18.4933C41.9053 17.8738 41.6728 17.0601 41.6728 16.0521V10.7916H44.0976V15.7056C44.0976 16.3776 44.2296 16.8396 44.4938 17.0916C44.7685 17.3331 45.133 17.4538 45.5873 17.4538C46.1261 17.4538 46.5328 17.2753 46.8075 16.9183C47.0822 16.5613 47.2196 16.0941 47.2196 15.5166V10.7916H49.6443V19.2493H47.3781L47.2037 17.8633H47.077C46.8868 18.3253 46.5593 18.6981 46.0944 18.9816C45.6401 19.2651 45.1013 19.4068 44.4779 19.4068Z" fill="black"/>
<path d="M51.4638 19.2493V10.7916H53.7301L53.9044 12.1933H54.047C54.2372 11.6683 54.4908 11.2851 54.8077 11.0436C55.1247 10.7916 55.579 10.6656 56.1706 10.6656H56.9313V13.1226H55.8378C55.1405 13.1226 54.644 13.3011 54.3481 13.6581C54.0523 14.0046 53.9044 14.4718 53.9044 15.0598V19.2493H51.4638Z" fill="black"/>
<path d="M61.5993 19.4068C60.2152 19.4068 59.1851 19.0131 58.5089 18.2256C57.8328 17.4381 57.4947 16.3881 57.4947 15.0756V15.0283C57.4947 13.5373 57.8697 12.4348 58.6199 11.7208C59.37 10.9963 60.3631 10.6341 61.5993 10.6341C62.846 10.6341 63.8444 10.9963 64.5945 11.7208C65.3552 12.4348 65.7355 13.5373 65.7355 15.0283V15.0756C65.725 16.3881 65.3816 17.4381 64.7054 18.2256C64.0293 19.0131 62.9939 19.4068 61.5993 19.4068ZM61.5993 17.4538C62.1381 17.4538 62.5448 17.3068 62.8195 17.0128C63.1048 16.7188 63.2474 16.3146 63.2474 15.8001V14.2881C63.2474 13.7631 63.0995 13.3536 62.8037 13.0596C62.5184 12.7551 62.117 12.6028 61.5993 12.6028C61.0921 12.6028 60.6906 12.7551 60.3948 13.0596C60.1096 13.3536 59.9669 13.7631 59.9669 14.2881V15.8001C59.9669 16.3146 60.1043 16.7188 60.379 17.0128C60.6642 17.3068 61.071 17.4538 61.5993 17.4538Z" fill="black"/>
<path d="M67.0647 21.8796V10.7916H69.3784L69.5052 12.0358H69.6161C69.8275 11.5948 70.155 11.2536 70.5987 11.0121C71.053 10.7601 71.5602 10.6341 72.1201 10.6341C73.2612 10.6341 74.0905 11.0173 74.6082 11.7838C75.1259 12.5503 75.3848 13.5741 75.3848 14.8551V15.2173C75.3848 16.6768 75.0889 17.7426 74.4973 18.4146C73.9162 19.0761 73.1238 19.4068 72.1201 19.4068C71.5707 19.4068 71.0689 19.2861 70.6146 19.0446C70.1603 18.7926 69.8275 18.4461 69.6161 18.0051H69.5052V21.8796H67.0647ZM71.1375 17.4381C71.6658 17.4381 72.0726 17.2911 72.3578 16.9971C72.6431 16.7031 72.7857 16.2883 72.7857 15.7528V14.3038C72.7857 13.7683 72.6431 13.3536 72.3578 13.0596C72.0726 12.7551 71.6658 12.6028 71.1375 12.6028C70.641 12.6028 70.2448 12.7551 69.949 13.0596C69.6637 13.3641 69.5211 13.7893 69.5211 14.3353V15.7213C69.5211 16.2673 69.6637 16.6926 69.949 16.9971C70.2448 17.2911 70.641 17.4381 71.1375 17.4381Z" fill="black"/>
<path d="M78.7906 19.4068C78.0087 19.4068 77.3748 19.2021 76.8888 18.7926C76.4028 18.3726 76.1598 17.8161 76.1598 17.1231V17.0916C76.1598 16.2831 76.4187 15.6583 76.9364 15.2173C77.4541 14.7763 78.1514 14.5033 79.0283 14.3983L81.4054 14.0833V13.7526C81.4054 12.9546 80.9194 12.5556 79.9474 12.5556C79.4826 12.5556 79.1128 12.6448 78.8381 12.8233C78.574 13.0018 78.4419 13.2591 78.4419 13.5951H76.2391C76.2391 12.6606 76.5824 11.9361 77.2692 11.4216C77.9559 10.8966 78.9226 10.6341 80.1693 10.6341C81.3104 10.6341 82.2031 10.8756 82.8476 11.3586C83.5026 11.8416 83.8302 12.6081 83.8302 13.6581V17.5483H84.9395V19.2493H82.0235L81.8333 17.9421H81.659C81.4477 18.4041 81.0938 18.7663 80.5972 19.0288C80.1112 19.2808 79.509 19.4068 78.7906 19.4068ZM79.8365 17.6743C80.2591 17.6743 80.6131 17.5746 80.8983 17.3751C81.1941 17.1651 81.3632 16.8973 81.4054 16.5718V15.4378L79.8048 15.6741C79.4456 15.7161 79.1551 15.8106 78.9332 15.9576C78.7113 16.0941 78.6004 16.3041 78.6004 16.5876V16.7923C78.6004 17.0548 78.706 17.2701 78.9173 17.4381C79.1392 17.5956 79.4456 17.6743 79.8365 17.6743Z" fill="black"/>
</svg>
