<svg width="128" height="28" viewBox="0 0 128 28" fill="none" xmlns="http://www.w3.org/2000/svg">
<path d="M7.875 2.8125C7.875 7.23941 4.34924 10.8281 0 10.8281V16.1719H7.875V24.1875H13.125C13.125 19.7606 16.6508 16.1719 21 16.1719V10.8281H13.125V2.8125H7.875Z" fill="black"/>
<path d="M33.6167 19.4604C32.3801 19.4604 31.3184 19.1979 30.4317 18.6729C29.5451 18.1362 28.8626 17.3954 28.3842 16.4504C27.9059 15.4937 27.6667 14.3912 27.6667 13.1429C27.6667 11.8946 27.9059 10.7921 28.3842 9.83539C28.8626 8.87872 29.5451 8.13206 30.4317 7.59539C31.3184 7.05872 32.3801 6.79039 33.6167 6.79039C35.0867 6.79039 36.2884 7.15789 37.2217 7.89289C38.1667 8.61622 38.7559 9.63706 38.9892 10.9554H36.5217C36.3701 10.2904 36.0434 9.77122 35.5417 9.39789C35.0517 9.01289 34.3984 8.82039 33.5817 8.82039C32.4501 8.82039 31.5634 9.20539 30.9217 9.97539C30.2801 10.7454 29.9592 11.8012 29.9592 13.1429C29.9592 14.4846 30.2801 15.5404 30.9217 16.3104C31.5634 17.0687 32.4501 17.4479 33.5817 17.4479C34.3984 17.4479 35.0517 17.2729 35.5417 16.9229C36.0434 16.5612 36.3701 16.0654 36.5217 15.4354H38.9892C38.7559 16.6954 38.1667 17.6812 37.2217 18.3929C36.2884 19.1046 35.0867 19.4604 33.6167 19.4604Z" fill="black"/>
<path d="M39.8696 19.2504V6.65039H42.1096V19.2504H39.8696Z" fill="black"/>
<path d="M47.3384 19.4604C46.5217 19.4604 45.7925 19.2621 45.1509 18.8654C44.5092 18.4687 44.0017 17.9262 43.6284 17.2379C43.255 16.5496 43.0684 15.7679 43.0684 14.8929C43.0684 14.0179 43.255 13.2421 43.6284 12.5654C44.0017 11.8771 44.5092 11.3404 45.1509 10.9554C45.7925 10.5587 46.5217 10.3604 47.3384 10.3604C47.9917 10.3604 48.5634 10.4829 49.0534 10.7279C49.5434 10.9729 49.94 11.3171 50.2434 11.7604L50.3659 10.5704H52.4834V19.2504H50.3834L50.2434 18.0079C49.9634 18.3929 49.59 18.7312 49.1234 19.0229C48.6684 19.3146 48.0734 19.4604 47.3384 19.4604ZM47.8109 17.5004C48.5342 17.5004 49.1234 17.2612 49.5784 16.7829C50.045 16.2929 50.2784 15.6687 50.2784 14.9104C50.2784 14.1521 50.045 13.5337 49.5784 13.0554C49.1234 12.5654 48.5342 12.3204 47.8109 12.3204C47.0992 12.3204 46.51 12.5596 46.0434 13.0379C45.5767 13.5162 45.3434 14.1346 45.3434 14.8929C45.3434 15.6512 45.5767 16.2754 46.0434 16.7654C46.51 17.2554 47.0992 17.5004 47.8109 17.5004Z" fill="black"/>
<path d="M53.7144 19.2504V10.5704H55.6919L55.8669 12.0404C56.1352 11.5271 56.5202 11.1187 57.0219 10.8154C57.5352 10.5121 58.1361 10.3604 58.8244 10.3604C59.8977 10.3604 60.7319 10.6987 61.3269 11.3754C61.9219 12.0521 62.2194 13.0437 62.2194 14.3504V19.2504H59.9794V14.5604C59.9794 13.8137 59.8277 13.2421 59.5244 12.8454C59.2211 12.4487 58.7486 12.2504 58.1069 12.2504C57.4769 12.2504 56.9577 12.4721 56.5494 12.9154C56.1527 13.3587 55.9544 13.9771 55.9544 14.7704V19.2504H53.7144Z" fill="black"/>
<path d="M67.3014 19.4604C66.4847 19.4604 65.7555 19.2621 65.1139 18.8654C64.4722 18.4687 63.9647 17.9262 63.5914 17.2379C63.218 16.5496 63.0314 15.7679 63.0314 14.8929C63.0314 14.0179 63.218 13.2421 63.5914 12.5654C63.9647 11.8771 64.4722 11.3404 65.1139 10.9554C65.7555 10.5587 66.4847 10.3604 67.3014 10.3604C67.9547 10.3604 68.5264 10.4829 69.0164 10.7279C69.5064 10.9729 69.903 11.3171 70.2064 11.7604V6.65039H72.4464V19.2504H70.4514L70.2064 18.0079C69.9264 18.3929 69.553 18.7312 69.0864 19.0229C68.6314 19.3146 68.0364 19.4604 67.3014 19.4604ZM67.7739 17.5004C68.4972 17.5004 69.0864 17.2612 69.5414 16.7829C70.008 16.2929 70.2414 15.6687 70.2414 14.9104C70.2414 14.1521 70.008 13.5337 69.5414 13.0554C69.0864 12.5654 68.4972 12.3204 67.7739 12.3204C67.0622 12.3204 66.473 12.5596 66.0064 13.0379C65.5397 13.5162 65.3064 14.1346 65.3064 14.8929C65.3064 15.6512 65.5397 16.2754 66.0064 16.7654C66.473 17.2554 67.0622 17.5004 67.7739 17.5004Z" fill="black"/>
<path d="M77.8949 19.4604C77.0199 19.4604 76.244 19.2737 75.5674 18.9004C74.8907 18.5271 74.3599 18.0021 73.9749 17.3254C73.5899 16.6487 73.3974 15.8671 73.3974 14.9804C73.3974 14.0821 73.584 13.2829 73.9574 12.5829C74.3424 11.8829 74.8674 11.3404 75.5324 10.9554C76.209 10.5587 77.0024 10.3604 77.9124 10.3604C78.764 10.3604 79.5165 10.5471 80.1699 10.9204C80.8232 11.2937 81.3307 11.8071 81.6924 12.4604C82.0657 13.1021 82.2524 13.8196 82.2524 14.6129C82.2524 14.7412 82.2465 14.8754 82.2349 15.0154C82.2349 15.1554 82.229 15.3012 82.2174 15.4529H75.6199C75.6665 16.1296 75.8999 16.6604 76.3199 17.0454C76.7515 17.4304 77.2707 17.6229 77.8774 17.6229C78.3324 17.6229 78.7115 17.5237 79.0149 17.3254C79.3299 17.1154 79.5632 16.8471 79.7149 16.5204H81.9899C81.8265 17.0687 81.5524 17.5704 81.1674 18.0254C80.794 18.4687 80.3274 18.8187 79.7674 19.0754C79.219 19.3321 78.5949 19.4604 77.8949 19.4604ZM77.9124 12.1804C77.364 12.1804 76.8799 12.3379 76.4599 12.6529C76.0399 12.9562 75.7715 13.4229 75.6549 14.0529H79.9774C79.9424 13.4812 79.7324 13.0262 79.3474 12.6879C78.9624 12.3496 78.484 12.1804 77.9124 12.1804Z" fill="black"/>
<path d="M86.6739 19.4604C85.9039 19.4604 85.2272 19.3379 84.6439 19.0929C84.0605 18.8362 83.5939 18.4862 83.2439 18.0429C82.8939 17.5996 82.6839 17.0862 82.6139 16.5029H84.8714C84.9414 16.8412 85.128 17.1329 85.4314 17.3779C85.7464 17.6112 86.1489 17.7279 86.6389 17.7279C87.1289 17.7279 87.4847 17.6287 87.7064 17.4304C87.9397 17.2321 88.0564 17.0046 88.0564 16.7479C88.0564 16.3746 87.893 16.1237 87.5664 15.9954C87.2397 15.8554 86.7847 15.7212 86.2014 15.5929C85.828 15.5112 85.4489 15.4121 85.0639 15.2954C84.6789 15.1787 84.323 15.0329 83.9964 14.8579C83.6814 14.6712 83.4247 14.4379 83.2264 14.1579C83.028 13.8662 82.9289 13.5104 82.9289 13.0904C82.9289 12.3204 83.2322 11.6729 83.8389 11.1479C84.4572 10.6229 85.3205 10.3604 86.4289 10.3604C87.4555 10.3604 88.2722 10.5996 88.8789 11.0779C89.4972 11.5562 89.8647 12.2154 89.9814 13.0554H87.8639C87.7355 12.4137 87.2514 12.0929 86.4114 12.0929C85.9914 12.0929 85.6647 12.1746 85.4314 12.3379C85.2097 12.5012 85.0989 12.7054 85.0989 12.9504C85.0989 13.2071 85.268 13.4112 85.6064 13.5629C85.9447 13.7146 86.3939 13.8546 86.9539 13.9829C87.5605 14.1229 88.1147 14.2804 88.6164 14.4554C89.1297 14.6187 89.538 14.8696 89.8414 15.2079C90.1447 15.5346 90.2964 16.0071 90.2964 16.6254C90.308 17.1621 90.168 17.6462 89.8764 18.0779C89.5847 18.5096 89.1647 18.8479 88.6164 19.0929C88.068 19.3379 87.4205 19.4604 86.6739 19.4604Z" fill="black"/>
<path d="M94.8248 19.2504C93.9148 19.2504 93.1856 19.0287 92.6373 18.5854C92.0889 18.1421 91.8148 17.3546 91.8148 16.2229V12.4429H90.3273V10.5704H91.8148L92.0773 8.24289H94.0548V10.5704H96.3997V12.4429H94.8881C94.4278 12.4429 94.0548 12.816 94.0548 13.2762V16.2404C94.0548 16.6604 94.1423 16.9521 94.3173 17.1154C94.5039 17.2671 94.8189 17.3429 95.2623 17.3429H96.3473V19.2504H94.8248Z" fill="black"/>
<path d="M98.4805 9.22289C98.0721 9.22289 97.7338 9.10039 97.4655 8.85539C97.2088 8.61039 97.0805 8.30122 97.0805 7.92789C97.0805 7.55456 97.2088 7.25122 97.4655 7.01789C97.7338 6.77289 98.0721 6.65039 98.4805 6.65039C98.8888 6.65039 99.2213 6.77289 99.478 7.01789C99.7463 7.25122 99.8805 7.55456 99.8805 7.92789C99.8805 8.30122 99.7463 8.61039 99.478 8.85539C99.2213 9.10039 98.8888 9.22289 98.4805 9.22289ZM97.3605 19.2504V10.5704H99.6005V19.2504H97.3605Z" fill="black"/>
<path d="M100.889 19.2504V10.5704H102.866L103.041 12.0404C103.309 11.5271 103.694 11.1187 104.196 10.8154C104.709 10.5121 105.31 10.3604 105.999 10.3604C107.072 10.3604 107.906 10.6987 108.501 11.3754C109.096 12.0521 109.393 13.0437 109.393 14.3504V19.2504H107.153V14.5604C107.153 13.8137 107.002 13.2421 106.699 12.8454C106.395 12.4487 105.923 12.2504 105.281 12.2504C104.651 12.2504 104.132 12.4721 103.724 12.9154C103.327 13.3587 103.129 13.9771 103.129 14.7704V19.2504H100.889Z" fill="black"/>
<path d="M114.703 19.4604C113.828 19.4604 113.052 19.2737 112.375 18.9004C111.699 18.5271 111.168 18.0021 110.783 17.3254C110.398 16.6487 110.205 15.8671 110.205 14.9804C110.205 14.0821 110.392 13.2829 110.765 12.5829C111.15 11.8829 111.675 11.3404 112.34 10.9554C113.017 10.5587 113.81 10.3604 114.72 10.3604C115.572 10.3604 116.325 10.5471 116.978 10.9204C117.631 11.2937 118.139 11.8071 118.5 12.4604C118.874 13.1021 119.06 13.8196 119.06 14.6129C119.06 14.7412 119.055 14.8754 119.043 15.0154C119.043 15.1554 119.037 15.3012 119.025 15.4529H112.428C112.475 16.1296 112.708 16.6604 113.128 17.0454C113.56 17.4304 114.079 17.6229 114.685 17.6229C115.14 17.6229 115.52 17.5237 115.823 17.3254C116.138 17.1154 116.371 16.8471 116.523 16.5204H118.798C118.635 17.0687 118.36 17.5704 117.975 18.0254C117.602 18.4687 117.135 18.8187 116.575 19.0754C116.027 19.3321 115.403 19.4604 114.703 19.4604ZM114.72 12.1804C114.172 12.1804 113.688 12.3379 113.268 12.6529C112.848 12.9562 112.58 13.4229 112.463 14.0529H116.785C116.75 13.4812 116.54 13.0262 116.155 12.6879C115.77 12.3496 115.292 12.1804 114.72 12.1804Z" fill="black"/>
</svg>
