<svg width="101" height="28" viewBox="0 0 101 28" fill="none" xmlns="http://www.w3.org/2000/svg">
<path fill-rule="evenodd" clip-rule="evenodd" d="M11.5 25.6673C17.8513 25.6673 23 20.444 23 14.0006C23 7.55734 17.8513 2.33398 11.5 2.33398C5.14871 2.33398 0 7.55734 0 14.0006C0 20.444 5.14871 25.6673 11.5 25.6673ZM15.0876 7.76881C15.2622 7.13952 14.6603 6.7674 14.1105 7.16475L6.43604 12.7112C5.83982 13.1421 5.93361 14.0006 6.57691 14.0006H8.59781V13.9848H12.5364L9.3272 15.1335L7.91241 20.2325C7.73778 20.8618 8.33969 21.2339 8.88951 20.8366L16.564 15.2901C17.1602 14.8592 17.0663 14.0006 16.4231 14.0006H13.3585L15.0876 7.76881Z" fill="black"/>
<path d="M77.2265 9.84189C77.4867 10.0814 77.8012 10.2012 78.1699 10.2012C78.5495 10.2012 78.864 10.0814 79.1134 9.84189C79.3628 9.60233 79.4875 9.28656 79.4875 8.89456C79.4875 8.50256 79.3628 8.18678 79.1134 7.94722C78.864 7.70767 78.5495 7.58789 78.1699 7.58789C77.8012 7.58789 77.4867 7.70767 77.2265 7.94722C76.9771 8.18678 76.8523 8.50256 76.8523 8.89456C76.8523 9.28656 76.9771 9.60233 77.2265 9.84189Z" fill="black"/>
<path fill-rule="evenodd" clip-rule="evenodd" d="M38.2954 18.8906C37.7857 19.1301 37.1893 19.2499 36.5061 19.2499H31.3333V7.81656H36.441C37.135 7.81656 37.7369 7.93634 38.2466 8.17589C38.7671 8.40456 39.1684 8.73667 39.4503 9.17222C39.7431 9.59689 39.8895 10.1087 39.8895 10.7076V10.8709C39.8895 11.3936 39.7919 11.8237 39.5967 12.1612C39.4015 12.4879 39.1684 12.7438 38.8973 12.9289C38.637 13.1031 38.3876 13.2283 38.149 13.3046V13.5986C38.3876 13.6639 38.6478 13.7891 38.9298 13.9742C39.2117 14.1484 39.4503 14.4043 39.6455 14.7419C39.8516 15.0794 39.9546 15.5204 39.9546 16.0649V16.2282C39.9546 16.8598 39.8082 17.4042 39.5154 17.8616C39.2226 18.308 38.8159 18.651 38.2954 18.8906ZM37.3845 14.8236C37.1025 14.5949 36.7229 14.4806 36.2458 14.4806H33.4805V17.2899H36.2458C36.7121 17.2899 37.0862 17.1756 37.3682 16.9469C37.661 16.7182 37.8074 16.3916 37.8074 15.9669V15.8036C37.8074 15.3789 37.6664 15.0522 37.3845 14.8236ZM37.3194 10.1196C37.0374 9.89089 36.6687 9.77656 36.2133 9.77656H33.4805V12.5206H36.2133C36.6579 12.5206 37.0212 12.4062 37.3031 12.1776C37.5959 11.9489 37.7423 11.6331 37.7423 11.2302V11.0669C37.7423 10.6531 37.6013 10.3373 37.3194 10.1196Z" fill="black"/>
<path fill-rule="evenodd" clip-rule="evenodd" d="M44.7971 19.4786C43.9946 19.4786 43.2735 19.3152 42.6336 18.9886C41.9938 18.6619 41.4895 18.1882 41.1208 17.5676C40.7521 16.9469 40.5678 16.201 40.5678 15.3299V15.0686C40.5678 14.1974 40.7521 13.4516 41.1208 12.8309C41.4895 12.2102 41.9938 11.7366 42.6336 11.4099C43.2735 11.0832 43.9946 10.9199 44.7971 10.9199C45.5996 10.9199 46.3207 11.0832 46.9606 11.4099C47.6004 11.7366 48.1047 12.2102 48.4734 12.8309C48.8421 13.4516 49.0264 14.1974 49.0264 15.0686V15.3299C49.0264 16.201 48.8421 16.9469 48.4734 17.5676C48.1047 18.1882 47.6004 18.6619 46.9606 18.9886C46.3207 19.3152 45.5996 19.4786 44.7971 19.4786ZM44.7971 17.6492C45.4261 17.6492 45.9466 17.4478 46.3587 17.0449C46.7708 16.6311 46.9768 16.0431 46.9768 15.2809V15.1176C46.9768 14.3553 46.7708 13.7728 46.3587 13.3699C45.9575 12.9561 45.4369 12.7492 44.7971 12.7492C44.1681 12.7492 43.6476 12.9561 43.2355 13.3699C42.8234 13.7728 42.6174 14.3553 42.6174 15.1176V15.2809C42.6174 16.0431 42.8234 16.6311 43.2355 17.0449C43.6476 17.4478 44.1681 17.6492 44.7971 17.6492Z" fill="black"/>
<path d="M56.7032 19.2499C56.1718 19.2499 55.738 19.0866 55.4018 18.7599C55.0765 18.4223 54.9138 17.9759 54.9138 17.4206V12.8472H52.8968V11.1486H54.9138V8.63322H56.9634V11.1486H59.1757V12.8472H56.9634V17.0612C56.9634 17.3879 57.1152 17.5512 57.4189 17.5512H58.9805V19.2499H56.7032Z" fill="black"/>
<path d="M60.9822 18.7926C61.6545 19.2499 62.5167 19.4786 63.5686 19.4786C64.5988 19.4786 65.4176 19.2499 66.0248 18.7926C66.643 18.3243 66.952 17.6656 66.952 16.8162C66.952 16.25 66.8056 15.8036 66.5128 15.4769C66.2309 15.1393 65.8405 14.8834 65.3416 14.7092C64.8536 14.5241 64.306 14.3771 63.6987 14.2682L63.2432 14.1866C62.8745 14.1212 62.5817 14.0287 62.3648 13.9089C62.148 13.7782 62.0395 13.5822 62.0395 13.3209C62.0395 13.0813 62.1425 12.8962 62.3486 12.7656C62.5546 12.624 62.8528 12.5532 63.2432 12.5532C63.6336 12.5532 63.959 12.6403 64.2192 12.8146C64.4904 12.9888 64.6693 13.2828 64.756 13.6966L66.6592 13.1086C66.4749 12.4552 66.0845 11.9271 65.488 11.5242C64.8916 11.1213 64.1433 10.9199 63.2432 10.9199C62.2889 10.9199 61.519 11.1377 60.9334 11.5732C60.3478 11.9979 60.055 12.6131 60.055 13.4189C60.055 13.9524 60.196 14.388 60.4779 14.7256C60.7599 15.0631 61.134 15.3299 61.6003 15.5259C62.0666 15.711 62.5817 15.858 63.1456 15.9669L63.6011 16.0486C64.0783 16.1357 64.4253 16.25 64.6422 16.3916C64.8591 16.5222 64.9675 16.7128 64.9675 16.9632C64.9675 17.2137 64.8536 17.426 64.6259 17.6002C64.3982 17.7636 64.0457 17.8452 63.5686 17.8452C63.2541 17.8452 62.9613 17.8017 62.6902 17.7146C62.4299 17.6166 62.2076 17.4587 62.0232 17.2409C61.8497 17.0231 61.725 16.7237 61.6491 16.3426L59.7622 16.8326C59.9032 17.6819 60.3098 18.3352 60.9822 18.7926Z" fill="black"/>
<path d="M70.5049 13.3862C70.1579 13.8 69.9844 14.3826 69.9844 15.1339V19.2499H67.9348V7.81656H69.9844V12.1449H70.2772C70.3639 11.9707 70.4995 11.7964 70.6838 11.6222C70.8682 11.448 71.1122 11.3064 71.4158 11.1976C71.7303 11.0778 72.1262 11.0179 72.6033 11.0179C73.2323 11.0179 73.7799 11.1649 74.2462 11.4589C74.7234 11.742 75.0921 12.1394 75.3524 12.6512C75.6126 13.1521 75.7428 13.7401 75.7428 14.4152V19.2499H73.6932V14.5786C73.6932 13.9688 73.5414 13.5114 73.2377 13.2066C72.9449 12.9017 72.522 12.7492 71.9689 12.7492C71.3399 12.7492 70.8519 12.9616 70.5049 13.3862Z" fill="black"/>
<path d="M88.5547 18.7599C88.2294 18.4223 88.0667 17.9759 88.0667 17.4206V12.8472H84.0361V19.2499H81.9865V12.8472H79.9369V11.1486H81.9865V9.64589C81.9865 9.09056 82.1492 8.64956 82.4745 8.32289C82.8107 7.98534 83.2445 7.81656 83.7758 7.81656H85.8905V9.51522H84.4916C84.1879 9.51522 84.0361 9.67856 84.0361 10.0052V11.1486H88.0667V8.63322H90.1163V11.1486H92.3286V12.8472H90.1163V17.0612C90.1163 17.3879 90.2681 17.5512 90.5718 17.5512H92.1334V19.2499H89.856C89.3246 19.2499 88.8909 19.0866 88.5547 18.7599Z" fill="black"/>
<path d="M77.1451 11.1486V19.2499H79.1947V11.1486H77.1451Z" fill="black"/>
<path d="M50.105 7.81656V19.2499H52.1546V7.81656H50.105Z" fill="black"/>
</svg>
