<svg width="100" height="28" viewBox="0 0 100 28" fill="none" xmlns="http://www.w3.org/2000/svg">
<path opacity="0.5" fill-rule="evenodd" clip-rule="evenodd" d="M20.7523 4.9004L14.9402 3.38632C14.539 3.28179 14.2137 3.52445 14.2137 3.9283V9.77826C14.2137 10.1821 14.539 10.5942 14.9402 10.6988L20.7523 12.2128C21.1535 12.3174 21.4788 12.0747 21.4788 11.6709V5.8209C21.4788 5.41705 21.1535 5.00492 20.7523 4.9004ZM14.9402 1.19259C13.3353 0.774485 12.0342 1.7451 12.0342 3.36052V9.21048C12.0342 10.8259 13.3353 12.4744 14.9402 12.8925L20.7523 14.4066C22.3572 14.8247 23.6583 13.8541 23.6583 12.2386V6.38868C23.6583 4.77326 22.3572 3.12477 20.7523 2.70667L14.9402 1.19259Z" fill="black"/>
<path opacity="0.7" fill-rule="evenodd" clip-rule="evenodd" d="M16.1867 9.66564L8.92166 7.77304C8.52042 7.66851 8.19515 7.91117 8.19515 8.31502V15.6275C8.19515 16.0313 8.52042 16.4434 8.92166 16.548L16.1867 18.4406C16.588 18.5451 16.9132 18.3024 16.9132 17.8986V10.5861C16.9132 10.1823 16.588 9.77016 16.1867 9.66564ZM8.92166 5.57931C7.3167 5.1612 6.01562 6.13182 6.01562 7.74724V15.0597C6.01562 16.6751 7.3167 18.3236 8.92166 18.7417L16.1867 20.6343C17.7917 21.0524 19.0928 20.0818 19.0928 18.4664V11.1539C19.0928 9.5385 17.7917 7.89001 16.1867 7.4719L8.92166 5.57931Z" fill="black"/>
<path fill-rule="evenodd" clip-rule="evenodd" d="M11.6241 14.4328L2.90603 12.1617C2.50479 12.0572 2.17952 12.2998 2.17952 12.7037V21.4786C2.17952 21.8825 2.50479 22.2946 2.90603 22.3991L11.6241 24.6702C12.0254 24.7748 12.3506 24.5321 12.3506 24.1283V15.3533C12.3506 14.9495 12.0254 14.5374 11.6241 14.4328ZM2.90603 9.96798C1.30108 9.54988 0 10.5205 0 12.1359V20.9108C0 22.5263 1.30108 24.1748 2.90603 24.5929L11.6241 26.864C13.2291 27.2821 14.5302 26.3115 14.5302 24.696V15.9211C14.5302 14.3057 13.2291 12.6572 11.6241 12.2391L2.90603 9.96798Z" fill="black"/>
<path d="M34.4387 19.0211C35.0974 19.326 35.8532 19.4784 36.7062 19.4784C37.5592 19.4784 38.3042 19.3314 38.9413 19.0374C39.5891 18.7325 40.0912 18.3079 40.4475 17.7634C40.8038 17.2081 40.982 16.5602 40.982 15.8197V15.6237C40.982 14.9377 40.8254 14.3824 40.5123 13.9577C40.1991 13.5222 39.7996 13.201 39.3138 12.9941C38.8387 12.7872 38.3474 12.6837 37.8399 12.6837H37.2407V12.4224L40.658 10.5931V7.81641H32.6248V9.67841H38.3582V9.93974L34.6979 11.8997V14.1864H36.9653C37.3324 14.1864 37.6618 14.2409 37.9533 14.3497C38.2448 14.4477 38.477 14.6056 38.6497 14.8234C38.8225 15.0412 38.9089 15.3243 38.9089 15.6727V15.8361C38.9089 16.3479 38.7145 16.7725 38.3258 17.1101C37.9479 17.4476 37.408 17.6164 36.7062 17.6164C36.0152 17.6164 35.4591 17.4367 35.038 17.0774C34.6169 16.7072 34.4064 16.2172 34.4064 15.6074V15.3787H32.3333V15.6727C32.3333 16.4567 32.5168 17.1373 32.8839 17.7144C33.2618 18.2806 33.7801 18.7162 34.4387 19.0211Z" fill="black"/>
<path fill-rule="evenodd" clip-rule="evenodd" d="M48.4386 8.25741C47.8987 7.96341 47.2725 7.81641 46.5599 7.81641H41.8954V19.2497H44.0333V15.0684H46.5599C47.2509 15.0684 47.8663 14.9269 48.4062 14.6437C48.9569 14.3497 49.3888 13.9414 49.7019 13.4187C50.0258 12.8852 50.1878 12.2645 50.1878 11.5567V11.3281C50.1878 10.6094 50.0312 9.98874 49.7181 9.46607C49.4158 8.94341 48.9893 8.54052 48.4386 8.25741ZM47.5802 12.6837C47.2671 12.9669 46.8568 13.1084 46.3493 13.1084H44.0333V9.77641H46.3493C46.8568 9.77641 47.2671 9.91796 47.5802 10.2011C47.8933 10.4842 48.0499 10.8707 48.0499 11.3607V11.5241C48.0499 12.0141 47.8933 12.4006 47.5802 12.6837Z" fill="black"/>
<path fill-rule="evenodd" clip-rule="evenodd" d="M54.5574 19.4784C53.7584 19.4784 53.0404 19.3151 52.4034 18.9884C51.7663 18.6617 51.2642 18.1881 50.8971 17.5674C50.53 16.9467 50.3465 16.2009 50.3465 15.3297V15.0684C50.3465 14.1973 50.53 13.4514 50.8971 12.8307C51.2642 12.2101 51.7663 11.7364 52.4034 11.4097C53.0404 11.0831 53.7584 10.9197 54.5574 10.9197C55.3564 10.9197 56.0745 11.0831 56.7115 11.4097C57.3486 11.7364 57.8506 12.2101 58.2178 12.8307C58.5849 13.4514 58.7684 14.1973 58.7684 15.0684V15.3297C58.7684 16.2009 58.5849 16.9467 58.2178 17.5674C57.8506 18.1881 57.3486 18.6617 56.7115 18.9884C56.0745 19.3151 55.3564 19.4784 54.5574 19.4784ZM54.5574 17.6491C55.1837 17.6491 55.702 17.4476 56.1123 17.0447C56.5226 16.631 56.7277 16.043 56.7277 15.2807V15.1174C56.7277 14.3552 56.5226 13.7726 56.1123 13.3697C55.7128 12.956 55.1945 12.7491 54.5574 12.7491C53.9312 12.7491 53.4129 12.956 53.0026 13.3697C52.5923 13.7726 52.3872 14.3552 52.3872 15.1174V15.2807C52.3872 16.043 52.5923 16.631 53.0026 17.0447C53.4129 17.4476 53.9312 17.6491 54.5574 17.6491Z" fill="black"/>
<path d="M62.7252 11.3444C62.4553 11.4969 62.2609 11.7364 62.1421 12.0631H61.8506V11.1484H59.8423V19.2497H61.883V14.6437C61.883 14.0666 62.0504 13.642 62.3851 13.3697C62.7198 13.0866 63.1463 12.9451 63.6646 12.9451H64.6687V12.9439H66.7497V17.4204C66.7497 17.9757 66.9116 18.4222 67.2356 18.7597C67.5703 19.0864 68.0022 19.2497 68.5312 19.2497H70.7987V17.5511H69.2439C68.9415 17.5511 68.7904 17.3877 68.7904 17.0611V12.9439H70.993V11.1181H68.7904V8.63307H66.7497V11.1181H64.6687V11.1157H63.697C63.3298 11.1157 63.0059 11.192 62.7252 11.3444Z" fill="black"/>
<path fill-rule="evenodd" clip-rule="evenodd" d="M72.986 19.1844C73.4395 19.3804 73.9524 19.4784 74.5247 19.4784C75.0861 19.4784 75.5288 19.3967 75.8527 19.2334C76.1767 19.0701 76.4142 18.885 76.5654 18.6781C76.7165 18.4603 76.8137 18.2861 76.8569 18.1554H77.1646V18.1717C77.1646 18.4984 77.2942 18.7597 77.5533 18.9557C77.8125 19.1517 78.1418 19.2497 78.5413 19.2497H79.9018V17.5511H79.2539C78.9516 17.5511 78.8004 17.3877 78.8004 17.0611V14.0394C78.8004 13.0267 78.4927 12.2536 77.8773 11.7201C77.2618 11.1865 76.425 10.9197 75.3669 10.9197C74.6758 10.9197 74.0874 11.0286 73.6015 11.2464C73.1264 11.4533 72.7431 11.731 72.4516 12.0794C72.1708 12.417 71.9657 12.7926 71.8361 13.2064L73.7149 13.8434C73.7905 13.4732 73.9524 13.1737 74.2008 12.9451C74.4491 12.7055 74.827 12.5857 75.3345 12.5857C75.8528 12.5857 76.2307 12.711 76.4682 12.9614C76.7057 13.201 76.8245 13.5113 76.8245 13.8924V14.3497H74.6218C74.0172 14.3497 73.4773 14.4477 73.0022 14.6437C72.538 14.8289 72.1708 15.112 71.9009 15.4931C71.6418 15.8633 71.5122 16.3261 71.5122 16.8814C71.5122 17.4367 71.6418 17.9104 71.9009 18.3024C72.1708 18.6835 72.5326 18.9775 72.986 19.1844ZM76.2738 17.3387C75.9175 17.6545 75.4532 17.8124 74.881 17.8124C74.4491 17.8124 74.1198 17.7199 73.893 17.5347C73.6663 17.3496 73.5529 17.1101 73.5529 16.8161C73.5529 16.5221 73.6609 16.2934 73.8768 16.1301C74.0928 15.9667 74.3897 15.8851 74.7676 15.8851H76.8245V16.0484C76.8245 16.582 76.641 17.0121 76.2738 17.3387Z" fill="black"/>
<path d="M84.8375 18.7924C85.507 19.2497 86.3654 19.4784 87.4127 19.4784C88.4385 19.4784 89.2537 19.2497 89.8583 18.7924C90.4738 18.3242 90.7815 17.6654 90.7815 16.8161C90.7815 16.2499 90.6357 15.8034 90.3442 15.4767C90.0635 15.1392 89.6748 14.8833 89.1781 14.7091C88.6922 14.524 88.1469 14.377 87.5423 14.2681L87.0888 14.1864C86.7217 14.1211 86.4301 14.0285 86.2142 13.9087C85.9982 13.7781 85.8903 13.5821 85.8903 13.3207C85.8903 13.0812 85.9928 12.8961 86.198 12.7654C86.4031 12.6239 86.7001 12.5531 87.0888 12.5531C87.4775 12.5531 87.8014 12.6402 88.0605 12.8144C88.3305 12.9886 88.5086 13.2826 88.595 13.6964L90.49 13.1084C90.3064 12.4551 89.9177 11.927 89.3238 11.5241C88.73 11.1212 87.985 10.9197 87.0888 10.9197C86.1386 10.9197 85.372 11.1375 84.7889 11.5731C84.2059 11.9977 83.9143 12.613 83.9143 13.4187C83.9143 13.9523 84.0547 14.3879 84.3354 14.7254C84.6162 15.063 84.9887 15.3297 85.453 15.5257C85.9173 15.7109 86.4301 15.8579 86.9916 15.9667L87.4451 16.0484C87.9202 16.1355 88.2657 16.2499 88.4816 16.3914C88.6976 16.5221 88.8056 16.7126 88.8056 16.9631C88.8056 17.2135 88.6922 17.4259 88.4654 17.6001C88.2387 17.7634 87.8878 17.8451 87.4127 17.8451C87.0996 17.8451 86.808 17.8015 86.5381 17.7144C86.279 17.6164 86.0576 17.4585 85.8741 17.2407C85.7013 17.023 85.5771 16.7235 85.5016 16.3424L83.6228 16.8324C83.7632 17.6817 84.1681 18.3351 84.8375 18.7924Z" fill="black"/>
<path d="M80.584 19.2497V7.81641H82.6247V19.2497H80.584Z" fill="black"/>
</svg>
