<svg width="30" height="16" viewBox="0 0 30 16" fill="none" xmlns="http://www.w3.org/2000/svg">
<g clip-path="url(#clip0_319_162)">
<mask id="mask0_319_162" style="mask-type:luminance" maskUnits="userSpaceOnUse" x="0" y="0" width="31" height="16">
<path d="M30.1123 0H0.112305V16H30.1123V0Z" fill="white"/>
</mask>
<g mask="url(#mask0_319_162)">
<path fill-rule="evenodd" clip-rule="evenodd" d="M13.9599 7.90723C12.8309 7.90723 12.0944 8.79929 11.9044 9.908C11.7297 10.9278 12.2828 11.741 13.1952 11.741C14.4724 11.741 15.2323 10.4368 15.2323 9.50115C15.2323 8.51979 14.8448 7.90723 13.9599 7.90723ZM14.1271 9.93825C13.9442 10.7009 13.594 10.9396 13.2754 10.8782C12.8421 10.7945 12.9165 10.0951 12.9868 9.7725C13.1401 9.06598 13.5174 8.72687 13.7999 8.76281C13.8933 8.77463 14.4044 8.7842 14.1271 9.93825Z" fill="white"/>
<path fill-rule="evenodd" clip-rule="evenodd" d="M10.7485 7.90732H9.23164C9.34166 8.02844 9.25584 8.28252 9.25584 8.28252C9.25584 8.28252 8.31364 10.9463 8.24048 11.1522C8.16693 11.3577 8.03235 11.5014 8.03235 11.5014C8.03235 11.5014 9.29389 11.5014 9.23164 11.5014C9.1946 11.5014 9.1946 11.3843 9.1946 11.3843L9.62487 10.2548C9.62487 10.2548 10.1612 11.2952 10.1981 11.3681C10.2347 11.4406 10.2162 11.5012 10.2162 11.5012H11.4989C11.3764 11.5012 11.2503 11.2713 11.2503 11.2713L10.6117 10.138C11.5049 10.138 11.7906 9.26252 11.7906 9.26252C12.231 7.87105 10.7485 7.90732 10.7485 7.90732ZM10.7448 9.13917C10.5777 9.49538 10.1247 9.45585 10.1247 9.45585H9.89241L10.1408 8.73318C10.1408 8.73318 10.2742 8.73129 10.3939 8.73129C10.9403 8.73129 10.7448 9.13917 10.7448 9.13917Z" fill="white"/>
<path fill-rule="evenodd" clip-rule="evenodd" d="M8.99186 6.32874C8.96646 6.41052 8.76389 6.38999 8.76389 6.38999H7.88364C7.88364 6.38999 8.69952 4.06116 8.76502 3.88525C8.86422 3.61902 8.92892 3.59594 8.94603 3.59473H7.73507C7.88557 3.67188 7.75217 3.97594 7.75217 3.97594C7.75217 3.97594 6.77845 6.88021 6.71055 7.0253C6.64283 7.17055 6.59186 7.18886 6.59186 7.18886H8.69744L8.99186 6.32874Z" fill="white"/>
<path fill-rule="evenodd" clip-rule="evenodd" d="M13.8833 6.9627C13.9471 6.79849 14.5197 5.26045 14.5197 5.26045L14.7687 7.18886H15.7463L17.0278 3.75861C17.0278 3.75861 17.0804 3.59766 17.1518 3.59766L16.113 3.59473C16.113 3.59473 16.1429 3.71313 16.1056 3.80409C16.0691 3.8952 15.4785 5.45159 15.4785 5.45159L15.248 3.59473H14.1323C14.1323 3.59473 14.19 3.68569 14.153 3.78572C14.1229 3.86687 12.9702 6.98981 12.9702 6.98981C12.9702 6.98981 12.8965 7.18886 12.8318 7.18886H13.911C13.911 7.18886 13.8371 7.08092 13.8833 6.9627Z" fill="white"/>
<path fill-rule="evenodd" clip-rule="evenodd" d="M10.382 7.18578C10.382 7.18578 10.3785 7.09647 10.4084 7.03846C10.4631 6.93357 10.6057 6.6805 10.6057 6.6805H11.7625L11.7647 6.99603C11.7647 6.99603 11.7706 7.10486 11.6855 7.18886H12.8326C12.8326 7.18886 12.7475 7.14044 12.7318 6.99757L12.5878 3.83908C12.5878 3.83908 12.5818 3.63733 12.6765 3.59473H11.5385C11.5385 3.59473 11.6182 3.69449 11.4658 3.92136C11.3138 4.14845 9.36951 7.06773 9.36951 7.06773C9.36951 7.06773 9.33098 7.14267 9.23264 7.18578H10.382ZM11.7403 4.81695L11.7495 5.8696H11.1017L11.7403 4.81695Z" fill="white"/>
<path fill-rule="evenodd" clip-rule="evenodd" d="M23.633 5.03223H21.3502L21.0721 5.81611H22.5497L20.8643 6.3916L20.753 6.70947L23.3463 5.87069L23.633 5.03223Z" fill="white"/>
<path fill-rule="evenodd" clip-rule="evenodd" d="M16.6027 6.90852C16.6027 6.90852 16.5304 7.14334 16.4316 7.18885L17.8716 7.18731C17.8716 7.18731 19.6173 7.25234 20.1574 5.40135C20.1574 5.40135 20.8415 3.57655 18.8615 3.59486H17.6648C17.6648 3.59486 17.7547 3.74017 17.6375 4.07596C17.5204 4.41193 16.6027 6.90852 16.6027 6.90852ZM18.5196 4.36571H18.7898C18.7898 4.36571 19.4888 4.32414 18.9878 5.55486C18.6829 6.30384 18.2292 6.35827 17.9842 6.35827C17.8225 6.35827 17.8177 6.35981 17.8177 6.35981L18.5196 4.36571Z" fill="white"/>
<path fill-rule="evenodd" clip-rule="evenodd" d="M8.03247 8.38672L5.43907 9.22541L5.15253 10.064H7.43523L7.71301 9.27984H6.23562L7.92096 8.70447L8.03247 8.38672Z" fill="white"/>
<path fill-rule="evenodd" clip-rule="evenodd" d="M15.113 0C6.82794 0 0.112305 3.54021 0.112305 7.90711C0.112305 12.2742 6.82794 15.8142 15.113 15.8142C23.3956 15.8142 30.1123 12.2742 30.1123 7.90711C30.1123 3.54021 23.3956 0 15.113 0ZM15.1073 15.1622C7.1632 15.1622 0.722897 11.911 0.722897 7.90053C0.722897 3.8901 7.1632 0.638889 15.1073 0.638889C23.051 0.638889 29.4915 3.8901 29.4915 7.90053C29.4915 11.911 23.051 15.1622 15.1073 15.1622Z" fill="white"/>
<path fill-rule="evenodd" clip-rule="evenodd" d="M23.7232 7.90778H22.2283C22.3379 8.02887 22.2528 8.28292 22.2528 8.28292C22.2528 8.28292 21.2778 10.9566 21.2047 11.1623C21.1319 11.3682 20.992 11.4994 20.992 11.4994L22.2348 11.5013C22.1437 11.5034 22.2071 11.2813 22.2071 11.2813L22.5886 10.2549C22.5886 10.2549 23.1028 11.2955 23.1389 11.3682C23.1753 11.4408 23.1573 11.5012 23.1573 11.5012H24.4768C24.3551 11.5012 24.2212 11.2712 24.2212 11.2712L23.5869 10.1381C24.4745 10.1381 24.7414 9.29415 24.7414 9.29415C25.2074 7.83729 23.7232 7.90778 23.7232 7.90778ZM23.6865 9.14218C23.5499 9.49015 23.1035 9.45661 23.1035 9.45661H22.8725L23.1155 8.74289H23.4454C23.4454 8.74289 23.8479 8.73195 23.6865 9.14218Z" fill="white"/>
<path fill-rule="evenodd" clip-rule="evenodd" d="M15.1128 1.19775C7.49129 1.19775 1.3125 4.20156 1.3125 7.90689C1.3125 11.6122 7.49129 14.6159 15.1128 14.6159C22.7339 14.6159 28.9125 11.6122 28.9125 7.90689C28.9125 4.20156 22.7339 1.19775 15.1128 1.19775ZM15.1127 14.2541C7.68843 14.2541 1.66987 11.412 1.66987 7.90594C1.66987 4.40007 7.68843 1.55771 15.1127 1.55771C22.5368 1.55771 28.5553 4.40007 28.5553 7.90594C28.5553 11.412 22.5368 14.2541 15.1127 14.2541Z" fill="white"/>
<path fill-rule="evenodd" clip-rule="evenodd" d="M20.5244 10.691C20.2983 10.691 19.5145 10.691 19.5145 10.691L19.7285 10.1106H20.5123C20.5123 10.1106 20.6788 10.0984 20.7144 10.147L21.0351 9.22909C21.0351 9.22909 21.0116 9.3122 20.7974 9.3122C20.5835 9.3122 20.0371 9.3122 20.0371 9.3122L20.263 8.67137H21.2252C21.2252 8.67137 21.3559 8.65292 21.4031 8.7557L21.7122 7.90723L19.3956 7.90758C19.3956 7.90758 19.4787 7.98213 19.3721 8.2845C19.2649 8.58705 18.3264 11.1629 18.3264 11.1629C18.3264 11.1629 18.1601 11.5014 18.1129 11.5014C18.065 11.5014 20.5004 11.5014 20.5004 11.5014L20.7856 10.6428C20.7856 10.6428 20.7502 10.691 20.5244 10.691Z" fill="white"/>
<path fill-rule="evenodd" clip-rule="evenodd" d="M19.3117 7.90895H17.898C17.898 7.90895 18.0086 7.98163 17.9227 8.11452C17.8367 8.24773 16.5798 10.0982 16.5798 10.0982L16.5958 8.23185C16.5958 8.23185 16.5934 7.93238 16.7155 7.90723L15.4717 7.90895C15.4717 7.90895 15.563 7.95733 15.563 8.18702C15.563 8.41689 15.563 11.2958 15.563 11.2958C15.563 11.2958 15.5504 11.4658 15.4852 11.5014H16.473C16.473 11.5014 16.473 11.4287 16.571 11.3078C16.6695 11.1868 18.7212 8.4776 18.7212 8.4776C18.7212 8.4776 19.189 7.90895 19.3117 7.90895Z" fill="white"/>
</g>
</g>
<defs>
<clipPath id="clip0_319_162">
<rect width="30" height="16" fill="white"/>
</clipPath>
</defs>
</svg>
