<svg width="63" height="16" viewBox="0 0 63 16" fill="none" xmlns="http://www.w3.org/2000/svg">
<g clip-path="url(#clip0_319_188)">
<path d="M13.3242 15.767H2.06024C1.27 15.767 0.563862 15.24 0.261479 14.4244C-0.0409794 13.6089 0.124769 12.6785 0.683615 12.0545L8.48573 3.33981H2.89379C1.35764 3.33981 0.112314 1.94882 0.112314 0.232991H10.5001C11.2904 0.232991 11.9964 0.759898 12.2989 1.57537C12.6014 2.39092 12.4358 3.32112 11.8769 3.94551L4.07488 12.6602H10.5427C12.0789 12.6602 13.3242 14.0512 13.3242 15.767ZM63.1123 6.05825C63.1123 2.71769 60.679 0 57.6881 0C56.0887 0 54.6489 0.778087 53.6553 2.01268C52.6617 0.778087 51.2219 0 49.6222 0C46.6314 0 44.1984 2.71769 44.1984 6.05825V15.767C45.7346 15.767 46.9799 14.376 46.9799 12.6602V6.05825C46.9799 4.43084 48.1653 3.10682 49.6222 3.10682C51.0792 3.10682 52.2646 4.43084 52.2646 6.05825V12.6602C52.2646 14.376 53.5099 15.767 55.0461 15.767V6.05825C55.0461 4.43084 56.2314 3.10682 57.6881 3.10682C59.1453 3.10682 60.3308 4.43084 60.3308 6.05825V12.6602C60.3308 14.376 61.5764 15.767 63.1123 15.767V6.05825ZM42.8077 8.00007C42.8077 12.4183 39.601 16 35.6455 16C31.6897 16 28.4832 12.4183 28.4832 8.00007C28.4832 3.58169 31.6897 0 35.6455 0C39.601 0 42.8077 3.58169 42.8077 8.00007ZM40.0262 8.00007C40.0262 5.2976 38.0649 3.10682 35.6455 3.10682C33.2259 3.10682 31.2647 5.2976 31.2647 8.00007C31.2647 10.7025 33.2259 12.8932 35.6455 12.8932C38.0649 12.8932 40.0262 10.7025 40.0262 8.00007ZM27.3705 8.00007C27.3705 12.4183 24.1638 16 20.2084 16C16.2528 16 13.0461 12.4183 13.0461 8.00007C13.0461 3.58169 16.2528 0 20.2084 0C24.1638 0 27.3705 3.58169 27.3705 8.00007ZM24.5891 8.00007C24.5891 5.2976 22.6277 3.10682 20.2084 3.10682C17.7889 3.10682 15.8275 5.2976 15.8275 8.00007C15.8275 10.7025 17.7889 12.8932 20.2084 12.8932C22.6277 12.8932 24.5891 10.7025 24.5891 8.00007Z" fill="white"/>
</g>
<defs>
<clipPath id="clip0_319_188">
<rect width="63" height="16" fill="white"/>
</clipPath>
</defs>
</svg>
