<svg width="59" height="16" viewBox="0 0 59 16" fill="none" xmlns="http://www.w3.org/2000/svg">
<g clip-path="url(#clip0_319_190)">
<mask id="mask0_319_190" style="mask-type:luminance" maskUnits="userSpaceOnUse" x="0" y="0" width="60" height="16">
<path d="M59.1123 0H0.112305V16H59.1123V0Z" fill="white"/>
</mask>
<g mask="url(#mask0_319_190)">
<path d="M35.3218 3.49805H30.401C28.6342 3.49805 26.8282 4.92934 26.3673 6.69271L25.6926 9.28703C25.233 11.0533 26.2902 12.4817 28.0526 12.4817H32.9734C34.7401 12.4817 36.5461 11.0533 37.0071 9.28703L37.6818 6.6956C38.1486 4.9308 37.0929 3.49805 35.3218 3.49805ZM34.0407 9.27253C33.9636 9.54226 33.8022 9.78009 33.5826 9.95557C33.3616 10.1296 33.0926 10.2311 32.812 10.2456H29.386C28.848 10.2456 28.531 9.81054 28.6648 9.27397L29.3395 6.70721C29.418 6.43748 29.578 6.19965 29.7976 6.02422C30.0186 5.85018 30.2876 5.74866 30.5683 5.73565H33.9898C34.5278 5.73565 34.8448 6.1692 34.7096 6.70721L34.0407 9.27253Z" fill="white"/>
<path d="M56.648 3.49805H51.7201C49.9533 3.49805 48.1473 4.92934 47.6878 6.69271L47.0131 9.28703C46.5522 11.0533 47.6122 12.4817 49.3731 12.4817H54.2952C56.0621 12.4817 57.8663 11.0533 58.3259 9.28703L59.0007 6.69271C59.4707 4.9308 58.4076 3.49805 56.648 3.49805ZM55.3671 9.27253C55.29 9.54226 55.13 9.78009 54.909 9.95413C54.6891 10.1281 54.4205 10.2296 54.1395 10.2441H50.7051C50.1671 10.2441 49.8501 9.8091 49.9853 9.27253L50.6601 6.70577C50.7386 6.43604 50.8985 6.19821 51.1181 6.02277C51.3377 5.84874 51.6067 5.74721 51.8871 5.73416H55.3174C55.8541 5.73416 56.1708 6.16776 56.0357 6.70577L55.3671 9.27253Z" fill="white"/>
<path d="M4.92955 3.49805H9.85031C11.6185 3.49805 12.6757 4.92934 12.2104 6.69271L10.7315 12.3497C10.7213 12.386 10.6995 12.4194 10.669 12.4411C10.6384 12.4643 10.6006 12.4759 10.5628 12.4745H7.94978C7.92359 12.4759 7.89741 12.4701 7.87412 12.4585C7.85088 12.4469 7.82909 12.431 7.81305 12.4106C7.79705 12.3904 7.78546 12.3657 7.77961 12.3411C7.77382 12.3164 7.77527 12.2888 7.78106 12.2642L9.23231 6.70143C9.37624 6.16487 9.05055 5.72982 8.51251 5.72982H5.08514C4.80449 5.74432 4.53548 5.84585 4.3159 6.01983C4.09633 6.19387 3.93638 6.43315 3.85786 6.70143L3.18314 9.26819C3.04209 9.80621 3.36636 10.2398 3.90294 10.2398H6.65561C6.68175 10.2384 6.70794 10.2441 6.73122 10.2558C6.75446 10.2673 6.7763 10.2833 6.79229 10.3036C6.80829 10.3239 6.81993 10.3486 6.82573 10.3732C6.83152 10.3993 6.83008 10.4254 6.82428 10.4501L6.33422 12.3483C6.32407 12.386 6.30223 12.4179 6.2717 12.4411C6.24116 12.4643 6.20333 12.4759 6.16555 12.4745H2.58259C0.814374 12.4745 -0.244225 11.0533 0.222549 9.27981L0.897258 6.68548C1.3524 4.9308 3.16279 3.49805 4.92955 3.49805Z" fill="white"/>
<path d="M22.5632 3.49805H17.6424C15.8757 3.49805 14.0682 4.92934 13.6087 6.69271L11.2371 15.7634C11.2298 15.788 11.2298 15.8156 11.2356 15.8403C11.2414 15.8664 11.253 15.8896 11.269 15.9098C11.285 15.9302 11.3068 15.9461 11.3301 15.9577C11.3533 15.9693 11.3795 15.9737 11.4057 15.9737H14.0289C14.0668 15.9751 14.1046 15.9635 14.1351 15.9403C14.1656 15.9171 14.1875 15.8852 14.1976 15.8475L16.5896 6.70432C16.6667 6.43459 16.8267 6.19676 17.0477 6.02277C17.2673 5.84874 17.5363 5.74721 17.817 5.73271H21.2443C21.7838 5.73271 22.1052 6.16631 21.9656 6.70432L21.2909 9.27108C21.2138 9.54081 21.0538 9.77865 20.8328 9.95268C20.6132 10.1267 20.3442 10.2282 20.0636 10.2427H17.2149C17.1771 10.2413 17.1393 10.2528 17.1088 10.276C17.0783 10.2993 17.0564 10.3312 17.0463 10.3674L16.5504 12.2627C16.5446 12.2874 16.5431 12.315 16.549 12.3396C16.5548 12.3657 16.565 12.3889 16.5824 12.4092C16.5984 12.4295 16.6202 12.4455 16.6435 12.457C16.6667 12.4687 16.6929 12.473 16.7191 12.473H20.2177C21.9845 12.473 23.7919 11.0446 24.2514 9.27836L24.9261 6.68404C25.3886 4.9308 24.33 3.49805 22.5632 3.49805Z" fill="white"/>
<path d="M40.995 0.000121095C40.9572 -0.00132905 40.9194 0.0102722 40.8889 0.0334745C40.8583 0.0566766 40.8365 0.0885801 40.8263 0.126284L37.652 12.2727C37.6447 12.2974 37.6447 12.325 37.6505 12.3496C37.6564 12.3757 37.668 12.3989 37.684 12.4192C37.7 12.4395 37.7218 12.4554 37.745 12.467C37.7683 12.4787 37.7945 12.483 37.8207 12.483H40.3349C40.3727 12.4844 40.4105 12.4728 40.441 12.4497C40.4716 12.4264 40.4934 12.3945 40.5036 12.3569L43.6794 0.210393C43.6852 0.18574 43.6866 0.158187 43.6808 0.133535C43.675 0.107432 43.6648 0.0842297 43.6474 0.0639277C43.6314 0.0436255 43.6095 0.0276739 43.5863 0.0160727C43.563 0.00447149 43.5368 0.000121095 43.5106 0.000121095H40.995Z" fill="white"/>
<path d="M45.2788 0.000121095C45.241 -0.00132905 45.2032 0.0102722 45.1727 0.0334745C45.1422 0.0566766 45.1203 0.0885801 45.1102 0.126284L41.9358 12.2742C41.93 12.2988 41.9285 12.3264 41.9344 12.351C41.9402 12.3771 41.9504 12.4004 41.9678 12.4206C41.9838 12.4409 42.0056 12.4569 42.0289 12.4685C42.0522 12.4801 42.0783 12.4844 42.1045 12.4844H44.6187C44.6565 12.4859 44.6943 12.4743 44.7248 12.4511C44.7554 12.4279 44.7772 12.396 44.7873 12.3583L47.9631 0.211843C47.9704 0.18719 47.9704 0.159638 47.9646 0.134985C47.9588 0.108882 47.9486 0.08568 47.9312 0.0653775C47.9152 0.0450757 47.8934 0.029124 47.8701 0.0175228C47.8468 0.00592165 47.8207 0.00157121 47.7945 0.00157121H45.2788V0.000121095Z" fill="white"/>
</g>
</g>
<defs>
<clipPath id="clip0_319_190">
<rect width="59" height="16" fill="white"/>
</clipPath>
</defs>
</svg>
