<svg width="53" height="16" viewBox="0 0 53 16" fill="none" xmlns="http://www.w3.org/2000/svg">
<g clip-path="url(#clip0_319_201)">
<mask id="mask0_319_201" style="mask-type:luminance" maskUnits="userSpaceOnUse" x="0" y="0" width="53" height="16">
<path d="M52.5982 0H0.112305V16H52.5982V0Z" fill="white"/>
</mask>
<g mask="url(#mask0_319_201)">
<path d="M10.1851 2.08545C9.555 2.08545 8.6456 2.28501 7.0011 2.82994V13.1656C8.44704 13.6353 9.555 13.9102 10.1851 13.9102C11.6374 13.9102 12.4562 12.9573 12.4562 11.4289V4.56662C12.4562 3.0382 11.6374 2.08545 10.1851 2.08545ZM10.6583 11.1633C10.6583 11.7615 10.3233 11.9606 9.92263 11.9606C9.61079 11.9606 9.12934 11.8391 8.73682 11.7239V4.26757C9.12934 4.15652 9.61079 4.035 9.92263 4.035C10.3233 4.035 10.6583 4.23399 10.6583 4.83214V11.1633Z" fill="white"/>
<path d="M30.9438 0.22385C29.1047 0.128409 28.0095 0.999026 28.0095 2.99258V12.8967C28.0095 15.0013 29.0014 15.8673 30.9438 15.7765C32.845 15.6879 33.8368 14.9128 33.8368 12.6751V3.2211C33.8368 1.08759 32.9396 0.327982 30.9438 0.22385ZM31.8323 12.7196C31.8323 13.3178 31.6464 13.6279 30.9438 13.6499C30.2208 13.6725 30.0245 13.3398 30.0245 12.7196V3.2807C30.0245 2.66052 30.2208 2.3169 30.9438 2.33944C31.6464 2.36147 31.8323 2.68249 31.8323 3.2807V12.7196Z" fill="white"/>
<path d="M48.8252 4.0874V11.8892C51.0821 10.7397 52.3774 9.4039 52.3774 7.9727C52.3774 6.55708 51.0821 5.22821 48.8252 4.0874Z" fill="white"/>
<path d="M0.330078 7.97474C0.330078 9.40365 1.62387 10.7417 3.87984 11.8889V4.0918C1.62387 5.23027 0.330078 6.55911 0.330078 7.97474Z" fill="white"/>
<path d="M17.5175 12.3739C17.5175 12.9721 17.3253 13.351 16.629 13.2602C15.945 13.1716 15.7608 12.861 15.7608 12.1523V0.903781C15.3068 0.956949 14.294 1.10743 13.8603 1.17397V12.5509C13.8603 14.3674 14.6825 15.0744 16.629 15.3133C18.41 15.5326 19.5012 14.567 19.5012 12.5509V0.53125C19.1295 0.553685 17.91 0.664272 17.5175 0.708837V12.3739Z" fill="white"/>
<path d="M39.3514 8.65724L37.1505 0.95959C36.5513 0.875126 35.8283 0.788897 35.2703 0.733398V15.2627C35.6628 15.2233 36.6634 15.1013 37.1796 15.0301L37.0227 6.46871L39.3513 14.6957C39.8472 14.6117 40.5702 14.4764 41.0458 14.3793V1.61273C40.5499 1.50857 39.6487 1.34487 39.2148 1.27429L39.3514 8.65724Z" fill="white"/>
<path d="M23.8064 0.306152C23.4615 0.306152 22.2031 0.352396 21.0458 0.425861V15.5666C21.4383 15.5886 22.4714 15.6465 23.0294 15.662V10.5202L23.8064 10.5186C25.8853 10.512 26.7488 9.51324 26.7488 7.5902V3.12873C26.7488 1.24624 25.7779 0.306152 23.8064 0.306152ZM24.7442 7.43052C24.7442 8.08193 24.5317 8.41228 23.7257 8.41457L23.0294 8.41617V2.44192C23.3396 2.42456 23.5044 2.41995 23.6909 2.41995C24.5625 2.41995 24.7442 2.7746 24.7442 3.43872V7.43052Z" fill="white"/>
<path d="M42.0225 3.84631C42.5137 3.94061 42.9974 4.04534 43.4689 4.15639V13.8169C43.9029 13.7082 44.7087 13.4825 45.246 13.3119V4.61225C45.762 4.75573 46.2478 4.89922 46.6925 5.03577V3.17291C45.2897 2.64761 43.7831 2.2201 42.0225 1.82617V3.84631Z" fill="white"/>
</g>
</g>
<defs>
<clipPath id="clip0_319_201">
<rect width="53" height="16" fill="white"/>
</clipPath>
</defs>
</svg>
