<svg width="41" height="16" viewBox="0 0 41 16" fill="none" xmlns="http://www.w3.org/2000/svg">
<g clip-path="url(#clip0_319_214)">
<mask id="mask0_319_214" style="mask-type:alpha" maskUnits="userSpaceOnUse" x="0" y="0" width="42" height="16">
<path d="M41.0401 0H0.112305V16H41.0401V0Z" fill="#D9D9D9"/>
</mask>
<g mask="url(#mask0_319_214)">
<path d="M12.338 10.1024C12.338 10.1562 12.3023 10.21 12.2485 10.2459C12.1949 10.2818 12.1411 10.3176 12.0874 10.3535C12.0516 10.3714 11.9979 10.3894 11.9621 10.4073C11.9263 10.4252 11.8905 10.4432 11.8368 10.4252C11.7115 10.4073 11.6041 10.4073 11.4788 10.4252C11.3535 10.4252 11.246 10.4073 11.1386 10.3355C11.0312 10.2818 10.9238 10.21 10.8522 10.1204C10.7627 10.0307 10.709 9.92311 10.6373 9.81554C10.5478 9.63623 10.4762 9.45687 10.4046 9.25964C10.3509 9.08034 10.2972 8.88306 10.2435 8.68583C10.1898 8.45271 10.1361 8.21959 10.0824 8.00444C10.0108 7.78924 9.95707 7.55612 9.88545 7.323C9.81383 7.07196 9.76016 6.83884 9.70644 6.5878C9.65271 6.33676 9.59904 6.10364 9.5632 5.8526C9.5632 5.83468 9.5632 5.83468 9.5632 5.81676C9.5632 5.81676 9.5632 5.79879 9.5632 5.78087C9.54531 5.72706 9.54531 5.6733 9.52742 5.65538C9.50953 5.61948 9.50953 5.60156 9.49164 5.58364C9.47369 5.56567 9.4558 5.56567 9.42002 5.54775C9.38419 5.54775 9.3484 5.54775 9.29468 5.54775C8.8113 5.54775 8.32798 5.52983 7.84461 5.47602C7.82672 5.47602 7.79088 5.47602 7.7551 5.47602C7.71932 5.47602 7.68349 5.47602 7.6477 5.47602C7.57609 5.47602 7.54025 5.47602 7.50447 5.47602C7.46869 5.47602 7.45074 5.47602 7.43285 5.49399C7.41496 5.51191 7.39707 5.52983 7.37918 5.56567C7.36124 5.60156 7.34334 5.65538 7.30756 5.74503C7.14644 6.15746 6.96742 6.5878 6.78841 7.00023C6.60934 7.41266 6.44821 7.82508 6.2692 8.25548C6.21552 8.3989 6.14391 8.56028 6.10807 8.70375C6.0544 8.84722 6.00067 9.0086 5.947 9.16999C5.92906 9.25964 5.89328 9.33138 5.85744 9.40311C5.82166 9.47484 5.75004 9.5286 5.67842 9.58242C5.64264 9.60034 5.60686 9.63623 5.58892 9.65415C5.55314 9.67207 5.5173 9.67207 5.48152 9.63623C5.44574 9.61826 5.40991 9.58242 5.40991 9.54658C5.40991 9.51068 5.40991 9.47484 5.40991 9.42103C5.46363 9.20583 5.5173 8.97271 5.57103 8.75756C5.62475 8.54236 5.69637 8.32722 5.76793 8.11202C5.92906 7.55612 6.14391 7.00023 6.35871 6.46226C6.57356 5.92434 6.78841 5.36844 6.98531 4.79463C7.09271 4.47185 7.21806 4.16702 7.34334 3.86217C7.46869 3.55733 7.59398 3.25249 7.71932 2.94765C7.84461 2.64281 7.96995 2.33797 8.09524 2.05106C8.22053 1.74622 8.34587 1.45931 8.47116 1.15447L8.66812 0.616519C8.68601 0.580653 8.70391 0.544791 8.7218 0.508926C8.73974 0.473063 8.75763 0.437199 8.79341 0.419268C8.86503 0.383404 8.93665 0.329608 8.99037 0.293745C9.04405 0.239949 9.11566 0.204086 9.16939 0.150291C9.22306 0.114427 9.27679 0.0785631 9.3484 0.0606313C9.43791 0.00683594 9.52742 0.00683594 9.61693 0.00683594C9.70644 0.00683594 9.76016 0.0606313 9.77805 0.150291C9.84967 0.383404 9.93918 0.652381 10.0466 0.975154C10.1361 1.24413 10.2256 1.58483 10.3509 1.99727C10.4583 2.39177 10.6016 2.87592 10.7447 3.41388C10.8164 3.77251 10.888 4.14908 10.9775 4.50772C11.0491 4.86635 11.1386 5.22499 11.246 5.58364C11.2997 5.79879 11.3535 6.01399 11.4071 6.24711C11.4609 6.46226 11.4966 6.69538 11.5504 6.91058C11.6936 7.46647 11.8368 7.96855 11.9621 8.43479C12.0158 8.63202 12.0695 8.8293 12.1054 9.0086C12.159 9.20583 12.1949 9.36722 12.2307 9.5286C12.2664 9.68999 12.3023 9.81554 12.3202 9.92311C12.338 9.99484 12.338 10.0666 12.338 10.1024ZM8.99037 1.74622C8.86503 2.0152 8.73974 2.26624 8.63229 2.51729C8.507 2.76833 8.3996 3.01938 8.29215 3.27042C8.05946 3.77251 7.84461 4.2746 7.66559 4.77669C7.6477 4.81256 7.6477 4.83049 7.62976 4.86635C7.61187 4.90222 7.61187 4.93808 7.62976 4.97394C7.7551 4.95601 7.8625 4.95601 7.96995 4.93808C8.07735 4.92015 8.20264 4.92015 8.31009 4.92015C8.45327 4.92015 8.6144 4.92015 8.75763 4.92015C8.90087 4.92015 9.06194 4.92015 9.20517 4.92015C9.29468 4.92015 9.3484 4.92015 9.36629 4.88428C9.38419 4.86635 9.38419 4.81256 9.36629 4.7229C9.31257 4.34633 9.27679 3.9877 9.22306 3.61113C9.16939 3.23456 9.13355 2.87592 9.07988 2.49936C9.06194 2.37383 9.04405 2.26624 9.02615 2.14072C9.04405 2.03313 9.00826 1.88968 8.99037 1.74622Z" fill="white"/>
<path d="M14.0183 7.64621C14.0541 7.53864 14.072 7.43101 14.1078 7.34136C14.1436 7.23378 14.1615 7.12621 14.1974 7.0365C14.2331 6.8572 14.2869 6.69581 14.3406 6.5165C14.3943 6.35512 14.448 6.17581 14.5196 6.01442C14.5912 5.83512 14.6628 5.65576 14.7523 5.47645C14.8239 5.29714 14.9134 5.11783 15.0029 4.93851C15.0745 4.77712 15.164 4.61574 15.2536 4.47228C15.3431 4.31089 15.4326 4.16744 15.5042 4.02399C15.5758 3.89847 15.6474 3.77294 15.719 3.66535C15.7907 3.53983 15.8623 3.43224 15.9518 3.30672C16.0055 3.23499 16.0592 3.16326 16.1308 3.09153C16.2024 3.0198 16.2561 2.94808 16.3277 2.87635C16.3635 2.84049 16.3993 2.80463 16.4351 2.76876C16.4709 2.7329 16.5067 2.69703 16.5426 2.66117C16.6142 2.57151 16.7037 2.53564 16.8111 2.53564C16.8648 2.53564 16.9185 2.55358 16.9722 2.55358C17.0259 2.55358 17.0796 2.55358 17.1154 2.55358C17.1691 2.55358 17.2228 2.58944 17.2586 2.62531C17.2944 2.66117 17.3302 2.69703 17.366 2.75083C17.4018 2.80463 17.4376 2.85842 17.4556 2.91222C17.4735 2.96601 17.4914 3.0198 17.5092 3.09153C17.563 3.34258 17.5988 3.59362 17.5988 3.84467C17.5988 4.09571 17.5988 4.34676 17.5809 4.5978C17.563 4.81299 17.5451 5.02817 17.5271 5.24335C17.5092 5.45853 17.4914 5.67373 17.4914 5.88888C17.4735 6.26546 17.4556 6.64205 17.4376 7.01858C17.4197 7.39517 17.4376 7.77176 17.4376 8.14829C17.4556 8.3276 17.4556 8.50696 17.4735 8.68626C17.4735 8.86557 17.5092 9.04488 17.5271 9.22418C17.5451 9.278 17.5451 9.33181 17.563 9.38557C17.563 9.43938 17.5809 9.4932 17.5988 9.52904C17.6166 9.56493 17.6166 9.61869 17.6166 9.65458C17.6166 9.69042 17.5988 9.72632 17.5809 9.78008C17.5988 9.86973 17.563 9.92354 17.5271 9.97736C17.4735 10.0132 17.4197 10.0491 17.3481 10.0849C17.2765 10.1028 17.2228 10.1387 17.1512 10.1746C17.0975 10.2105 17.0259 10.2284 16.9543 10.2642C16.8469 10.3001 16.7395 10.3001 16.6321 10.2642C16.5246 10.2284 16.4172 10.1746 16.3635 10.0849C16.3456 10.067 16.3456 10.0491 16.3277 10.0132C16.3277 9.99528 16.3277 9.95944 16.3098 9.94146C16.3098 9.92354 16.3098 9.90562 16.3098 9.8877C16.3098 9.86973 16.3098 9.85181 16.3098 9.83389C16.2024 9.278 16.1487 8.70418 16.1666 8.11245C16.1666 8.00482 16.1666 7.87933 16.1666 7.77176C16.1666 7.66413 16.1666 7.55656 16.1845 7.43101C16.2024 7.2517 16.2024 7.0724 16.2203 6.89309C16.2382 6.71378 16.2561 6.53442 16.274 6.35512C16.2919 6.21165 16.3098 6.05026 16.3277 5.90685C16.3456 5.76338 16.3635 5.602 16.3993 5.45853C16.4172 5.33301 16.4351 5.22541 16.453 5.0999C16.4709 4.97437 16.5067 4.86678 16.5246 4.74126C16.5604 4.52608 16.5962 4.29296 16.6321 4.07778C16.6678 3.8626 16.7037 3.62948 16.7037 3.41431C16.7037 3.37844 16.7037 3.36051 16.7037 3.32465C16.7037 3.28878 16.7037 3.25292 16.7037 3.21706C16.5426 3.32465 16.4172 3.4681 16.3098 3.61155C16.2561 3.70121 16.2024 3.79087 16.1487 3.88053C16.095 3.97019 16.0413 4.05985 16.0055 4.14951C15.9518 4.23917 15.8981 4.34676 15.8264 4.43642C15.7728 4.52608 15.7011 4.63367 15.6474 4.72332C15.5937 4.83092 15.54 4.93851 15.4863 5.0461C15.4147 5.20748 15.3431 5.35096 15.2715 5.51234C15.1999 5.65576 15.1283 5.81714 15.0566 5.97853C15.0209 6.05026 15.0029 6.122 14.9671 6.21165C14.9492 6.28338 14.9134 6.37304 14.8955 6.44477C14.8239 6.64205 14.7702 6.83928 14.6986 7.05448C14.627 7.2517 14.5733 7.44898 14.5017 7.66413C14.4659 7.77176 14.4301 7.87933 14.4122 7.96898C14.3943 8.07656 14.3585 8.18418 14.3406 8.27384C14.3048 8.4173 14.269 8.57869 14.269 8.74008C14.2511 8.90141 14.2331 9.04488 14.2152 9.20626C14.1974 9.278 14.1974 9.34973 14.1795 9.42146C14.1615 9.4932 14.1436 9.56493 14.1436 9.63666C14.1257 9.70834 14.1257 9.76216 14.1257 9.83389C14.1257 9.90562 14.1078 9.95944 14.09 10.0311C14.072 10.1387 14.0362 10.2284 13.9825 10.318C13.9646 10.3539 13.9467 10.3898 13.9109 10.4077C13.893 10.4256 13.8572 10.4436 13.8035 10.4794C13.7677 10.4974 13.7319 10.4974 13.6961 10.5153C13.6603 10.5153 13.6245 10.5153 13.5707 10.5153C13.5171 10.5153 13.4992 10.5153 13.4633 10.5153C13.4276 10.5153 13.3917 10.4974 13.3738 10.4615C13.2664 10.336 13.1769 10.2105 13.1232 10.067C13.0337 9.86973 12.98 9.65458 12.9442 9.43938C12.9084 9.22418 12.8726 9.00904 12.8368 8.79384C12.8189 8.5428 12.7831 8.29176 12.7473 8.05864C12.7114 7.8076 12.6936 7.55656 12.6757 7.32344C12.6578 7.0365 12.6578 6.7317 12.6398 6.44477C12.6398 6.13992 12.6398 5.85304 12.6398 5.54818C12.6398 5.31507 12.6398 5.08196 12.6578 4.84885C12.6757 4.61574 12.6757 4.38262 12.6936 4.14951C12.7114 3.8626 12.7294 3.55776 12.7652 3.23499C12.7831 3.14533 12.801 3.05567 12.8189 2.96601C12.8368 2.87635 12.8905 2.80463 12.9442 2.71497C12.9979 2.62531 13.0695 2.58944 13.159 2.58944C13.2306 2.57151 13.3022 2.58944 13.3559 2.58944C13.4097 2.60737 13.4633 2.64324 13.5171 2.71497C13.5707 2.78669 13.6066 2.85842 13.6245 2.93015C13.6603 3.00187 13.6782 3.0736 13.6782 3.16326C13.6961 3.27085 13.6961 3.36051 13.714 3.4681C13.7319 3.55776 13.7498 3.66535 13.7677 3.77294C13.7856 3.9164 13.8214 4.05985 13.8214 4.2033C13.8393 4.34676 13.8393 4.49022 13.8572 4.63367C13.8751 4.84885 13.8751 5.06403 13.893 5.27921C13.9109 5.49437 13.9109 5.70957 13.9288 5.92477C13.9467 6.15789 13.9467 6.39101 13.9646 6.62408C13.9825 6.8572 13.9825 7.09032 14.0004 7.32344C14.0004 7.39517 14.0183 7.4669 14.0183 7.53864C14.0183 7.61037 14.0362 7.68205 14.0362 7.75378H14.0183V7.64621Z" fill="white"/>
<path d="M19.5697 7.64621C19.6055 7.53864 19.6234 7.43101 19.6592 7.34136C19.695 7.23378 19.7129 7.12621 19.7487 7.0365C19.7845 6.8572 19.8383 6.69581 19.8919 6.5165C19.9457 6.35512 19.9994 6.17581 20.071 6.01442C20.1426 5.83512 20.2142 5.65576 20.3037 5.47645C20.3753 5.29714 20.4648 5.11783 20.5543 4.93851C20.6259 4.77712 20.7154 4.61574 20.8049 4.47228C20.8945 4.31089 20.984 4.16744 21.0556 4.02399C21.1272 3.89847 21.1988 3.77294 21.2704 3.66535C21.342 3.53983 21.4136 3.43224 21.5031 3.30672C21.5568 3.23499 21.6106 3.16326 21.6822 3.09153C21.7538 3.0198 21.8075 2.94808 21.8791 2.87635C21.9149 2.84049 21.9507 2.80463 21.9865 2.76876C22.0223 2.7329 22.0581 2.69703 22.0939 2.66117C22.1655 2.57151 22.255 2.53564 22.3625 2.53564C22.4161 2.53564 22.4699 2.55358 22.5236 2.55358C22.5773 2.55358 22.631 2.55358 22.6668 2.55358C22.7205 2.55358 22.7742 2.58944 22.81 2.62531C22.8458 2.66117 22.8816 2.69703 22.9174 2.75083C22.9532 2.80463 22.989 2.85842 23.0069 2.91222C23.0249 2.96601 23.0427 3.0198 23.0606 3.09153C23.1144 3.34258 23.1501 3.59362 23.1501 3.84467C23.1501 4.09571 23.1501 4.34676 23.1323 4.5978C23.1144 4.81299 23.0964 5.02817 23.0785 5.24335C23.0606 5.45853 23.0427 5.67373 23.0427 5.88888C23.0249 6.26546 23.0069 6.64205 22.989 7.01858C22.9711 7.39517 22.989 7.77176 22.989 8.14829C23.0069 8.3276 23.0069 8.50696 23.0249 8.68626C23.0249 8.86557 23.0606 9.04488 23.0785 9.22418C23.0964 9.278 23.0964 9.33181 23.1144 9.38557C23.1144 9.43938 23.1323 9.4932 23.1501 9.52904C23.168 9.56493 23.168 9.61869 23.168 9.65458C23.168 9.69042 23.1501 9.72632 23.1323 9.78008C23.1501 9.86973 23.1323 9.92354 23.0785 9.97736C23.0249 10.0132 22.9711 10.0491 22.8995 10.0849C22.8279 10.1028 22.7742 10.1387 22.7026 10.1746C22.6489 10.2105 22.5773 10.2284 22.5056 10.2642C22.3983 10.3001 22.2909 10.3001 22.1835 10.2642C22.076 10.2284 21.9686 10.1746 21.9149 10.0849C21.897 10.067 21.897 10.0491 21.8791 10.0132C21.8791 9.99528 21.8791 9.95944 21.8612 9.94146C21.8612 9.92354 21.8612 9.90562 21.8612 9.8877C21.8612 9.86973 21.8612 9.85181 21.8612 9.83389C21.7538 9.278 21.7001 8.70418 21.718 8.11245C21.718 8.00482 21.718 7.87933 21.718 7.77176C21.718 7.66413 21.718 7.55656 21.7359 7.43101C21.7538 7.2517 21.7538 7.0724 21.7717 6.89309C21.7896 6.71378 21.8075 6.53442 21.8254 6.35512C21.8433 6.21165 21.8612 6.05026 21.8791 5.90685C21.897 5.76338 21.9149 5.602 21.9507 5.45853C21.9686 5.33301 21.9865 5.22541 22.0044 5.0999C22.0223 4.97437 22.0581 4.86678 22.076 4.74126C22.1118 4.52608 22.1476 4.29296 22.1835 4.07778C22.2192 3.8626 22.255 3.62948 22.255 3.41431C22.255 3.37844 22.255 3.36051 22.255 3.32465C22.255 3.28878 22.255 3.25292 22.255 3.21706C22.0939 3.32465 21.9686 3.4681 21.8612 3.61155C21.8075 3.70121 21.7538 3.79087 21.7001 3.88053C21.6464 3.97019 21.5927 4.05985 21.5568 4.14951C21.5032 4.23917 21.4494 4.34676 21.3778 4.43642C21.3241 4.52608 21.2525 4.63367 21.1988 4.72332C21.1451 4.83092 21.0914 4.93851 21.0377 5.0461C20.9661 5.20748 20.8945 5.35096 20.8228 5.51234C20.7513 5.65576 20.6797 5.81714 20.608 5.97853C20.5722 6.05026 20.5543 6.122 20.5185 6.21165C20.5006 6.28338 20.4648 6.37304 20.4469 6.44477C20.3753 6.64205 20.3216 6.83928 20.25 7.05448C20.1784 7.2517 20.1247 7.44898 20.053 7.66413C20.0173 7.77176 19.9814 7.87933 19.9635 7.96898C19.9457 8.07656 19.9099 8.18418 19.8919 8.27384C19.8561 8.4173 19.8204 8.57869 19.8204 8.74008C19.8024 8.90141 19.7845 9.04488 19.7666 9.20626C19.7487 9.278 19.7487 9.34973 19.7308 9.42146C19.7129 9.4932 19.695 9.56493 19.695 9.63666C19.6771 9.70834 19.6771 9.76216 19.6771 9.83389C19.6771 9.90562 19.6592 9.95944 19.6413 10.0311C19.6234 10.1387 19.5876 10.2284 19.5339 10.318C19.516 10.3539 19.4981 10.3898 19.4623 10.4077C19.4444 10.4256 19.4086 10.4436 19.3549 10.4794C19.3191 10.4974 19.2833 10.4974 19.2475 10.5153C19.2116 10.5153 19.1759 10.5153 19.1221 10.5153C19.0864 10.5153 19.0505 10.5153 19.0147 10.5153C18.979 10.5153 18.9431 10.4974 18.9252 10.4615C18.8178 10.336 18.7283 10.2105 18.6746 10.067C18.5851 9.86973 18.5314 9.65458 18.4956 9.43938C18.4597 9.22418 18.424 9.00904 18.3882 8.79384C18.3702 8.5428 18.3345 8.29176 18.2987 8.05864C18.2628 7.8076 18.245 7.55656 18.2271 7.32344C18.2091 7.0365 18.2091 6.7317 18.1912 6.44477C18.1912 6.13992 18.1912 5.85304 18.1912 5.54818C18.1912 5.31507 18.1912 5.08196 18.2091 4.84885C18.2271 4.61574 18.2271 4.38262 18.245 4.14951C18.2628 3.8626 18.2807 3.55776 18.3166 3.23499C18.3345 3.14533 18.3523 3.05567 18.3702 2.96601C18.3882 2.87635 18.4419 2.80463 18.4956 2.71497C18.5493 2.62531 18.6209 2.58944 18.7104 2.58944C18.782 2.57151 18.8536 2.58944 18.9073 2.58944C18.961 2.60737 19.0147 2.64324 19.0685 2.71497C19.1221 2.78669 19.158 2.85842 19.1759 2.93015C19.2116 3.00187 19.2296 3.0736 19.2296 3.16326C19.2475 3.27085 19.2475 3.36051 19.2654 3.4681C19.2833 3.55776 19.3012 3.66535 19.3191 3.77294C19.337 3.9164 19.3728 4.05985 19.3728 4.2033C19.3907 4.34676 19.3907 4.49022 19.4086 4.63367C19.4265 4.84885 19.4265 5.06403 19.4444 5.27921C19.4623 5.49437 19.4623 5.70957 19.4802 5.92477C19.4981 6.15789 19.4981 6.39101 19.516 6.62408C19.5339 6.8572 19.5339 7.09032 19.5518 7.32344C19.5518 7.39517 19.5697 7.4669 19.5697 7.53864C19.5697 7.61037 19.5876 7.68205 19.5876 7.75378H19.5697V7.64621Z" fill="white"/>
<path d="M29.0403 10.4432C28.9866 10.4432 28.9329 10.4432 28.8791 10.4253C28.8255 10.4074 28.7896 10.3894 28.736 10.3715C28.6822 10.3357 28.6285 10.2998 28.5927 10.246C28.4316 10.0308 28.3242 9.79769 28.2347 9.54665C28.1452 9.29561 28.0736 9.04457 28.0198 8.77556C27.9841 8.61417 27.9482 8.45278 27.9303 8.2914C27.9125 8.13001 27.8767 7.96862 27.8767 7.80724C27.8587 7.5562 27.8229 7.32308 27.7871 7.07204C27.7513 6.83892 27.7334 6.58788 27.6976 6.33684C27.6976 6.2651 27.6976 6.21134 27.6797 6.13961C27.6797 6.06788 27.6618 5.99614 27.6618 5.92441C27.6081 5.97822 27.5723 6.03204 27.5365 6.0858C27.5007 6.13961 27.4828 6.19342 27.447 6.24718C27.3575 6.49822 27.2501 6.73134 27.1248 6.96446C26.9994 7.19758 26.8741 7.4307 26.7667 7.66382C26.713 7.75348 26.6593 7.86105 26.6235 7.96862C26.5877 8.07625 26.534 8.1659 26.4803 8.27348C26.4445 8.34521 26.3908 8.41694 26.355 8.47076C26.3013 8.54244 26.2654 8.59625 26.2117 8.66798C26.1044 8.81145 25.979 8.93694 25.8537 9.06249C25.7284 9.18798 25.5851 9.27769 25.424 9.36734C25.1734 9.49284 24.887 9.56457 24.6006 9.52873C24.4752 9.51076 24.3499 9.47492 24.2425 9.40318C24.1351 9.33145 24.0456 9.2418 23.9739 9.13422C23.8844 9.0266 23.8308 8.9011 23.7949 8.79353C23.7591 8.66798 23.7233 8.54244 23.7054 8.39902C23.6696 8.14798 23.6696 7.89694 23.6875 7.66382C23.7054 7.41278 23.7413 7.17966 23.7949 6.92862C23.8308 6.74926 23.8844 6.56996 23.9382 6.39065C23.9919 6.21134 24.0635 6.04996 24.1351 5.88857C24.332 5.49406 24.6006 5.15335 24.9228 4.84851C25.1197 4.66919 25.3166 4.48988 25.5315 4.34642C25.7463 4.18503 25.979 4.05951 26.2117 3.93399C26.4624 3.80847 26.713 3.71881 26.9636 3.64708C27.2143 3.57535 27.4649 3.50363 27.7334 3.46776C27.7513 3.46776 27.7692 3.46776 27.7692 3.46776C27.7871 3.46776 27.7871 3.46776 27.8051 3.46776C27.8408 3.34224 27.8767 3.21672 27.9125 3.10913C27.9482 3.00153 27.9841 2.87601 28.0198 2.75049C28.0377 2.6967 28.0736 2.66083 28.1094 2.62497C28.1631 2.60704 28.2168 2.5891 28.2884 2.60704C28.4137 2.62497 28.5211 2.67877 28.5748 2.76843C28.6465 2.85808 28.6822 2.94774 28.6822 3.0374C28.7001 3.16292 28.7181 3.27052 28.7181 3.39604C28.7181 3.52156 28.7001 3.64708 28.6822 3.75467C28.6643 4.05951 28.6465 4.36435 28.6465 4.66919C28.6285 4.97404 28.6465 5.27887 28.6643 5.58372C28.7001 5.9603 28.736 6.33684 28.8076 6.71342C28.8613 7.09001 28.9329 7.44862 29.0224 7.82521C29.0761 8.04036 29.1119 8.27348 29.1835 8.48868C29.2372 8.70382 29.2909 8.91902 29.3625 9.13422C29.3984 9.25972 29.4341 9.38526 29.4699 9.49284C29.5058 9.61838 29.5415 9.72596 29.5953 9.8515C29.5953 9.86942 29.6131 9.90526 29.6131 9.95908C29.631 10.0308 29.6131 10.0846 29.5953 10.1384C29.5774 10.1743 29.5236 10.228 29.4879 10.2818C29.452 10.3177 29.3984 10.3536 29.3446 10.3715C29.2909 10.3894 29.2551 10.4253 29.2014 10.4432C29.1656 10.4074 29.1119 10.4253 29.0403 10.4432ZM25.3345 8.54244H25.3703C25.4061 8.52452 25.424 8.52452 25.442 8.5066C25.7284 8.34521 25.9611 8.09417 26.1222 7.80724C26.1759 7.71758 26.2117 7.62793 26.2475 7.53828C26.2834 7.44862 26.337 7.35897 26.3729 7.26932C26.4624 7.10793 26.5519 6.94654 26.6593 6.78516C26.7667 6.62377 26.8383 6.46238 26.9099 6.28308C26.9636 6.13961 27.0173 6.01406 27.0889 5.87065C27.1606 5.7451 27.2143 5.60164 27.2679 5.47614C27.3396 5.29681 27.4112 5.11749 27.4828 4.95611C27.5544 4.77678 27.6081 4.59747 27.6618 4.41815C27.6797 4.36435 27.6976 4.31056 27.6976 4.25676C27.7155 4.20297 27.6976 4.13124 27.6976 4.07744C27.6439 4.09537 27.5902 4.09537 27.5365 4.11331C27.4828 4.13124 27.447 4.14917 27.3933 4.18503C27.2143 4.27469 27.0353 4.38229 26.8562 4.47195C26.6772 4.57953 26.5161 4.68712 26.337 4.81265C26.2117 4.92024 26.0685 5.02783 25.9611 5.13542C25.8358 5.24301 25.7463 5.36852 25.6746 5.5299C25.6389 5.60164 25.6031 5.65545 25.5851 5.72718C25.5494 5.79892 25.5136 5.85268 25.4956 5.92441C25.4599 6.03204 25.4061 6.13961 25.3703 6.24718C25.3345 6.35481 25.2987 6.46238 25.2808 6.58788C25.2629 6.67753 25.245 6.78516 25.2271 6.89273C25.2092 7.0003 25.2092 7.09001 25.1913 7.19758C25.1734 7.35897 25.1555 7.53828 25.1555 7.69966C25.1555 7.86105 25.1734 8.04036 25.2092 8.20174C25.2271 8.25556 25.2271 8.30937 25.245 8.3811C25.2629 8.43486 25.2987 8.48868 25.3345 8.54244Z" fill="white"/>
<path d="M30.347 2.37364C30.2933 2.3557 30.2754 2.31984 30.2754 2.26605C30.2754 2.24812 30.2754 2.21225 30.2933 2.17639C30.3112 2.14052 30.3291 2.12259 30.347 2.08673C30.3649 2.05086 30.4007 2.03293 30.4186 2.015C30.4545 1.99707 30.4724 1.99707 30.5081 1.99707C30.5619 2.015 30.6335 2.015 30.6871 2.03293C30.7588 2.05086 30.8125 2.0688 30.8662 2.12259L30.902 2.15846C30.9557 2.28398 30.9557 2.4095 30.9199 2.51709C30.8841 2.62468 30.8125 2.73227 30.705 2.804C30.6693 2.82193 30.6335 2.83986 30.5976 2.83986C30.5619 2.83986 30.526 2.8578 30.4724 2.8578C30.4545 2.8578 30.4186 2.8578 30.4186 2.83986C30.4007 2.82193 30.4007 2.804 30.4186 2.76814C30.4365 2.75021 30.4365 2.73227 30.4544 2.71434C30.4724 2.69641 30.5081 2.66055 30.526 2.64261C30.544 2.62468 30.5798 2.58882 30.5976 2.57089C30.6155 2.55295 30.6155 2.53502 30.6335 2.51709C30.6514 2.49916 30.6514 2.48122 30.6335 2.44536C30.6155 2.42743 30.5976 2.42743 30.5798 2.4095C30.5619 2.4095 30.526 2.4095 30.5081 2.39157L30.4365 2.37364C30.4186 2.37364 30.3828 2.37364 30.3649 2.35571C30.3828 2.39157 30.3649 2.39157 30.347 2.37364Z" fill="white"/>
<path d="M31.5988 7.10763C31.7241 7.21521 31.8315 7.34075 31.9389 7.44833C32.0463 7.57387 32.1001 7.71734 32.1358 7.87873C32.1538 8.02214 32.1896 8.16561 32.2433 8.30907C32.2791 8.45254 32.3507 8.57803 32.4402 8.7215C32.4939 8.79323 32.5476 8.86497 32.6192 8.91878C32.6729 8.97254 32.7446 9.04427 32.8161 9.09809C32.8699 9.15185 32.9415 9.16982 33.0131 9.18774C33.0847 9.20566 33.1563 9.20566 33.2279 9.20566C33.2816 9.18774 33.3353 9.16982 33.389 9.15185C33.4427 9.09809 33.5143 9.02635 33.568 8.97254C33.6217 8.90081 33.6575 8.82907 33.6755 8.73942C33.747 8.48838 33.7829 8.25526 33.8008 8.00422C33.8187 7.75318 33.7829 7.52006 33.7113 7.26902C33.6755 7.10763 33.6217 6.96417 33.5501 6.83867C33.4785 6.69521 33.4069 6.56971 33.3174 6.44417C33.21 6.3007 33.1205 6.15723 33.0131 6.01382C32.9056 5.87035 32.8161 5.72689 32.7266 5.58342C32.6192 5.40411 32.5118 5.2248 32.4223 5.02755C32.3328 4.84824 32.2612 4.65098 32.2075 4.4358C32.1717 4.27442 32.1538 4.13096 32.1717 3.96957C32.1896 3.80819 32.2075 3.6468 32.2612 3.50335C32.3149 3.35989 32.3865 3.21644 32.4939 3.07299C32.5834 2.94746 32.7087 2.83987 32.8341 2.73228C32.8699 2.71435 32.9236 2.67849 32.9594 2.66056C32.9951 2.64262 33.0489 2.60676 33.0847 2.58883C33.21 2.5171 33.3353 2.4633 33.4606 2.44537C33.6039 2.42744 33.7291 2.42744 33.8545 2.4633C33.9798 2.49917 34.1051 2.53503 34.2304 2.60676C34.3558 2.66056 34.4453 2.73228 34.5348 2.82194C34.7138 3.00126 34.8749 3.19851 35.036 3.41369C35.0897 3.48541 35.1434 3.57508 35.1792 3.66474C35.2151 3.7544 35.2508 3.84405 35.3046 3.91578C35.3224 3.96957 35.3582 4.02337 35.3762 4.07717C35.3941 4.13096 35.412 4.18476 35.4478 4.23855C35.4836 4.31028 35.4657 4.38201 35.412 4.45373C35.3941 4.47166 35.3762 4.50753 35.3582 4.50753C35.3403 4.52546 35.3046 4.52546 35.2687 4.50753C35.1972 4.50753 35.1613 4.47166 35.1613 4.39994C35.1434 4.34614 35.1434 4.31028 35.1255 4.25649C35.1255 4.20269 35.1076 4.16683 35.0897 4.13096C35.0181 3.96957 34.9465 3.80819 34.8391 3.68267C34.7317 3.53921 34.6064 3.43162 34.4632 3.32403C34.4094 3.28817 34.3378 3.2523 34.2483 3.23437C34.1767 3.21644 34.1051 3.18058 34.0156 3.16265C33.9619 3.14471 33.9261 3.14471 33.8724 3.16265C33.8187 3.18058 33.7829 3.19851 33.747 3.2523C33.6575 3.35989 33.568 3.48541 33.5143 3.61094C33.4606 3.73646 33.4248 3.87992 33.4069 4.02337C33.4069 4.0951 33.4069 4.16683 33.4248 4.23855C33.4427 4.31028 33.4785 4.36408 33.4964 4.41787C33.6039 4.63305 33.7113 4.8303 33.8365 5.00962C33.9619 5.18894 34.0872 5.38619 34.2125 5.5655C34.3199 5.70897 34.4094 5.85243 34.4989 5.99585C34.5884 6.13931 34.678 6.28278 34.7675 6.44417C34.9823 6.85659 35.1077 7.30491 35.1434 7.7711C35.1613 8.02214 35.1434 8.25526 35.1255 8.48838C35.1077 8.7215 35.0539 8.95462 34.9823 9.18774C34.9107 9.4567 34.8033 9.68982 34.6422 9.88705C34.481 10.0843 34.2662 10.2457 33.9977 10.3533C33.8903 10.4071 33.765 10.425 33.6575 10.425C33.5501 10.425 33.4248 10.425 33.3174 10.425C32.9594 10.3892 32.6192 10.2816 32.3328 10.0843C32.2254 9.99467 32.118 9.90502 32.0284 9.81537C31.9389 9.72566 31.8494 9.61809 31.7599 9.51051C31.5451 9.2415 31.4019 8.9367 31.3124 8.59601C31.2765 8.45254 31.2587 8.32699 31.2765 8.18353C31.2944 8.04011 31.3124 7.91457 31.3661 7.7711C31.4019 7.66353 31.4377 7.55595 31.4914 7.44833C31.5093 7.34075 31.563 7.23318 31.5988 7.10763Z" fill="white"/>
<path d="M38.5102 15.9932C38.4018 15.9932 38.3057 15.9862 38.2217 15.9722C38.1378 15.9617 38.0556 15.9407 37.9752 15.9092V15.41C38.0346 15.431 38.0888 15.4451 38.1378 15.452C38.1902 15.459 38.2427 15.4626 38.2952 15.4626C38.4385 15.4626 38.5487 15.4293 38.6256 15.3627C38.706 15.2962 38.7865 15.1841 38.8669 15.0265L37.7549 12.5781H38.4945L39.2236 14.2699L39.9474 12.5781H40.6818L39.7009 14.8951C39.61 15.1123 39.5103 15.3032 39.4019 15.4678C39.297 15.6359 39.1729 15.7655 39.0295 15.8566C38.8861 15.9477 38.7131 15.9932 38.5102 15.9932Z" fill="white"/>
<path d="M36.7005 15.1204C36.2563 15.1204 35.9154 15.01 35.6776 14.7893C35.4433 14.5687 35.3262 14.2464 35.3262 13.8226C35.3262 13.3848 35.452 13.059 35.7039 12.8454C35.9591 12.6317 36.2983 12.5249 36.7214 12.5249C36.8963 12.5249 37.0466 12.5371 37.1725 12.5616C37.2984 12.5862 37.4208 12.6264 37.5397 12.6825V13.1922C37.4523 13.1501 37.3509 13.1168 37.2355 13.0923C37.1201 13.0678 36.9959 13.0555 36.863 13.0555C36.5973 13.0555 36.3945 13.1116 36.2546 13.2237C36.1147 13.3323 36.0448 13.5319 36.0448 13.8226C36.0448 14.0888 36.1077 14.2832 36.2336 14.4058C36.363 14.5284 36.5711 14.5897 36.8578 14.5897C36.9802 14.5897 37.0991 14.5774 37.2145 14.5529C37.3334 14.5284 37.4435 14.4916 37.545 14.4426V14.968C37.3107 15.0695 37.0292 15.1204 36.7005 15.1204Z" fill="white"/>
<path d="M32.4348 15.0678V12.5774H33.0904L33.1166 12.8139C33.2181 12.7368 33.3457 12.6702 33.4996 12.6142C33.6569 12.5547 33.8213 12.5249 33.9926 12.5249C34.3213 12.5249 34.5608 12.6019 34.7112 12.756C34.8616 12.9102 34.9368 13.1484 34.9368 13.4706V15.0678H34.2286V13.5074C34.2286 13.3392 34.1937 13.2202 34.1237 13.1501C34.0573 13.08 33.9314 13.045 33.7461 13.045C33.6377 13.045 33.5275 13.0695 33.4157 13.1186C33.3073 13.1676 33.2163 13.2289 33.1429 13.3024V15.0678H32.4348Z" fill="white"/>
<path d="M30.8859 15.1204C30.4558 15.1204 30.1148 15.0135 29.863 14.7998C29.6113 14.5827 29.4854 14.2552 29.4854 13.8174C29.4854 13.4215 29.5903 13.108 29.8001 12.8769C30.0134 12.6422 30.3299 12.5249 30.7495 12.5249C31.1341 12.5249 31.4279 12.6264 31.6307 12.8296C31.8371 13.0293 31.9402 13.2919 31.9402 13.6177V14.0695H30.141C30.1795 14.2692 30.2704 14.4058 30.4138 14.4794C30.5607 14.5529 30.767 14.5897 31.0328 14.5897C31.1657 14.5897 31.3003 14.5774 31.4366 14.5529C31.5765 14.5284 31.6954 14.4969 31.7933 14.4583V14.9627C31.678 15.0152 31.5433 15.0538 31.3895 15.0783C31.2356 15.1063 31.0677 15.1204 30.8859 15.1204ZM30.141 13.6335H31.3213V13.4968C31.3213 13.3533 31.2793 13.2412 31.1954 13.1606C31.1115 13.0765 30.9698 13.0345 30.7705 13.0345C30.5362 13.0345 30.3719 13.0818 30.2775 13.1764C30.1865 13.2709 30.141 13.4233 30.141 13.6335Z" fill="white"/>
<path d="M27.7463 15.9925C27.561 15.9925 27.3704 15.9803 27.1746 15.9557C26.9822 15.9312 26.8196 15.8962 26.6867 15.8507V15.32C26.8266 15.3655 26.991 15.4006 27.1798 15.4251C27.3686 15.4531 27.5452 15.4671 27.7096 15.4671C27.9508 15.4671 28.1257 15.4531 28.2341 15.4251C28.3425 15.4006 28.3967 15.355 28.3967 15.2885C28.3967 15.2324 28.3722 15.1939 28.3232 15.1729C28.2778 15.1519 28.1799 15.1414 28.0295 15.1414H27.3529C26.9088 15.1414 26.6867 14.9767 26.6867 14.6475C26.6867 14.5459 26.7147 14.4531 26.7707 14.369C26.8266 14.285 26.9158 14.2184 27.0382 14.1694C26.7549 14.0258 26.6133 13.7841 26.6133 13.4443C26.6133 13.1221 26.713 12.8892 26.9123 12.7455C27.1116 12.5984 27.4071 12.5249 27.7987 12.5249C27.8792 12.5249 27.9666 12.5319 28.061 12.5459C28.1589 12.5564 28.2324 12.5669 28.2813 12.5774H29.215L29.1993 13.024H28.8058C28.9142 13.1256 28.9684 13.2675 28.9684 13.4496C28.9684 13.7053 28.888 13.9102 28.7272 14.0643C28.5663 14.2149 28.3285 14.2902 28.0138 14.2902C27.9579 14.2902 27.9037 14.2885 27.8512 14.285C27.8022 14.278 27.7515 14.271 27.6991 14.2639C27.5942 14.278 27.505 14.3025 27.4316 14.3375C27.3616 14.3725 27.3267 14.4198 27.3267 14.4794C27.3267 14.5599 27.3984 14.6002 27.5417 14.6002H28.2446C28.4964 14.6002 28.6904 14.658 28.8268 14.7736C28.9632 14.8856 29.0314 15.0503 29.0314 15.2675C29.0314 15.5126 28.9213 15.6948 28.7009 15.8139C28.4806 15.933 28.1624 15.9925 27.7463 15.9925ZM27.804 13.8909C28.0138 13.8909 28.1589 13.8559 28.2393 13.7859C28.3232 13.7123 28.3652 13.5897 28.3652 13.4181C28.3652 13.2464 28.3232 13.1221 28.2393 13.045C28.1589 12.9679 28.0138 12.9294 27.804 12.9294C27.6047 12.9294 27.4613 12.9679 27.3739 13.045C27.2864 13.1186 27.2427 13.2429 27.2427 13.4181C27.2427 13.5792 27.283 13.6983 27.3634 13.7754C27.4473 13.8524 27.5942 13.8909 27.804 13.8909Z" fill="white"/>
<path d="M22.8524 15.0681L24.1428 11.6846H24.9191L26.2042 15.0681H25.4699L25.1499 14.2537H23.9068L23.592 15.0681H22.8524ZM24.0117 13.7073H25.045L24.5257 12.3465L24.0117 13.7073Z" fill="white"/>
<path d="M19.9084 15.9925C19.723 15.9925 19.5325 15.9803 19.3366 15.9557C19.1443 15.9312 18.9817 15.8962 18.8488 15.8507V15.32C18.9887 15.3655 19.153 15.4006 19.3419 15.4251C19.5307 15.4531 19.7073 15.4671 19.8716 15.4671C20.1129 15.4671 20.2878 15.4531 20.3962 15.4251C20.5046 15.4006 20.5588 15.355 20.5588 15.2885C20.5588 15.2324 20.5343 15.1939 20.4854 15.1729C20.4399 15.1519 20.342 15.1414 20.1916 15.1414H19.515C19.0709 15.1414 18.8488 14.9767 18.8488 14.6475C18.8488 14.5459 18.8768 14.4531 18.9327 14.369C18.9887 14.285 19.0779 14.2184 19.2002 14.1694C18.917 14.0258 18.7754 13.7841 18.7754 13.4443C18.7754 13.1221 18.875 12.8892 19.0744 12.7455C19.2737 12.5984 19.5692 12.5249 19.9608 12.5249C20.0412 12.5249 20.1287 12.5319 20.2231 12.5459C20.321 12.5564 20.3944 12.5669 20.4434 12.5774H21.3771L21.3613 13.024H20.9679C21.0763 13.1256 21.1305 13.2675 21.1305 13.4496C21.1305 13.7053 21.0501 13.9102 20.8892 14.0643C20.7284 14.2149 20.4906 14.2902 20.1759 14.2902C20.1199 14.2902 20.0657 14.2885 20.0133 14.285C19.9643 14.278 19.9136 14.271 19.8611 14.2639C19.7562 14.278 19.6671 14.3025 19.5936 14.3375C19.5237 14.3725 19.4887 14.4198 19.4887 14.4794C19.4887 14.5599 19.5604 14.6002 19.7038 14.6002H20.4067C20.6585 14.6002 20.8525 14.658 20.9889 14.7736C21.1253 14.8856 21.1935 15.0503 21.1935 15.2675C21.1935 15.5126 21.0833 15.6948 20.863 15.8139C20.6427 15.933 20.3245 15.9925 19.9084 15.9925ZM19.966 13.8909C20.1759 13.8909 20.321 13.8559 20.4014 13.7859C20.4854 13.7123 20.5273 13.5897 20.5273 13.4181C20.5273 13.2464 20.4854 13.1221 20.4014 13.045C20.321 12.9679 20.1759 12.9294 19.966 12.9294C19.7667 12.9294 19.6234 12.9679 19.536 13.045C19.4485 13.1186 19.4048 13.2429 19.4048 13.4181C19.4048 13.5792 19.445 13.6983 19.5255 13.7754C19.6094 13.8524 19.7562 13.8909 19.966 13.8909Z" fill="white"/>
<path d="M15.7803 15.0678V12.5774H16.436L16.4622 12.8139C16.5636 12.7368 16.6912 12.6702 16.845 12.6142C17.0024 12.5547 17.1668 12.5249 17.3381 12.5249C17.6668 12.5249 17.9064 12.6019 18.0567 12.756C18.2071 12.9102 18.2823 13.1484 18.2823 13.4706V15.0678H17.5742V13.5074C17.5742 13.3392 17.5392 13.2202 17.4693 13.1501C17.4028 13.08 17.2769 13.045 17.0916 13.045C16.9832 13.045 16.8731 13.0695 16.7611 13.1186C16.6527 13.1676 16.5618 13.2289 16.4884 13.3024V15.0678H15.7803Z" fill="white"/>
<path d="M14.4126 12.1209V11.564H15.1837V12.1209H14.4126ZM14.4703 15.0684V13.1034H14.0979L14.1608 12.578H15.1784V15.0684H14.4703Z" fill="white"/>
<path d="M12.1835 15.1206C11.9632 15.1206 11.7657 15.0821 11.5908 15.005C11.4195 14.9244 11.2848 14.7948 11.1869 14.6162C11.089 14.4341 11.04 14.1941 11.04 13.8964C11.04 13.5986 11.0942 13.3482 11.2027 13.1451C11.3111 12.9419 11.4562 12.7878 11.638 12.6827C11.8198 12.5776 12.0192 12.5251 12.236 12.5251C12.5087 12.5251 12.7413 12.5881 12.9336 12.7143V11.5269H13.6417V15.068H13.0333L12.9913 14.8368C12.8829 14.9314 12.764 15.0032 12.6346 15.0522C12.5087 15.0978 12.3584 15.1206 12.1835 15.1206ZM12.3776 14.6004C12.5979 14.6004 12.7832 14.5251 12.9336 14.3745V13.2397C12.7867 13.1101 12.6154 13.0453 12.4196 13.0453C11.979 13.0453 11.7587 13.3289 11.7587 13.8964C11.7587 14.1626 11.8129 14.3465 11.9213 14.4481C12.0297 14.5496 12.1818 14.6004 12.3776 14.6004Z" fill="white"/>
<path d="M8.14746 15.0678V12.5774H8.80314L8.82939 12.8139C8.93077 12.7368 9.05841 12.6702 9.21229 12.6142C9.36963 12.5547 9.53401 12.5249 9.70535 12.5249C10.034 12.5249 10.2736 12.6019 10.424 12.756C10.5743 12.9102 10.6495 13.1484 10.6495 13.4706V15.0678H9.9414V13.5074C9.9414 13.3392 9.90641 13.2202 9.83645 13.1501C9.77005 13.08 9.64412 13.045 9.45882 13.045C9.35041 13.045 9.24024 13.0695 9.12837 13.1186C9.01996 13.1676 8.92902 13.2289 8.85559 13.3024V15.0678H8.14746Z" fill="white"/>
<path d="M6.02805 15.1204C5.8707 15.1204 5.72385 15.0923 5.58743 15.0363C5.45458 14.9767 5.34617 14.8909 5.26224 14.7788C5.18182 14.6632 5.1416 14.5196 5.1416 14.348C5.1416 14.1028 5.22728 13.9067 5.39862 13.7596C5.57348 13.6125 5.8305 13.5389 6.16968 13.5389H6.90401V13.4706C6.90401 13.3165 6.86029 13.2079 6.77292 13.1448C6.68895 13.0818 6.5176 13.0503 6.25887 13.0503C5.9756 13.0503 5.70287 13.0941 5.44058 13.1816V12.6825C5.55596 12.637 5.69584 12.6002 5.86021 12.5722C6.02805 12.5406 6.20989 12.5249 6.40573 12.5249C6.77989 12.5249 7.06838 12.6019 7.2712 12.756C7.47753 12.9067 7.58067 13.1501 7.58067 13.4863V15.0678H6.96695L6.93026 14.8419C6.83234 14.9294 6.71168 14.9978 6.56834 15.0468C6.42495 15.0958 6.24487 15.1204 6.02805 15.1204ZM6.22213 14.6527C6.37948 14.6527 6.5159 14.6265 6.63128 14.5739C6.74667 14.5214 6.83761 14.4548 6.90401 14.3743V13.9803H6.18545C5.90915 13.9803 5.77103 14.0941 5.77103 14.3218C5.77103 14.5424 5.92139 14.6527 6.22213 14.6527Z" fill="white"/>
<path d="M3.44647 15.0678V12.5774H4.10214L4.13361 12.8349C4.24551 12.7648 4.38363 12.7018 4.54799 12.6457C4.71584 12.5862 4.88019 12.5459 5.04105 12.5249V13.0608C4.94663 13.0748 4.84348 13.0958 4.73157 13.1238C4.61967 13.1518 4.51302 13.1834 4.41161 13.2184C4.3102 13.2534 4.22452 13.2902 4.15459 13.3287V15.0678H3.44647Z" fill="white"/>
<path d="M0.112305 15.0681V11.6846H1.82228C2.16147 11.6846 2.41325 11.7651 2.5776 11.9262C2.74545 12.0839 2.82937 12.308 2.82937 12.5988C2.82937 12.7809 2.79441 12.9333 2.72447 13.0558C2.65453 13.1749 2.56012 13.2678 2.44122 13.3343C2.59858 13.3833 2.72272 13.4656 2.81364 13.5813C2.90806 13.6933 2.95526 13.8597 2.95526 14.0804C2.95526 14.4061 2.8626 14.653 2.67726 14.8212C2.49543 14.9858 2.23141 15.0681 1.88522 15.0681H0.112305ZM0.820423 13.0874H1.69115C1.86249 13.0874 1.98488 13.0506 2.05831 12.977C2.13175 12.9 2.16847 12.7932 2.16847 12.6566C2.16847 12.506 2.13 12.3938 2.05307 12.3203C1.97964 12.2468 1.84151 12.21 1.63869 12.21H0.820423V13.0874ZM0.820423 14.548H1.71737C1.89571 14.548 2.02684 14.5112 2.11077 14.4376C2.19469 14.3641 2.23665 14.2345 2.23665 14.0488C2.23665 13.8982 2.19469 13.7862 2.11077 13.7126C2.03034 13.639 1.88347 13.6023 1.67016 13.6023H0.820423V14.548Z" fill="white"/>
</g>
</g>
<defs>
<clipPath id="clip0_319_214">
<rect width="41" height="16" fill="white"/>
</clipPath>
</defs>
</svg>
