<svg width="61" height="16" viewBox="0 0 61 16" fill="none" xmlns="http://www.w3.org/2000/svg">
<g clip-path="url(#clip0_319_239)">
<mask id="mask0_319_239" style="mask-type:alpha" maskUnits="userSpaceOnUse" x="0" y="0" width="62" height="16">
<path d="M61.0048 0H0.112305V16H61.0048V0Z" fill="#D9D9D9"/>
</mask>
<g mask="url(#mask0_319_239)">
<path d="M3.35236 2.89663V4.19525C3.92123 3.26243 4.82042 2.80518 6.04993 2.80518C7.07757 2.80518 7.90332 3.1527 8.52728 3.82944C9.15119 4.50619 9.4815 5.43901 9.4815 6.59133V11.7675H6.76561V6.93885C6.76561 6.37181 6.61878 5.93282 6.30683 5.60359C5.99487 5.29267 5.59115 5.12806 5.05898 5.12806C4.5268 5.12806 4.10474 5.29267 3.81113 5.60359C3.49916 5.91458 3.35236 6.35351 3.35236 6.93885V11.7492H0.618103V2.89663H3.35236Z" fill="white"/>
<path d="M12.1432 10.5967C11.3541 9.75527 10.9688 8.65788 10.9688 7.34092C10.9688 6.02401 11.3541 4.9266 12.1432 4.06695C12.9323 3.2073 13.8865 2.78662 15.0242 2.78662C16.162 2.78662 17.0244 3.2073 17.6301 4.04866V2.89636H20.3643V11.7672H17.6301V10.4869C16.9694 11.4197 16.0886 11.877 14.9875 11.877C13.8865 11.877 12.9323 11.4563 12.1432 10.5967ZM17.0428 8.95052C17.4282 8.56641 17.6301 8.03596 17.6301 7.32268C17.6301 6.60935 17.4282 6.07889 17.0428 5.71308C16.6574 5.32899 16.1987 5.14609 15.6849 5.14609C15.1711 5.14609 14.7306 5.32899 14.3269 5.71308C13.9415 6.09719 13.7397 6.62764 13.7397 7.34092C13.7397 8.03596 13.9415 8.58471 14.3269 8.95052C14.7123 9.33463 15.1711 9.51751 15.6849 9.51751C16.1987 9.51751 16.6574 9.33463 17.0428 8.95052Z" fill="white"/>
<path d="M26.3819 9.46283H27.3545V11.7674H25.9598C24.9689 11.7674 24.1798 11.5479 23.6476 11.109C23.0971 10.67 22.8218 9.92011 22.8218 8.84096V5.14628H21.996V2.89655H22.8218V0.738281H25.5561V2.89655H27.3361V5.14628H25.5561V8.84096C25.5561 9.24336 25.8313 9.46283 26.3819 9.46283Z" fill="white"/>
<path d="M35.1006 2.89697H37.8349V11.7678H35.1006V10.4692C34.5318 11.402 33.6326 11.8593 32.4031 11.8593C31.3754 11.8593 30.5496 11.5118 29.9257 10.835C29.3018 10.1583 28.9715 9.24378 28.9715 8.07317V2.89697H31.6874V7.70736C31.6874 8.27434 31.8342 8.71333 32.1462 9.04256C32.4398 9.35349 32.8619 9.51813 33.394 9.51813C33.9262 9.51813 34.3483 9.35349 34.6419 9.04256C34.9538 8.73162 35.1006 8.29264 35.1006 7.70736V2.89697Z" fill="white"/>
<path d="M42.7881 2.89636V4.5425C43.4304 3.37191 44.2745 2.78662 45.3389 2.78662V5.54849H44.6599C44.036 5.54849 43.5588 5.69479 43.2469 5.98743C42.9349 6.28012 42.7697 6.81052 42.7697 7.54215V11.7307H40.0722V2.89636H42.7881Z" fill="white"/>
<path d="M47.191 10.5967C46.4019 9.75527 46.0165 8.65788 46.0165 7.34092C46.0165 6.02401 46.4019 4.9266 47.191 4.06695C47.98 3.2073 48.9343 2.78662 50.072 2.78662C51.2098 2.78662 52.0722 3.2073 52.6778 4.04866V2.89636H55.4121V11.7672H52.6778V10.4869C52.0172 11.4197 51.1364 11.877 50.0353 11.877C48.9343 11.877 47.98 11.4563 47.191 10.5967ZM52.0906 8.95052C52.476 8.56641 52.6778 8.03596 52.6778 7.32268C52.6778 6.60935 52.476 6.07889 52.0906 5.71308C51.7052 5.32899 51.2465 5.14609 50.7326 5.14609C50.2189 5.14609 49.7784 5.32899 49.3747 5.71308C48.9893 6.09719 48.7875 6.62764 48.7875 7.34092C48.7875 8.03596 48.9893 8.58471 49.3747 8.95052C49.7601 9.33463 50.2189 9.51751 50.7326 9.51751C51.2465 9.51751 51.6869 9.33463 52.0906 8.95052Z" fill="white"/>
<path d="M57.6337 11.7676V0.00683594H60.368V11.7676H57.6337Z" fill="white"/>
<path d="M3.55564 13.3223V15.9927H3.11523V14.1636L2.3078 15.9927H1.99583L1.17005 14.1636V15.9927H0.747986V13.3223H1.2251L2.16099 15.4074L3.09688 13.3223H3.55564Z" fill="white"/>
<path d="M6.60229 15.9927V13.3223H7.04273V15.9927H6.60229Z" fill="white"/>
<path d="M11.8504 13.3042H12.2908V15.9746H11.8504L10.5292 13.9992V15.9929H10.0887V13.3225H10.5292L11.8504 15.3161V13.3042Z" fill="white"/>
<path d="M16.8048 13.3042V13.6517H15.7588V14.4565H16.6764V14.7857H15.7588V15.6271H16.8048V15.9746H15.3184V13.3042H16.8048Z" fill="white"/>
<path d="M20.2548 14.8955V15.9746H19.8144V13.3042H20.732C21.0256 13.3042 21.2641 13.3774 21.4293 13.5237C21.5944 13.67 21.6678 13.8712 21.6678 14.0907C21.6678 14.2736 21.6128 14.4382 21.5026 14.5662C21.3926 14.7126 21.2274 14.804 21.0072 14.8406L21.7229 15.9563H21.1907L20.5117 14.8772H20.2548V14.8955ZM20.2548 13.6517V14.5479H20.732C20.8971 14.5479 21.0256 14.5113 21.0989 14.4199C21.1723 14.3468 21.2274 14.237 21.2274 14.0907C21.2274 13.9444 21.1907 13.8346 21.0989 13.7615C21.0256 13.6883 20.8971 13.6334 20.732 13.6334H20.2548V13.6517Z" fill="white"/>
<path d="M26.5122 15.9927L26.3103 15.444H25.2093L25.0074 15.9927H24.5486L25.5029 13.3223H26.0167L26.9709 15.9927H26.5122ZM25.3194 15.0965H26.2002L25.7598 13.8344L25.3194 15.0965Z" fill="white"/>
<path d="M29.8514 13.3223H30.2919V15.6634H31.191V15.9927H29.8514V13.3223Z" fill="white"/>
<path d="M40.679 13.3223H41.1562L40.3671 15.9927H39.8716L39.3027 13.9807L38.6972 15.9927H38.2017L37.4493 13.3223H37.9081L38.4586 15.4988L39.0642 13.3223H39.5596L40.1102 15.4805L40.679 13.3223Z" fill="white"/>
<path d="M45.7807 15.9927L45.5788 15.444H44.4594L44.2576 15.9927H43.7988L44.753 13.3223H45.2668L46.2211 15.9927H45.7807ZM44.5879 15.0965H45.4687L45.0283 13.8344L44.5879 15.0965Z" fill="white"/>
<path d="M48.9745 13.6517V13.3042H50.8463V13.6517H50.1307V15.9746H49.6902V13.6517H48.9745Z" fill="white"/>
<path d="M55.2328 13.3042V13.6517H54.1867V14.4565H55.1043V14.7857H54.1867V15.6271H55.2328V15.9746H53.7463V13.3042H55.2328Z" fill="white"/>
<path d="M58.6805 14.8955V15.9746H58.2402V13.3042H59.1578C59.4511 13.3042 59.6897 13.3774 59.8551 13.5237C60.0199 13.67 60.0937 13.8712 60.0937 14.0907C60.0937 14.2736 60.0386 14.4382 59.9284 14.5662C59.8181 14.7126 59.6533 14.804 59.4329 14.8406L60.1483 15.9563H59.6164L58.9374 14.8772H58.6805V14.8955ZM58.6805 13.6517V14.5479H59.1578C59.3227 14.5479 59.4511 14.5113 59.5244 14.4199C59.5982 14.3468 59.6533 14.237 59.6533 14.0907C59.6533 13.9444 59.6164 13.8346 59.5244 13.7615C59.4511 13.6883 59.3227 13.6334 59.1578 13.6334H58.6805V13.6517Z" fill="white"/>
</g>
</g>
<defs>
<clipPath id="clip0_319_239">
<rect width="61" height="16" fill="white"/>
</clipPath>
</defs>
</svg>
