<svg width="429" height="101" viewBox="0 0 429 101" fill="none" xmlns="http://www.w3.org/2000/svg">
<g opacity="0.2">
<path d="M382.478 100.048C377.527 100.048 373.089 99.2073 369.166 97.5258C365.242 95.7508 362.113 93.2285 359.777 89.9589C357.535 86.5958 356.414 82.5321 356.414 77.7678C356.414 73.0034 357.535 69.0331 359.777 65.8569C362.113 62.5872 365.289 60.1584 369.306 58.5702C373.416 56.8887 378.087 56.0479 383.319 56.0479H402.376V52.1244C402.376 48.8547 401.348 46.1923 399.293 44.1371C397.238 41.9884 393.968 40.9141 389.484 40.9141C385.094 40.9141 381.824 41.9417 379.675 43.997C377.527 45.9587 376.125 48.5278 375.471 51.704L359.217 46.239C360.338 42.6891 362.113 39.4661 364.541 36.5702C367.064 33.5808 370.38 31.1986 374.491 29.4237C378.694 27.5553 383.786 26.6211 389.764 26.6211C398.92 26.6211 406.159 28.9099 411.484 33.4874C416.809 38.0649 419.472 44.6976 419.472 53.3855V79.3092C419.472 82.1117 420.779 83.513 423.395 83.513H429V98.0863H417.23C413.773 98.0863 410.924 97.2455 408.682 95.564C406.44 93.8825 405.319 91.6404 405.319 88.8379V88.6977H402.656C402.283 89.8188 401.442 91.3134 400.134 93.1818C398.826 94.9568 396.771 96.5449 393.968 97.9462C391.166 99.3474 387.336 100.048 382.478 100.048ZM385.561 85.755C390.512 85.755 394.529 84.4005 397.612 81.6913C400.788 78.8888 402.376 75.1987 402.376 70.6212V69.22H384.58C381.31 69.22 378.741 69.9206 376.873 71.3219C375.004 72.7232 374.07 74.6849 374.07 77.2072C374.07 79.7295 375.051 81.7848 377.013 83.3729C378.975 84.961 381.824 85.755 385.561 85.755Z" fill="white"/>
<path d="M312.585 98.0903V28.5869H329.961V36.4341H332.483C333.511 33.6315 335.192 31.5763 337.528 30.2684C339.957 28.9606 342.759 28.3066 345.935 28.3066H354.343V44.001H345.655C341.171 44.001 337.481 45.2154 334.585 47.6443C331.689 49.9797 330.241 53.6231 330.241 58.5743V98.0903H312.585Z" fill="white"/>
<path d="M265.463 100.048C258.55 100.048 252.337 98.6468 246.826 95.8442C241.314 93.0417 236.97 88.978 233.794 83.6531C230.617 78.3283 229.029 71.9291 229.029 64.4556V62.2136C229.029 54.7401 230.617 48.3409 233.794 43.0161C236.97 37.6912 241.314 33.6275 246.826 30.8249C252.337 28.0224 258.55 26.6211 265.463 26.6211C272.376 26.6211 278.588 28.0224 284.1 30.8249C289.611 33.6275 293.955 37.6912 297.131 43.0161C300.308 48.3409 301.896 54.7401 301.896 62.2136V64.4556C301.896 71.9291 300.308 78.3283 297.131 83.6531C293.955 88.978 289.611 93.0417 284.1 95.8442C278.588 98.6468 272.376 100.048 265.463 100.048ZM265.463 84.3538C270.881 84.3538 275.365 82.6255 278.915 79.169C282.465 75.6191 284.24 70.5745 284.24 64.0352V62.6339C284.24 56.0947 282.465 51.0968 278.915 47.6403C275.458 44.0904 270.974 42.3154 265.463 42.3154C260.044 42.3154 255.56 44.0904 252.01 47.6403C248.46 51.0968 246.685 56.0947 246.685 62.6339V64.0352C246.685 70.5745 248.46 75.6191 252.01 79.169C255.56 82.6255 260.044 84.3538 265.463 84.3538Z" fill="white"/>
<path d="M153.42 98.0874L178.643 63.0554L153.7 28.584H174.159L189.993 51.7051H192.516L208.35 28.584H228.809L203.866 63.0554L229.089 98.0874H208.35L192.516 74.686H189.993L174.159 98.0874H153.42Z" fill="white"/>
<path d="M120.501 100.048C113.588 100.048 107.469 98.6001 102.144 95.7041C96.9125 92.7147 92.8021 88.5576 89.8127 83.2327C86.9167 77.8145 85.4688 71.462 85.4688 64.1754V62.4938C85.4688 55.2072 86.9167 48.9014 89.8127 43.5766C92.7087 38.1583 96.7724 34.0012 102.004 31.1052C107.235 28.1158 113.307 26.6211 120.22 26.6211C127.04 26.6211 132.972 28.1625 138.017 31.2453C143.061 34.2347 146.985 38.4385 149.787 43.8568C152.59 49.1817 153.991 55.394 153.991 62.4938V68.5193H103.405C103.592 73.2837 105.367 77.1605 108.73 80.1499C112.093 83.1393 116.203 84.634 121.061 84.634C126.012 84.634 129.656 83.5597 131.991 81.4111C134.327 79.2625 136.102 76.8803 137.316 74.2646L151.749 81.8315C150.441 84.2603 148.526 86.9228 146.004 89.8188C143.575 92.6213 140.305 95.0502 136.195 97.1054C132.085 99.0672 126.853 100.048 120.501 100.048ZM103.545 55.3473H136.055C135.681 51.3303 134.046 48.1074 131.15 45.6785C128.348 43.2496 124.658 42.0352 120.08 42.0352C115.316 42.0352 111.533 43.2496 108.73 45.6785C105.927 48.1074 104.199 51.3303 103.545 55.3473Z" fill="white"/>
<path d="M0 98.0895V0H35.1721L54.6498 85.478H57.1722V0H75.3888V98.0895H40.2167L20.7389 12.6115H18.2166V98.0895H0Z" fill="white"/>
</g>
</svg>
