<svg width="260" height="189" viewBox="0 0 260 189" fill="none" xmlns="http://www.w3.org/2000/svg">
<path d="M260 173C260 181.837 252.837 189 244 189H16C7.16344 189 0 181.837 0 173V16C0 7.16344 7.16344 0 16 0H113.857C118.354 0 122 3.64591 122 8.14337C122 12.0164 119.231 15.2704 115.617 16.6635C100.632 22.4401 90 36.9786 90 54C90 76.0914 107.909 94 130 94C152.091 94 170 76.0914 170 54C170 36.9786 159.368 22.4401 144.383 16.6635C140.769 15.2704 138 12.0164 138 8.14337C138 3.64591 141.646 0 146.143 0H244C252.837 0 260 7.16344 260 16V173Z" fill="white"/>
</svg>
