<svg width="237" height="224" viewBox="0 0 237 224" fill="none" xmlns="http://www.w3.org/2000/svg">
<path d="M149.361 46.9813L155.031 24.5442C143.51 20.3179 131.09 18.0093 118.139 18.0093C58.6394 18.0093 10.2467 66.5296 10.2467 126.17C10.2467 152.112 19.4206 175.951 34.6621 194.601C37.1655 197.663 39.8337 200.596 42.6425 203.368L42.3612 204.432C16.4711 182.72 0 150.069 0 113.563C0 99.0632 2.59986 85.1755 7.34952 72.3393C26.1472 29.7254 68.6732 0 118.139 0C136.715 0 154.32 4.19008 170.051 11.7L168.4 12.3527L164.333 28.4442L158.555 51.268L135.438 142.676L103.11 78.2578L62.0831 75.0467L69.4326 102.036L49.7227 176.624C47.0104 172.937 44.6034 169.009 42.5058 164.908C36.5547 153.288 33.1632 140.13 33.1632 126.174C33.1632 106.351 39.9944 88.0843 51.3542 73.5842C53.8134 70.486 56.4655 67.5449 59.2904 64.7972C74.5761 50.0715 95.3026 40.9862 118.131 40.9862C129.149 40.9862 139.693 43.1336 149.361 46.9813Z" fill="white"/>
<path d="M203.091 126.17C203.091 148.933 194.118 169.646 179.536 184.936C177.595 186.987 175.558 188.924 173.424 190.774C158.56 203.582 139.244 211.362 118.14 211.362C104.795 211.362 92.1614 208.247 80.9061 202.715L75.3487 224C72.2948 222.812 69.3011 221.49 66.3678 220.056L71.9532 197.599L94.1665 112.641L126.88 177.088L167.899 180.29L160.216 152.898L182.12 70.2123C184.904 73.4072 187.448 76.8157 189.73 80.3893C198.165 93.6284 203.091 109.333 203.091 126.17Z" fill="#B82132"/>
<path d="M236.279 113.564C236.279 155.094 214.962 191.636 182.706 212.772C208.982 193.026 226.016 161.548 226.016 126.17C226.016 97.7621 215.034 71.8924 197.112 52.5697C194.512 49.7696 191.792 47.1226 188.903 44.6045L193.689 26.5307C208.834 38.6699 221.009 54.3827 228.949 72.392C233.691 85.22 236.279 99.0836 236.279 113.564Z" fill="#B82132"/>
</svg>
