<svg width="173" height="45" viewBox="0 0 173 45" fill="none" xmlns="http://www.w3.org/2000/svg">
<path d="M29.3388 9.28621L30.4525 4.87892C28.1896 4.04875 25.7498 3.59528 23.2058 3.59528C11.5185 3.59528 2.01275 13.1261 2.01275 24.8411C2.01275 29.9369 3.81475 34.6196 6.80862 38.2829C7.30036 38.8844 7.82447 39.4605 8.3762 40.005L8.32095 40.214C3.2354 35.9491 0 29.5356 0 22.3648C0 19.5166 0.510686 16.7886 1.44366 14.2673C5.13607 5.89666 13.4894 0.0577393 23.2058 0.0577393C26.8548 0.0577393 30.3128 0.880791 33.403 2.35595L33.0786 2.48416L32.2798 5.64499L31.1447 10.1283L26.6038 28.0834L20.2538 15.4298L12.1949 14.7991L13.6386 20.1006L9.76697 34.7517C9.23418 34.0276 8.76138 33.256 8.34936 32.4504C7.18039 30.168 6.51421 27.5833 6.51421 24.8419C6.51421 20.9482 7.85604 17.36 10.0874 14.5118C10.5705 13.9032 11.0914 13.3255 11.6463 12.7858C14.6489 9.89321 18.7202 8.10861 23.2043 8.10861C25.3686 8.10861 27.4397 8.53042 29.3388 9.28621Z" fill="white"/>
<path d="M39.8929 24.8412C39.8929 29.3125 38.1304 33.3811 35.266 36.3844C34.8847 36.7873 34.4846 37.1679 34.0654 37.5312C31.1458 40.047 27.3515 41.5752 23.2061 41.5752C20.5847 41.5752 18.1031 40.9635 15.8923 39.8769L14.8006 44.0578C14.2008 43.8244 13.6127 43.5648 13.0365 43.283L14.1337 38.8718L18.497 22.1836L24.9228 34.8428L32.9801 35.472L31.471 30.0913L35.7735 13.8495C36.3205 14.477 36.8201 15.1466 37.2685 15.8485C38.9252 18.449 39.8929 21.5339 39.8929 24.8412Z" fill="#B82132"/>
<path d="M46.4119 22.3649C46.4119 30.5226 42.2246 37.7006 35.8888 41.8522C41.0501 37.9736 44.396 31.7904 44.396 24.8412C44.396 19.261 42.2388 14.1795 38.7185 10.384C38.2078 9.83394 37.6734 9.31399 37.1059 8.81937L38.046 5.26917C41.0209 7.65364 43.4125 10.7401 44.9722 14.2776C45.9036 16.7974 46.4119 19.5206 46.4119 22.3649Z" fill="#B82132"/>
<path d="M159.831 36.0106C158.43 36.0106 157.174 35.772 156.063 35.2948C154.952 34.791 154.067 34.0752 153.405 33.1472C152.771 32.1928 152.453 31.0395 152.453 29.6873C152.453 28.3352 152.771 27.2084 153.405 26.3069C154.067 25.379 154.966 24.6896 156.103 24.2389C157.266 23.7617 158.588 23.5231 160.069 23.5231H165.464V22.4095C165.464 21.4816 165.173 20.726 164.591 20.1427C164.009 19.5329 163.084 19.228 161.814 19.228C160.572 19.228 159.646 19.5196 159.038 20.1029C158.43 20.6597 158.033 21.3888 157.848 22.2902L153.247 20.7392C153.564 19.7317 154.067 18.8171 154.754 17.9952C155.468 17.1467 156.407 16.4707 157.57 15.9669C158.76 15.4367 160.201 15.1715 161.894 15.1715C164.485 15.1715 166.535 15.8211 168.042 17.1202C169.549 18.4194 170.303 20.3018 170.303 22.7675V30.1248C170.303 30.9202 170.673 31.3178 171.413 31.3178H173V35.4538H169.668C168.69 35.4538 167.883 35.2152 167.249 34.738C166.614 34.2608 166.297 33.6245 166.297 32.8291V32.7893H165.543C165.437 33.1075 165.199 33.5317 164.829 34.0619C164.459 34.5657 163.877 35.0164 163.084 35.4141C162.29 35.8118 161.206 36.0106 159.831 36.0106ZM160.704 31.9542C162.105 31.9542 163.242 31.5697 164.115 30.8008C165.014 30.0055 165.464 28.9582 165.464 27.6591V27.2614H160.426C159.501 27.2614 158.773 27.4602 158.245 27.8579C157.716 28.2556 157.451 28.8124 157.451 29.5282C157.451 30.2441 157.729 30.8274 158.284 31.2781C158.84 31.7288 159.646 31.9542 160.704 31.9542Z" fill="white"/>
<path d="M140.047 35.4538V15.7283H144.966V17.9554H145.68C145.971 17.16 146.447 16.5767 147.108 16.2055C147.795 15.8344 148.589 15.6488 149.488 15.6488H151.868V20.1029H149.408C148.139 20.1029 147.095 20.4476 146.275 21.1369C145.455 21.7997 145.045 22.8337 145.045 24.2389V35.4538H140.047Z" fill="white"/>
<path d="M126.709 36.0106C124.752 36.0106 122.993 35.6129 121.433 34.8175C119.873 34.0222 118.643 32.8688 117.744 31.3576C116.845 29.8464 116.396 28.0303 116.396 25.9092V25.2729C116.396 23.1519 116.845 21.3358 117.744 19.8245C118.643 18.3133 119.873 17.16 121.433 16.3646C122.993 15.5692 124.752 15.1715 126.709 15.1715C128.666 15.1715 130.424 15.5692 131.984 16.3646C133.544 17.16 134.774 18.3133 135.673 19.8245C136.572 21.3358 137.022 23.1519 137.022 25.2729V25.9092C137.022 28.0303 136.572 29.8464 135.673 31.3576C134.774 32.8688 133.544 34.0222 131.984 34.8175C130.424 35.6129 128.666 36.0106 126.709 36.0106ZM126.709 31.5565C128.242 31.5565 129.512 31.066 130.517 30.085C131.521 29.0775 132.024 27.6458 132.024 25.7899V25.3922C132.024 23.5363 131.521 22.1179 130.517 21.1369C129.538 20.1294 128.269 19.6257 126.709 19.6257C125.175 19.6257 123.906 20.1294 122.901 21.1369C121.896 22.1179 121.394 23.5363 121.394 25.3922V25.7899C121.394 27.6458 121.896 29.0775 122.901 30.085C123.906 31.066 125.175 31.5565 126.709 31.5565Z" fill="white"/>
<path d="M94.9932 35.4539L102.133 25.5116L95.0726 15.7283H100.864L105.346 22.2903H106.06L110.542 15.7283H116.333L109.273 25.5116L116.412 35.4539H110.542L106.06 28.8124H105.346L100.864 35.4539H94.9932Z" fill="white"/>
<path d="M85.6753 36.0106C83.7185 36.0106 81.9864 35.5997 80.4792 34.7778C78.9983 33.9294 77.8348 32.7495 76.9887 31.2383C76.1689 29.7006 75.759 27.8977 75.759 25.8297V25.3525C75.759 23.2845 76.1689 21.4948 76.9887 19.9836C77.8084 18.4459 78.9587 17.2661 80.4395 16.4442C81.9203 15.5957 83.6392 15.1715 85.596 15.1715C87.5263 15.1715 89.2055 15.609 90.6334 16.4839C92.0614 17.3323 93.172 18.5254 93.9653 20.0632C94.7586 21.5744 95.1552 23.3375 95.1552 25.3525V27.0625H80.8362C80.889 28.4147 81.3915 29.515 82.3434 30.3634C83.2954 31.2118 84.4589 31.636 85.834 31.636C87.2355 31.636 88.2667 31.3311 88.9278 30.7213C89.5889 30.1115 90.0913 29.4354 90.4351 28.6931L94.5206 30.8406C94.1504 31.5299 93.6083 32.2856 92.8943 33.1075C92.2068 33.9028 91.2813 34.5922 90.1178 35.1755C88.9543 35.7322 87.4734 36.0106 85.6753 36.0106ZM80.8758 23.3242H90.0781C89.9723 22.1842 89.5096 21.2695 88.6898 20.5802C87.8965 19.8908 86.852 19.5462 85.5563 19.5462C84.2077 19.5462 83.1367 19.8908 82.3434 20.5802C81.5501 21.2695 81.0609 22.1842 80.8758 23.3242Z" fill="white"/>
<path d="M51.5659 35.4538V7.61539H61.5218L67.0353 31.8746H67.7492V7.61539H72.9057V35.4538H62.9498L57.4363 11.1946H56.7223V35.4538H51.5659Z" fill="white"/>
</svg>
